<?xml version="1.0" encoding="UTF-8"?>
<svg width="72px" height="19px" viewBox="0 0 72 19" version="1.1" xmlns="http://www.w3.org/2000/svg" xmlns:xlink="http://www.w3.org/1999/xlink">
    <!-- Generator: Sketch 50.2 (55047) - http://www.bohemiancoding.com/sketch -->
    <title>datmo_logo_white</title>
    <desc>Created with Sketch.</desc>
    <defs></defs>
    <g id="Page-1" stroke="none" stroke-width="1" fill="none" fill-rule="evenodd">
        <g id="datmo_logo_white" fill="#FFFFFF" fill-rule="nonzero">
            <path d="M13.464224,17.994027 L10.2288282,17.994027 L10.2288282,16.6500933 C9.88040097,17.0731835 8.58624265,18.3175665 6.37124093,18.3175665 C2.63809195,18.3175665 0,15.505261 0,11.4983477 C0,7.46654684 2.43899067,4.65424127 6.17213965,4.65424127 C8.41202904,4.65424127 9.70618735,5.89862427 10.0297269,6.34660214 L10.0297269,0.000248876599 L13.464224,0.000248876599 L13.464224,17.994027 Z M6.79433114,7.69053578 C4.80331835,7.69053578 3.45938472,9.25845835 3.45938472,11.5232354 C3.45938472,13.8377878 4.85309367,15.281272 6.79433114,15.281272 C8.88489457,15.281272 10.1292776,13.5889112 10.1292776,11.5232354 C10.1292776,9.08424473 8.68579329,7.69053578 6.79433114,7.69053578 Z" id="Shape"></path>
            <path d="M20.4576564,9.65666091 C21.7767024,9.65666091 22.7970964,10.0548635 23.269962,10.378403 L23.269962,9.53222261 C23.269962,8.38739025 22.4237815,7.6158728 20.9056343,7.6158728 C19.611476,7.6158728 18.4168683,8.03896301 17.4462496,8.53671621 L16.1520913,6.19727618 C17.3218113,5.40087107 19.2879364,4.65424127 21.2789492,4.65424127 C25.460076,4.65424127 26.704459,6.84435534 26.704459,9.75621155 L26.704459,17.994027 L23.6681645,17.994027 L23.4441756,17.1478465 C22.7722088,17.8695887 21.7767024,18.3175665 20.2834428,18.3175665 C17.6453508,18.3175665 15.4054615,16.6998686 15.4054615,13.9622261 C15.4054615,11.3987971 17.4213619,9.65666091 20.4576564,9.65666091 Z M21.1047356,15.6545869 C22.3988939,15.6545869 23.344625,14.9577325 23.344625,13.8626754 C23.344625,12.7178431 22.3988939,12.0458763 21.0798479,12.0458763 C19.7608019,12.0458763 18.8399585,12.792506 18.8399585,13.8626754 C18.8399585,14.9328448 19.8105773,15.6545869 21.1047356,15.6545869 Z" id="Shape"></path>
            <path d="M29.5665399,2.24013826 L32.9512617,2.24013826 L32.9512617,4.97778085 L35.3902523,4.97778085 L35.3902523,7.76519876 L32.9512617,7.76519876 L32.9512617,12.792506 C32.9512617,14.7337435 33.5485655,15.1319461 34.8676115,15.1319461 C35.075309,15.1351293 35.2830234,15.1268208 35.489803,15.1070584 L35.489803,18.0438023 C35.489803,18.0438023 34.9671621,18.1682406 34.021431,18.1682406 C30.9104736,18.1682406 29.5416523,16.4261044 29.5416523,12.8920567 L29.5416523,7.76519876 L28.172831,7.76519876 L28.172831,4.97778085 L29.5665399,4.97778085 L29.5665399,2.24013826 Z" id="Shape"></path>
            <path d="M56.121673,17.994027 L52.6871759,17.994027 L52.6871759,10.2041894 C52.6871759,8.66115451 51.9156585,7.7403111 50.6463878,7.7403111 C49.4020048,7.7403111 48.5309367,8.66115451 48.5309367,10.2290771 L48.5309367,17.994027 L45.0964397,17.994027 L45.0964397,10.0797511 C45.0964397,8.61137919 44.3498099,7.7403111 43.0805392,7.7403111 C41.8610439,7.7403111 40.9650881,8.66115451 40.9650881,10.2041894 L40.9650881,17.994027 L37.5305911,17.994027 L37.5305911,4.97778085 L40.8904252,4.97778085 L40.8904252,6.4959281 C41.3632907,5.59997235 42.5081231,4.65424127 44.2751469,4.65424127 C45.9426201,4.65424127 47.1621155,5.40087107 47.8340823,6.59547874 C48.6055997,5.40087107 49.9495334,4.65424127 51.6916695,4.65424127 C54.6533011,4.65424127 56.121673,6.6203664 56.121673,9.40778431 L56.121673,17.994027 Z" id="Shape"></path>
            <path d="M64.9816799,4.65424127 C68.9637055,4.65424127 72,7.59098514 72,11.5232354 C72,15.4554857 69.0632561,18.3175665 64.9816799,18.3175665 C60.9249914,18.3175665 57.9882475,15.4554857 57.9882475,11.5232354 C57.9882475,7.56609748 61.024542,4.65424127 64.9816799,4.65424127 Z M64.9816799,15.281272 C67.0473557,15.281272 68.5655029,13.7382371 68.5655029,11.5232354 C68.5655029,9.30823367 67.0473557,7.69053578 64.9816799,7.69053578 C62.9160041,7.69053578 61.4227446,9.28334601 61.4227446,11.5232354 C61.4227446,13.7382371 62.9408918,15.281272 64.9816799,15.281272 Z" id="Shape"></path>
        </g>
    </g>
</svg>