<?xml version="1.0" encoding="UTF-8"?>
<svg width="204px" height="144px" viewBox="0 0 204 144" version="1.1" xmlns="http://www.w3.org/2000/svg" xmlns:xlink="http://www.w3.org/1999/xlink">
    <!-- Generator: Sketch 49.3 (51167) - http://www.bohemiancoding.com/sketch -->
    <title>Artboard Copy</title>
    <desc>Created with Sketch.</desc>
    <defs></defs>
    <g id="Artboard-Copy" stroke="none" stroke-width="1" fill="none" fill-rule="evenodd">
        <g id="illustration-3" transform="translate(8.000000, 1.000000)">
            <polygon id="Fill-55" fill="#FFFFFF" points="30 138 16 138 11 122 35 122"></polygon>
            <polygon id="Stroke-56" stroke="#3196EC" stroke-width="2" stroke-linejoin="round" points="30 138 16 138 11 122 35 122"></polygon>
            <polygon id="Fill-57" fill="#FFFFFF" points="174.001 138 156.001 138 153.001 114 177.001 114"></polygon>
            <polygon id="Stroke-58" stroke="#3196EC" stroke-width="2" stroke-linejoin="round" points="174.001 138 156.001 138 153.001 114 177.001 114"></polygon>
            <polygon id="Fill-59" fill="#FFFFFF" points="31 122 15 122 15 101 23 95 31 101"></polygon>
            <polygon id="Fill-60" fill="#FFFFFF" points="105 138 101 127 87 127 83 138"></polygon>
            <polyline id="Fill-61" fill="#FFFFFF" points="119 59 142 59 142 127 46 127 46 59 71 59"></polyline>
            <polygon id="Fill-62" fill="#FFFFFF" points="89 70 84 28 94 5 104 28 99 70"></polygon>
            <polygon id="Fill-63" fill="#CCEFFF" points="23 95 31 101 31 122 23 122"></polygon>
            <polygon id="Fill-64" fill="#CCEFFF" points="102.8184 132 101.0004 127 87.0004 127 85.1814 132"></polygon>
            <polygon id="Fill-65" fill="#CCEFFF" points="94 5 104 28 99 70 94 70"></polygon>
            <polygon id="Fill-66" fill="#CCEFFF" points="142 59 142 114 46 114"></polygon>
            <polyline id="Stroke-67" stroke="#3196EC" stroke-width="2" stroke-linecap="round" stroke-linejoin="round" points="158 109 160 107 156 103 158 101"></polyline>
            <polyline id="Stroke-68" stroke="#3196EC" stroke-width="2" stroke-linecap="round" stroke-linejoin="round" points="165 109 167 107 163 103 165 101"></polyline>
            <polyline id="Stroke-69" stroke="#3196EC" stroke-width="2" stroke-linecap="round" stroke-linejoin="round" points="172 109 174 107 170 103 172 101"></polyline>
            <polygon id="Stroke-70" stroke="#3196EC" stroke-width="2" stroke-linejoin="round" points="97 122 94 124 91 122 91 119 94 117 97 119"></polygon>
            <polygon id="Stroke-71" stroke="#3196EC" stroke-width="2" stroke-linecap="round" stroke-linejoin="round" points="105 138 101 127 87 127 83 138"></polygon>
            <polygon id="Stroke-72" stroke="#3196EC" stroke-width="2" stroke-linecap="round" stroke-linejoin="round" points="31 122 15 122 15 101 23 95 31 101"></polygon>
            <path d="M15,106 L12,106" id="Stroke-73" stroke="#3196EC" stroke-width="2" stroke-linecap="round" stroke-linejoin="round"></path>
            <path d="M15,101 L13,100" id="Stroke-74" stroke="#3196EC" stroke-width="2" stroke-linecap="round" stroke-linejoin="round"></path>
            <path d="M15,112 L12,112" id="Stroke-75" stroke="#3196EC" stroke-width="2" stroke-linecap="round" stroke-linejoin="round"></path>
            <path d="M15,118 L12,118" id="Stroke-76" stroke="#3196EC" stroke-width="2" stroke-linecap="round" stroke-linejoin="round"></path>
            <path d="M31,106 L34,106" id="Stroke-77" stroke="#3196EC" stroke-width="2" stroke-linecap="round" stroke-linejoin="round"></path>
            <path d="M31,112 L34,112" id="Stroke-78" stroke="#3196EC" stroke-width="2" stroke-linecap="round" stroke-linejoin="round"></path>
            <path d="M31,118 L34,118" id="Stroke-79" stroke="#3196EC" stroke-width="2" stroke-linecap="round" stroke-linejoin="round"></path>
            <path d="M19,98 L17,96" id="Stroke-80" stroke="#3196EC" stroke-width="2" stroke-linecap="round" stroke-linejoin="round"></path>
            <path d="M31,101 L33,100" id="Stroke-81" stroke="#3196EC" stroke-width="2" stroke-linecap="round" stroke-linejoin="round"></path>
            <path d="M27,98 L29,96" id="Stroke-82" stroke="#3196EC" stroke-width="2" stroke-linecap="round" stroke-linejoin="round"></path>
            <path d="M12.25,126 L33.75,126" id="Stroke-83" stroke="#3196EC" stroke-width="2" stroke-linecap="round" stroke-linejoin="round"></path>
            <polyline id="Stroke-84" stroke="#3196EC" stroke-width="2" stroke-linecap="round" stroke-linejoin="round" points="19 118 21 115 19 112 21 109 19 106 21 103"></polyline>
            <polyline id="Stroke-85" stroke="#3196EC" stroke-width="2" stroke-linecap="round" stroke-linejoin="round" points="25 118 27 115 25 112 27 109 25 106 27 103"></polyline>
            <path d="M9,138 L183,138" id="Stroke-86" stroke="#3196EC" stroke-width="2" stroke-linecap="round" stroke-linejoin="round"></path>
            <path d="M188,138 L191,138" id="Stroke-87" stroke="#3196EC" stroke-width="2" stroke-linecap="round" stroke-linejoin="round"></path>
            <path d="M0,138 L3,138" id="Stroke-88" stroke="#3196EC" stroke-width="2" stroke-linecap="round" stroke-linejoin="round"></path>
            <polygon id="Fill-89" fill="#FFFFFF" points="98 33.5 94 36 90 33.5 90 28.5 94 26 98 28.5"></polygon>
            <polygon id="Stroke-90" stroke="#3196EC" stroke-width="2" stroke-linejoin="round" points="98 33.5 94 36 90 33.5 90 28.5 94 26 98 28.5"></polygon>
            <polygon id="Stroke-91" stroke="#3196EC" stroke-width="2" stroke-linecap="round" stroke-linejoin="round" points="89 70 84 28 94 5 104 28 99 70"></polygon>
            <polygon id="Fill-92" fill="#FFFFFF" points="83 80 78 86 73 80 78 58"></polygon>
            <polygon id="Stroke-93" stroke="#3196EC" stroke-width="2" stroke-linecap="round" stroke-linejoin="round" points="83 80 78 86 73 80 78 58"></polygon>
            <polygon id="Fill-94" fill="#FFFFFF" points="99 80 94 86 89 80 94 58"></polygon>
            <polygon id="Stroke-95" stroke="#3196EC" stroke-width="2" stroke-linecap="round" stroke-linejoin="round" points="99 80 94 86 89 80 94 58"></polygon>
            <polygon id="Fill-96" fill="#FFFFFF" points="115 80 110 86 105 80 110 58"></polygon>
            <polygon id="Stroke-97" stroke="#3196EC" stroke-width="2" stroke-linecap="round" stroke-linejoin="round" points="115 80 110 86 105 80 110 58"></polygon>
            <path d="M79.875,66.2505 L86.881,52.2025" id="Stroke-98" stroke="#3196EC" stroke-width="2" stroke-linecap="round" stroke-linejoin="round"></path>
            <path d="M82.0762,75.9346 L89.0002,69.9996" id="Stroke-99" stroke="#3196EC" stroke-width="2" stroke-linecap="round" stroke-linejoin="round"></path>
            <path d="M108.125,66.2505 L101.119,52.2025" id="Stroke-100" stroke="#3196EC" stroke-width="2" stroke-linecap="round" stroke-linejoin="round"></path>
            <path d="M105.9238,75.9346 L98.9998,69.9996" id="Stroke-101" stroke="#3196EC" stroke-width="2" stroke-linecap="round" stroke-linejoin="round"></path>
            <path d="M94,5 L94,0" id="Stroke-102" stroke="#3196EC" stroke-width="2" stroke-linecap="round" stroke-linejoin="round"></path>
            <path d="M73,80 L83,80" id="Stroke-103" stroke="#3196EC" stroke-width="2" stroke-linecap="round" stroke-linejoin="round"></path>
            <path d="M89,80 L99,80" id="Stroke-104" stroke="#3196EC" stroke-width="2" stroke-linecap="round" stroke-linejoin="round"></path>
            <path d="M105,80 L115,80" id="Stroke-105" stroke="#3196EC" stroke-width="2" stroke-linecap="round" stroke-linejoin="round"></path>
            <polygon id="Fill-106" fill="#CCEFFF" points="165.001 131 171.001 125 168.001 120 165.001 123 162.001 120 159.001 125"></polygon>
            <polygon id="Stroke-107" stroke="#3196EC" stroke-width="2" stroke-linejoin="round" points="165.001 131 171.001 125 168.001 120 165.001 123 162.001 120 159.001 125"></polygon>
            <polyline id="Stroke-108" stroke="#3196EC" stroke-width="2" stroke-linecap="round" stroke-linejoin="round" points="176.251 120 184 120 179 132 174.751 132"></polyline>
            <path d="M94,91 L94,97" id="Stroke-109" stroke="#3196EC" stroke-width="2" stroke-linecap="round" stroke-linejoin="round"></path>
            <path d="M94,101 L94,103" id="Stroke-110" stroke="#3196EC" stroke-width="2" stroke-linecap="round" stroke-linejoin="round"></path>
            <path d="M98,89 L98,95" id="Stroke-111" stroke="#3196EC" stroke-width="2" stroke-linecap="round" stroke-linejoin="round"></path>
            <path d="M98,99 L98,101" id="Stroke-112" stroke="#3196EC" stroke-width="2" stroke-linecap="round" stroke-linejoin="round"></path>
            <path d="M90,89 L90,95" id="Stroke-113" stroke="#3196EC" stroke-width="2" stroke-linecap="round" stroke-linejoin="round"></path>
            <path d="M90,99 L90,101" id="Stroke-114" stroke="#3196EC" stroke-width="2" stroke-linecap="round" stroke-linejoin="round"></path>
            <path d="M94,107 L94,108" id="Stroke-115" stroke="#3196EC" stroke-width="2" stroke-linecap="round" stroke-linejoin="round"></path>
            <path d="M98,105 L98,106" id="Stroke-116" stroke="#3196EC" stroke-width="2" stroke-linecap="round" stroke-linejoin="round"></path>
            <path d="M90,105 L90,106" id="Stroke-117" stroke="#3196EC" stroke-width="2" stroke-linecap="round" stroke-linejoin="round"></path>
            <path d="M78,91 L78,97" id="Stroke-118" stroke="#3196EC" stroke-width="2" stroke-linecap="round" stroke-linejoin="round"></path>
            <path d="M78,101 L78,103" id="Stroke-119" stroke="#3196EC" stroke-width="2" stroke-linecap="round" stroke-linejoin="round"></path>
            <path d="M82,89 L82,95" id="Stroke-120" stroke="#3196EC" stroke-width="2" stroke-linecap="round" stroke-linejoin="round"></path>
            <path d="M82,99 L82,101" id="Stroke-121" stroke="#3196EC" stroke-width="2" stroke-linecap="round" stroke-linejoin="round"></path>
            <path d="M74,89 L74,95" id="Stroke-122" stroke="#3196EC" stroke-width="2" stroke-linecap="round" stroke-linejoin="round"></path>
            <path d="M74,99 L74,101" id="Stroke-123" stroke="#3196EC" stroke-width="2" stroke-linecap="round" stroke-linejoin="round"></path>
            <path d="M78,107 L78,108" id="Stroke-124" stroke="#3196EC" stroke-width="2" stroke-linecap="round" stroke-linejoin="round"></path>
            <path d="M82,105 L82,106" id="Stroke-125" stroke="#3196EC" stroke-width="2" stroke-linecap="round" stroke-linejoin="round"></path>
            <path d="M74,105 L74,106" id="Stroke-126" stroke="#3196EC" stroke-width="2" stroke-linecap="round" stroke-linejoin="round"></path>
            <path d="M110,91 L110,97" id="Stroke-127" stroke="#3196EC" stroke-width="2" stroke-linecap="round" stroke-linejoin="round"></path>
            <path d="M110,101 L110,103" id="Stroke-128" stroke="#3196EC" stroke-width="2" stroke-linecap="round" stroke-linejoin="round"></path>
            <path d="M114,89 L114,95" id="Stroke-129" stroke="#3196EC" stroke-width="2" stroke-linecap="round" stroke-linejoin="round"></path>
            <path d="M114,99 L114,101" id="Stroke-130" stroke="#3196EC" stroke-width="2" stroke-linecap="round" stroke-linejoin="round"></path>
            <path d="M106,89 L106,95" id="Stroke-131" stroke="#3196EC" stroke-width="2" stroke-linecap="round" stroke-linejoin="round"></path>
            <path d="M106,99 L106,101" id="Stroke-132" stroke="#3196EC" stroke-width="2" stroke-linecap="round" stroke-linejoin="round"></path>
            <path d="M110,107 L110,108" id="Stroke-133" stroke="#3196EC" stroke-width="2" stroke-linecap="round" stroke-linejoin="round"></path>
            <path d="M114,105 L114,106" id="Stroke-134" stroke="#3196EC" stroke-width="2" stroke-linecap="round" stroke-linejoin="round"></path>
            <path d="M106,105 L106,106" id="Stroke-135" stroke="#3196EC" stroke-width="2" stroke-linecap="round" stroke-linejoin="round"></path>
            <polyline id="Stroke-136" stroke="#3196EC" stroke-width="2" stroke-linecap="round" stroke-linejoin="round" points="119 59 142 59 142 127 46 127 46 59 71 59"></polyline>
            <path d="M46,114 L142,114" id="Stroke-137" stroke="#3196EC" stroke-width="2" stroke-linecap="round" stroke-linejoin="round"></path>
        </g>
    </g>
</svg>