<?xml version="1.0" encoding="UTF-8"?>
<svg width="62px" height="58px" viewBox="0 0 62 58" version="1.1" xmlns="http://www.w3.org/2000/svg" xmlns:xlink="http://www.w3.org/1999/xlink">
    <!-- Generator: Sketch 50 (54983) - http://www.bohemiancoding.com/sketch -->
    <title>Artboard 2</title>
    <desc>Created with Sketch.</desc>
    <defs></defs>
    <g id="Artboard-2" stroke="none" stroke-width="1" fill="none" fill-rule="evenodd">
        <g id="growth" transform="translate(8.000000, 8.000000)">
            <rect id="Rectangle-path" x="32" y="6" width="7" height="34"></rect>
            <rect id="Rectangle-path" x="32" y="22" width="7" height="19"></rect>
            <rect id="Rectangle-path" x="21" y="17" width="7" height="23"></rect>
            <rect id="Rectangle-path" x="21" y="29" width="7" height="12"></rect>
            <rect id="Rectangle-path" x="9" y="29" width="7" height="12"></rect>
            <path d="M47.6678527,40.0682936 L44.0606474,36.9893125 C43.6591177,36.64667 43.05162,36.6895119 42.7038088,37.084691 C42.3559038,37.4801472 42.3993099,38.0783634 42.8007459,38.4210059 L44.459271,39.8366336 L40.1601933,39.8366336 L40.1601933,32.535422 L46.0324838,33.3843185 C46.5578568,33.4608614 47.0467613,33.1022455 47.1239172,32.5846347 C47.2010732,32.0670239 46.8374183,31.5856994 46.3118578,31.5097105 L40.1601933,30.6203728 L40.1601933,6.67879525 C40.1601933,6.15564455 39.7295074,5.73138096 39.1982282,5.73138096 L31.9838177,5.73138096 C31.4525384,5.73138096 31.0218525,6.15564455 31.0218525,6.67879525 L31.0218525,31.7700855 L28.6170803,32.729226 L28.6170803,17.4788196 C28.6170803,16.9556689 28.1863944,16.5314053 27.6551152,16.5314053 L20.4407047,16.5314053 C19.9094254,16.5314053 19.4787395,16.9556689 19.4787395,17.4788196 L19.4787395,33.53011 L17.0739673,32.9670721 L17.0739673,28.9419694 C17.0739673,28.4188187 16.6432814,27.9945551 16.1120021,27.9945551 L8.89777917,27.9945551 C8.36649991,27.9945551 7.93581402,28.4188187 7.93581402,28.9419694 L7.93581402,33.3720384 L5.53104178,34.2252745 L5.53104178,3.48689269 L6.9684114,5.12033059 C7.15872318,5.33647881 7.42637843,5.4472767 7.69572117,5.4472767 C7.91893908,5.4472767 8.14328199,5.37110315 8.32534381,5.21580144 C8.72677981,4.87315896 8.7701859,4.27475802 8.4221872,3.87957888 L5.29591766,0.326936851 C5.18238684,0.203120208 5.05404357,0.114481896 4.90516912,0.0598216032 C4.52913928,-0.0784910968 4.10510962,0.0281518729 3.84204811,0.326844519 L0.715872318,3.87948655 C0.368061121,4.27494269 0.411467209,4.87315896 0.812903205,5.21580144 C1.2143392,5.55844392 1.82183693,5.5156944 2.16974187,5.12042292 L3.60720524,3.48698502 L3.60720524,39.8368183 L0.961965146,39.8368183 C0.430685887,39.8368183 0,40.2609896 0,40.7841403 C0,41.307291 0.430685887,41.7315546 0.961965146,41.7315546 L3.60720524,41.7315546 L3.60720524,44.0525857 C3.60720524,44.5757364 4.03789112,45 4.56917038,45 C5.10044964,45 5.53113553,44.5757364 5.53113553,44.0525857 L5.53113553,41.7315546 L44.4593647,41.7315546 L42.8008397,43.1471823 C42.3994037,43.4898248 42.3559976,44.0882257 42.7039963,44.4834972 C42.8943081,44.6996454 43.1619633,44.8104433 43.4313061,44.8104433 C43.654524,44.8104433 43.8788669,44.7342697 44.0609287,44.578968 L47.6681339,41.499987 C47.7968522,41.3842032 47.8847894,41.2592786 47.9394454,41.1152413 C48.0796011,40.7447147 47.9713203,40.327376 47.6678527,40.0682936 Z M38.2363568,7.62620955 L38.2363568,20.7946312 L32.9457828,20.7946312 L32.9457828,7.62620955 L38.2363568,7.62620955 Z M32.9457828,22.6893674 L38.2363568,22.6893674 L38.2363568,30.3425471 L35.826897,29.99418 C35.6575852,29.9693428 35.4847108,29.9900251 35.3260864,30.0533646 L32.9456891,31.0028102 L32.9456891,22.6893674 L32.9457828,22.6893674 Z M31.0219463,33.8143066 L31.0219463,39.8368183 L28.617174,39.8368183 L28.617174,34.773447 L31.0219463,33.8143066 Z M26.6932438,18.4262339 L26.6932438,27.9946474 L21.4026698,27.9946474 L21.4026698,18.4262339 L26.6932438,18.4262339 Z M21.4027636,29.8893837 L26.6933375,29.8893837 L26.6933375,33.496409 L23.9716914,34.5819513 L21.4027636,33.9805958 L21.4027636,29.8893837 L21.4027636,29.8893837 Z M19.478927,35.4777523 L19.478927,39.8368183 L17.0741548,39.8368183 L17.0741548,34.9147143 L19.478927,35.4777523 Z M9.85965056,29.8893837 L15.1502245,29.8893837 L15.1502245,32.5168633 L12.5349843,31.904705 C12.3532975,31.8620478 12.1624232,31.8726659 11.9864551,31.9349897 L9.85955682,32.6896157 L9.85955682,29.889476 L9.85965056,29.889476 L9.85965056,29.8893837 Z M5.53104178,36.2393031 L7.93581402,35.386067 L7.93581402,39.8368183 L5.53104178,39.8368183 L5.53104178,36.2393031 Z M9.85965056,39.8368183 L9.85965056,34.7034597 L12.3689537,33.8131986 L15.1502245,34.4643209 L15.1502245,39.836726 L9.85965056,39.836726 L9.85965056,39.8368183 Z M21.4027636,39.8368183 L21.4027636,35.9280534 L23.8256295,36.4952463 C24.0200663,36.5407657 24.2239718,36.525531 24.4091273,36.4516657 L26.6934313,35.5406301 L26.6934313,39.836726 L21.4027636,39.836726 L21.4027636,39.8368183 Z M32.9457828,39.8368183 L32.9457828,33.0470312 L35.8060846,31.9061823 L38.2363568,32.2575039 L38.2363568,39.8368183 L32.9457828,39.8368183 L32.9457828,39.8368183 Z" id="Shape" fill="#727272"></path>
        </g>
    </g>
</svg>