<?xml version="1.0" encoding="UTF-8"?>
<svg width="26px" height="26px" viewBox="0 0 26 26" version="1.1" xmlns="http://www.w3.org/2000/svg" xmlns:xlink="http://www.w3.org/1999/xlink">
    <!-- Generator: Sketch 43.1 (39012) - http://www.bohemiancoding.com/sketch -->
    <title>Page 1</title>
    <desc>Created with Sketch.</desc>
    <defs></defs>
    <g id="Page-1" stroke="none" stroke-width="1" fill="none" fill-rule="evenodd" stroke-linecap="round" stroke-linejoin="round">
        <g id="Homepage-splash-white-Copy" transform="translate(-282.000000, -900.000000)" stroke="#505050" stroke-width="1.25">
            <g id="Group" transform="translate(247.500000, 354.500000)">
                <g id="Page-1" transform="translate(35.000000, 546.000000)">
                    <path d="M5.67118571,5.67118571 L3.73797963,3.73797963" id="Stroke-1"></path>
                    <path d="M12.5001531,12.5001531 L7.24547855,7.24547855" id="Stroke-2"></path>
                    <path d="M0.23518053,12.5001531 C0.236176912,15.4398469 1.29249306,18.2817177 3.21274766,20.5080003 C5.13300225,22.7342829 7.78869543,24.1970654 10.6966483,24.6285364 C13.604454,25.0610181 16.5709339,24.4342199 19.0552651,22.8637488 C21.5405284,21.2922523 23.3781192,18.8807241 24.2338987,16.0676507 C25.0888932,13.2555095 24.9065421,10.229178 23.7177033,7.53978153 C22.5298947,4.85121905 20.4152696,2.67885291 17.7595274,1.41824123" id="Stroke-3"></path>
                    <path d="M14.2520383,1.98702651 C14.2520383,2.95461073 13.4677863,3.73788151 12.5002021,3.73788151 C11.5326179,3.73788151 10.7483659,2.95461073 10.7483659,1.98702651 C10.7483659,1.0194423 11.5326179,0.235190391 12.5002021,0.235190391 C13.4677863,0.235190391 14.2520383,1.0194423 14.2520383,1.98702651" id="Stroke-4"></path>
                </g>
            </g>
        </g>
    </g>
</svg>