<?xml version="1.0" encoding="UTF-8"?>
<svg width="13px" height="12px" viewBox="0 0 13 12" version="1.1" xmlns="http://www.w3.org/2000/svg" xmlns:xlink="http://www.w3.org/1999/xlink">
    <!-- Generator: Sketch 43.2 (39069) - http://www.bohemiancoding.com/sketch -->
    <title>Shape Copy</title>
    <desc>Created with Sketch.</desc>
    <defs></defs>
    <g id="dashboard-hifi" stroke="none" stroke-width="1" fill="none" fill-rule="evenodd">
        <g id="11)-Model-Snapshot---Session-1--Training-Task---Files" transform="translate(-231.000000, -567.000000)" fill-rule="nonzero" fill="#505050">
            <g id="content-box" transform="translate(151.000000, 233.500000)">
                <g id="files" transform="translate(50.500000, 219.500000)">
                    <g id="Group-5" transform="translate(0.000000, 62.500000)">
                        <path d="M41.6071429,53.7857143 L36.25,53.7857143 L36.25,52.8928571 C36.25,52.3035714 35.9732143,52 35.3571429,52 L30.8928571,52 C30.4017857,52 30,52.4017857 30,52.8928571 L30,61.8214286 C30,62.3125 30.4017857,62.7142857 30.8928571,62.7142857 L41.6071429,62.7142857 C42.0982143,62.7142857 42.5,62.3125 42.5,61.8214286 L42.5,54.6785714 C42.5,54.1875 42.0982143,53.7857143 41.6071429,53.7857143 Z M35.3571429,53.7857143 L30.8928571,53.7857143 L30.8928571,52.8928571 L35.3571429,52.8928571 L35.3571429,53.7857143 Z" id="Shape-Copy"></path>
                    </g>
                </g>
            </g>
        </g>
    </g>
</svg>