<?xml version="1.0" encoding="UTF-8"?>
<svg width="14px" height="14px" viewBox="0 0 14 14" version="1.1" xmlns="http://www.w3.org/2000/svg" xmlns:xlink="http://www.w3.org/1999/xlink">
    <!-- Generator: Sketch 43.2 (39069) - http://www.bohemiancoding.com/sketch -->
    <title>Group 13</title>
    <desc>Created with Sketch.</desc>
    <defs></defs>
    <g id="Page-1" stroke="none" stroke-width="1" fill="none" fill-rule="evenodd">
        <g id="UI-kit" transform="translate(-2167.000000, -12233.000000)" fill="#8A8A8A">
            <g id="training" transform="translate(310.000000, 11985.000000)">
                <g id="Group-5" transform="translate(60.000000, 42.000000)">
                    <g id="Group-13" transform="translate(1797.000000, 206.000000)">
                        <path d="M12.49986,2.84210526 L13.7519021,1.59006316 L9.36842842,1 L10.1427021,5.19926316 L11.4321758,3.90978947 C11.9848074,4.79341053 12.3157968,5.82528421 12.3157968,6.85715789 C12.3157968,9.91534737 9.84767053,12.3834737 6.78948105,12.3834737 C6.45847684,12.3834737 6.09007053,12.3460568 5.75760737,12.27266 L5.5,13.7089126 C5.94181053,13.7823095 6.38362105,13.8197263 6.78947368,13.8197263 C10.6578947,13.8197263 13.7894737,10.6881474 13.7894737,6.81972632 C13.7894737,5.42086842 13.3476632,4.02057368 12.5,2.84188421 L12.49986,2.84210526 Z" id="Fill-1"></path>
                        <path d="M2.35729789,9.98478526 C1.80466632,9.09972737 1.47367684,8.06785368 1.47367684,6.99998526 C1.47367684,3.94179579 3.94180316,1.47366947 6.99999263,1.47366947 C7.33099684,1.47366947 7.69940316,1.51108632 8.03186632,1.58448316 L8.28947368,0.148230526 C7.88362105,0.0374168421 7.44181053,0 7,0 C3.13157895,0 0,3.13157895 0,7 C0,8.47368421 0.441810526,9.87397895 1.28947368,11.0526316 L0.0374315789,12.3046737 L4.42090526,12.8947368 L3.64663158,8.69547368 L2.35729789,9.98478526 Z" id="Fill-2"></path>
                    </g>
                </g>
            </g>
        </g>
    </g>
</svg>