<?xml version="1.0" encoding="UTF-8"?>
<svg width="14px" height="14px" viewBox="0 0 14 14" version="1.1" xmlns="http://www.w3.org/2000/svg" xmlns:xlink="http://www.w3.org/1999/xlink">
    <!-- Generator: Sketch 43.2 (39069) - http://www.bohemiancoding.com/sketch -->
    <title>Shape</title>
    <desc>Created with Sketch.</desc>
    <defs></defs>
    <g id="dashboard-hifi" stroke="none" stroke-width="1" fill="none" fill-rule="evenodd">
        <g id="7)-Model-Snapshot---Summary" transform="translate(-1150.000000, -110.000000)" fill-rule="nonzero" fill="#FFA500">
            <g id="content-header" transform="translate(-2.000000, 71.000000)">
                <g id="Group-2" transform="translate(2.000000, 0.000000)">
                    <g id="Group-4" transform="translate(1150.000000, 37.500000)">
                        <g id="empty-star.1" transform="translate(0.000000, 1.500000)">
                            <g id="Layer_1">
                                <g id="empty-star.3">
                                    <g id="Layer_1">
                                        <path d="M13.9842075,5.06279306 C13.9464674,4.95322527 13.8502913,4.87409297 13.7358538,4.85887522 L9.32757612,4.27451364 L7.27257124,0.154764512 C7.17030796,-0.0515881706 6.83003908,-0.0515881706 6.72777581,0.154764512 L4.67277092,4.27451364 L0.264493263,4.85887522 C0.150055787,4.87409297 0.0532709005,4.95322527 0.0161395918,5.06279306 C-0.0209917168,5.17236086 0.00700894216,5.29349415 0.0891847892,5.37566999 L3.32204348,8.60852868 L2.44124014,13.0137628 C2.41871787,13.1282003 2.46254499,13.2444639 2.55506891,13.3156829 C2.64759283,13.3862933 2.77298708,13.3978588 2.87585907,13.3461184 L7.00047788,11.283809 L11.1250967,13.3461184 C11.1683151,13.3674233 11.2145771,13.3783801 11.2614477,13.3783801 C11.3265797,13.3783801 11.3923204,13.3570752 11.4464956,13.3156829 C11.5384108,13.2450726 11.5828466,13.1282003 11.5603243,13.0137628 L10.679521,8.60852868 L13.9123797,5.37566999 C13.9927294,5.29410286 14.0207301,5.17296957 13.9842075,5.06279306 Z" id="Shape"></path>
                                    </g>
                                </g>
                            </g>
                        </g>
                    </g>
                </g>
            </g>
        </g>
    </g>
</svg>