<?xml version="1.0" encoding="UTF-8"?>
<svg width="33px" height="32px" viewBox="0 0 33 32" version="1.1" xmlns="http://www.w3.org/2000/svg" xmlns:xlink="http://www.w3.org/1999/xlink">
    <!-- Generator: Sketch 43.2 (39069) - http://www.bohemiancoding.com/sketch -->
    <title>Page 1</title>
    <desc>Created with Sketch.</desc>
    <defs></defs>
    <g id="dashboard-hifi" stroke="none" stroke-width="1" fill="none" fill-rule="evenodd">
        <g id="Homepage-r3" transform="translate(-559.000000, -1078.000000)" fill="#505050">
            <g id="Page-1" transform="translate(559.500000, 1078.500000)">
                <g id="Group-3">
                    <path d="M7.55646852,30.1339286 C6.29783889,30.1339286 5.27406111,29.0886429 5.27406111,27.8035714 L5.27406111,19.7678571 C5.27406111,19.5846429 5.20448704,19.4133214 5.07793148,19.2850714 L1.61528333,15.75 L5.07856111,12.2155714 C5.20259815,12.0886071 5.27406111,11.9124643 5.27406111,11.7321429 L5.27406111,3.69642857 C5.27406111,2.41135714 6.29783889,1.36607143 7.55646852,1.36607143 C7.92543148,1.36607143 8.22545,1.05975 8.22545,0.683035714 C8.22545,0.306321429 7.92543148,0 7.55646852,0 C5.56022778,0 3.93609815,1.65825 3.93609815,3.69642857 L3.93609815,11.4499286 L0.196412963,15.2665714 C0.0698574074,15.3957857 -3.14814815e-05,15.5674286 -3.14814815e-05,15.7493571 C-3.14814815e-05,15.9312857 0.0698574074,16.1029286 0.196412963,16.2321429 L3.93609815,20.0503929 L3.93609815,27.8035714 C3.93609815,29.84175 5.56022778,31.5 7.55646852,31.5 C7.92543148,31.5 8.22545,31.1936786 8.22545,30.8169643 C8.22545,30.44025 7.92543148,30.1339286 7.55646852,30.1339286" id="Fill-1"></path>
                </g>
                <path d="M15.75,18.1141304 C14.4463043,18.1141304 13.3858696,17.0536957 13.3858696,15.75 C13.3858696,14.4463043 14.4463043,13.3858696 15.75,13.3858696 C17.0536957,13.3858696 18.1141304,14.4463043 18.1141304,15.75 C18.1141304,17.0536957 17.0536957,18.1141304 15.75,18.1141304 M15.75,12 C13.6822826,12 12,13.6822826 12,15.75 C12,17.8177174 13.6822826,19.5 15.75,19.5 C17.8177174,19.5 19.5,17.8177174 19.5,15.75 C19.5,13.6822826 17.8177174,12 15.75,12" id="Fill-4"></path>
                <path d="M15.75,28.1141304 C14.4463043,28.1141304 13.3858696,27.0536957 13.3858696,25.75 C13.3858696,24.4463043 14.4463043,23.3858696 15.75,23.3858696 C17.0536957,23.3858696 18.1141304,24.4463043 18.1141304,25.75 C18.1141304,27.0536957 17.0536957,28.1141304 15.75,28.1141304 M15.75,22 C13.6822826,22 12,23.6822826 12,25.75 C12,27.8177174 13.6822826,29.5 15.75,29.5 C17.8177174,29.5 19.5,27.8177174 19.5,25.75 C19.5,23.6822826 17.8177174,22 15.75,22" id="Fill-6"></path>
                <path d="M15.75,8.11413043 C14.4463043,8.11413043 13.3858696,7.05369565 13.3858696,5.75 C13.3858696,4.44630435 14.4463043,3.38586957 15.75,3.38586957 C17.0536957,3.38586957 18.1141304,4.44630435 18.1141304,5.75 C18.1141304,7.05369565 17.0536957,8.11413043 15.75,8.11413043 M15.75,2 C13.6822826,2 12,3.68228261 12,5.75 C12,7.81771739 13.6822826,9.5 15.75,9.5 C17.8177174,9.5 19.5,7.81771739 19.5,5.75 C19.5,3.68228261 17.8177174,2 15.75,2" id="Fill-8"></path>
                <g id="Group-12" transform="translate(23.000000, 0.000000)">
                    <path d="M4.66164643,20.0502 L8.47989643,16.2332357 C8.60911071,16.1040214 8.68046786,15.9323786 8.68046786,15.7507714 C8.68046786,15.5688429 8.60911071,15.3972 8.47989643,15.2679857 L4.66164643,11.4497357 L4.66164643,3.69655714 C4.661325,1.65837857 3.003075,0.000128571429 0.965217857,0.000128571429 C0.588503571,0.000128571429 0.282182143,0.30645 0.282182143,0.683164286 C0.282182143,1.05955714 0.588503571,1.3662 0.965217857,1.3662 C2.25028929,1.3662 3.295575,2.41148571 3.295575,3.69655714 L3.295575,11.7322714 C3.295575,11.9125929 3.36853929,12.0884143 3.495825,12.2147357 L7.03121786,15.7501286 L3.49518214,19.2845571 C3.36661071,19.41345 3.295575,19.5847714 3.295575,19.7679857 L3.295575,27.8037 C3.295575,29.08845 2.25028929,30.1340571 0.965217857,30.1340571 C0.588503571,30.1340571 0.282182143,30.4403786 0.282182143,30.8170929 C0.282182143,31.1934857 0.588503571,31.5001286 0.965217857,31.5001286 C3.00275357,31.5001286 4.66100357,29.8422 4.66164643,27.8043429 L4.66164643,20.0502 Z" id="Fill-10"></path>
                </g>
            </g>
        </g>
    </g>
</svg>