<?xml version="1.0" encoding="UTF-8"?>
<svg width="32px" height="30px" viewBox="0 0 32 30" version="1.1" xmlns="http://www.w3.org/2000/svg" xmlns:xlink="http://www.w3.org/1999/xlink">
    <!-- Generator: Sketch 43.2 (39069) - http://www.bohemiancoding.com/sketch -->
    <title>Page 1</title>
    <desc>Created with Sketch.</desc>
    <defs></defs>
    <g id="dashboard-hifi" stroke="none" stroke-width="1" fill="none" fill-rule="evenodd">
        <g id="Homepage-r3" transform="translate(-270.000000, -3462.000000)" fill="#505050">
            <g id="Page-1" transform="translate(270.000000, 3462.000000)">
                <path d="M26.3977455,28.0223636 C24.0919273,28.0223636 22.2159273,26.1463636 22.2159273,23.8405455 C22.2159273,21.5347273 24.0919273,19.6587273 26.3977455,19.6587273 C28.7035636,19.6587273 30.5795636,21.5347273 30.5795636,23.8405455 C30.5795636,26.1463636 28.7035636,28.0223636 26.3977455,28.0223636 M5.27265455,28.0223636 C2.96683636,28.0223636 1.09083636,26.1463636 1.09083636,23.8405455 C1.09083636,21.5347273 2.96683636,19.6587273 5.27265455,19.6587273 C6.00756364,19.6587273 6.73047273,19.8518182 7.36356364,20.2172727 C8.65338182,20.9638182 9.45447273,22.3521818 9.45447273,23.8405455 C9.45447273,26.1463636 7.57847273,28.0223636 5.27265455,28.0223636 M11.7046545,5.63618182 C11.7046545,3.33036364 13.5806545,1.45436364 15.8864727,1.45436364 C18.1922909,1.45436364 20.0682909,3.33036364 20.0682909,5.63618182 C20.0682909,7.942 18.1922909,9.818 15.8864727,9.818 C13.5806545,9.818 11.7046545,7.942 11.7046545,5.63618182 M26.3977455,18.5681818 C23.7722909,18.5681818 21.5293818,20.5325455 21.1802909,23.1376364 L21.1592,23.2954545 L10.5228364,23.2954545 L10.5013818,23.1376364 C10.3181091,21.758 9.60829091,20.5252727 8.50210909,19.6663636 L8.37483636,19.5678182 L8.45738182,19.4296364 L13.8097455,10.4783636 L13.9533818,10.5354545 C14.5773818,10.7834545 15.2275636,10.9089091 15.8864727,10.9089091 C18.7937455,10.9089091 21.1592,8.54381818 21.1592,5.63618182 C21.1592,2.72890909 18.7937455,0.363454545 15.8864727,0.363454545 L15.8861091,0.363454545 C14.4802909,0.363454545 13.1570182,0.912545455 12.1599273,1.90963636 C11.1628364,2.90672727 10.6137455,4.23 10.6137455,5.63618182 C10.6137455,7.298 11.3824727,8.83145455 12.7232,9.84345455 L12.8537455,9.94163636 L7.42829091,19.0230909 L7.28356364,18.9634545 C6.64574545,18.7012727 5.96901818,18.5681818 5.27265455,18.5681818 C2.36538182,18.5681818 -7.27272727e-05,20.9336364 -7.27272727e-05,23.8409091 C-7.27272727e-05,26.7481818 2.36538182,29.1136364 5.27265455,29.1136364 C7.8952,29.1136364 10.1381091,27.1489091 10.4901091,24.5438182 L10.5112,24.3863636 L21.1592,24.3863636 L21.1802909,24.5438182 C21.5322909,27.1489091 23.7752,29.1136364 26.3977455,29.1136364 C29.3050182,29.1136364 31.6704727,26.7481818 31.6704727,23.8409091 C31.6704727,20.9336364 29.3050182,18.5681818 26.3977455,18.5681818" id="Fill-1"></path>
            </g>
        </g>
    </g>
</svg>