<?xml version="1.0" encoding="UTF-8"?>
<svg width="19px" height="13px" viewBox="0 0 19 13" version="1.1" xmlns="http://www.w3.org/2000/svg" xmlns:xlink="http://www.w3.org/1999/xlink">
    <!-- Generator: Sketch 43.1 (39012) - http://www.bohemiancoding.com/sketch -->
    <title>icon-mail</title>
    <desc>Created with Sketch.</desc>
    <defs></defs>
    <g id="Page-1" stroke="none" stroke-width="1" fill="none" fill-rule="evenodd">
        <g id="Homepage-splash-white-Copy" transform="translate(-459.000000, -275.000000)" fill-rule="nonzero" fill="#A4A4A4">
            <g id="Group" transform="translate(247.500000, 274.500000)">
                <g id="Group-3-Copy-2">
                    <g id="Rectangle-2" transform="translate(1.000000, 0.500000)">
                        <g id="icon-mail" transform="translate(211.000000, 0.000000)">
                            <path d="M1.31117166,0.918801036 C1.09301362,0.918801036 0.915531336,1.09701902 0.915531336,1.31607624 L0.915531336,11.5618528 C0.915531336,11.7071607 1.11102998,11.9574931 1.31117166,11.9574931 L16.6822889,11.9574931 C16.9004469,11.9574931 17.0779128,11.7800109 17.0779128,11.5618528 L17.0779128,1.31444136 C17.0779128,1.16913346 16.8824142,0.918801036 16.6822889,0.918801036 L1.31117166,0.918801036 Z M16.6822889,12.8730244 L1.31117166,12.8730244 C0.964348776,12.8730244 0.631242509,12.720801 0.373258856,12.4443433 C0.136038147,12.1902179 0,11.8685558 0,11.5618528 L0,1.31607624 C0,0.592185231 0.588179835,0.0032697 1.31117166,0.0032697 L16.6822889,0.0032697 C17.0291117,0.0032697 17.3622016,0.155509482 17.6202016,0.43193455 C17.857406,0.686076241 17.9934441,1.00773837 17.9934441,1.31444136 L17.9934441,11.5618528 C17.9934441,12.2848446 17.4052643,12.8730244 16.6822889,12.8730244 L16.6822889,12.8730244 Z" id="Fill-1"></path>
                            <polygon id="Fill-4" points="9.26650134 9.12237057 4.65472481 4.06553134 3.15 4.06553134 3.15 3.15 5.05888286 3.15 9.25584197 7.75201635 13.3234823 3.15 15.1058583 3.15 15.1058583 4.06553134 13.7361744 4.06553134"></polygon>
                        </g>
                    </g>
                </g>
            </g>
        </g>
    </g>
</svg>