<?xml version="1.0" encoding="UTF-8"?>
<svg width="31px" height="34px" viewBox="0 0 31 34" version="1.1" xmlns="http://www.w3.org/2000/svg" xmlns:xlink="http://www.w3.org/1999/xlink">
    <!-- Generator: Sketch 43.2 (39069) - http://www.bohemiancoding.com/sketch -->
    <title>Page 1</title>
    <desc>Created with Sketch.</desc>
    <defs>
        <polygon id="path-1" points="19.3586888 24.7677247 19.3586888 0.13735914 0.0105808847 0.13735914 0.0105808847 24.7677247"></polygon>
    </defs>
    <g id="dashboard-hifi" stroke="none" stroke-width="1" fill="none" fill-rule="evenodd">
        <g id="Homepage-r4-Copy-3" transform="translate(-946.000000, -1809.000000)">
            <g id="Page-1" transform="translate(946.500000, 1809.000000)">
                <g id="Group-3" transform="translate(11.000000, 7.000000)">
                    <mask id="mask-2" fill="white">
                        <use xlink:href="#path-1"></use>
                    </mask>
                    <g id="Clip-2"></g>
                    <path d="M11.0029773,4.88574624 C11.0029773,2.95060645 12.5962392,1.37606882 14.5543914,1.37606882 C16.5125437,1.37606882 18.1058056,2.95060645 18.1058056,4.88574624 C18.1058056,6.82088602 16.5125437,8.39542366 14.5543914,8.39542366 C12.5962392,8.39542366 11.0029773,6.82088602 11.0029773,4.88574624 L11.0029773,4.88574624 Z M15.1811116,9.57357419 L15.2409982,9.56531613 C17.5891096,9.22948817 19.3592458,7.21727312 19.3592458,4.88574624 C19.3592458,2.26793978 17.2033286,0.13735914 14.5543914,0.13735914 C11.9040616,0.13735914 9.74953703,2.26793978 9.74953703,4.88574624 C9.74953703,7.21727312 11.5196732,9.22948817 13.8677847,9.56531613 L13.9276713,9.57357419 L13.9276713,15.8964989 C13.9276713,18.5900043 11.709082,20.7825204 8.98354575,20.7825204 L2.13976183,20.7825204 L3.8555823,19.0854882 C3.97257006,18.9684989 4.03802749,18.8143484 4.03802749,18.6478108 C4.03802749,18.4826495 3.97257006,18.3284989 3.8555823,18.2115097 C3.61742865,17.9761548 3.20240064,17.9775312 2.96842512,18.2115097 L0.174646012,20.9752086 C0.107795864,21.0426495 0.0618363871,21.1321118 0.0311967358,21.2477247 C0.0256258901,21.2711226 0.0214477559,21.2931441 0.0172696216,21.3179183 C-0.0105846068,21.5188645 0.0493019843,21.7101763 0.183002281,21.8395527 L2.96842512,24.5922409 C3.20657878,24.8262194 3.61882136,24.8262194 3.85418959,24.5922409 C3.97257006,24.4752516 4.03802749,24.3211011 4.03802749,24.1559398 C4.03802749,23.9894022 3.97257006,23.8352516 3.8555823,23.7182624 L2.13836912,22.0212301 L8.98354575,22.0212301 C12.4012596,22.0212301 15.1811116,19.2740473 15.1811116,15.8964989 L15.1811116,9.57357419 Z" id="Fill-1" fill="#505050" mask="url(#mask-2)"></path>
                </g>
                <path d="M4.75,32.2608696 C2.8142029,32.2608696 1.23913043,30.6857971 1.23913043,28.75 C1.23913043,26.8142029 2.8142029,25.2391304 4.75,25.2391304 C6.6857971,25.2391304 8.26086957,26.8142029 8.26086957,28.75 C8.26086957,30.6857971 6.6857971,32.2608696 4.75,32.2608696 M4.75,24 C2.13130435,24 0,26.1313043 0,28.75 C0,31.3700725 2.13130435,33.5 4.75,33.5 C7.36869565,33.5 9.5,31.3700725 9.5,28.75 C9.5,26.1313043 7.36869565,24 4.75,24" id="Fill-4" fill="#505050"></path>
                <g id="Group-8" fill="#505050">
                    <path d="M4.79864829,8.43419559 C2.84313861,8.43419559 1.25202689,6.85233452 1.25202689,4.90819409 C1.25202689,2.96405365 2.84313861,1.38219259 4.79864829,1.38219259 C6.75415796,1.38219259 8.34526968,2.96405365 8.34526968,4.90819409 C8.34526968,6.85233452 6.75415796,8.43419559 4.79864829,8.43419559 M4.79864829,0.13772147 C2.15328598,0.13772147 0.000278166384,2.27821179 0.000278166384,4.90819409 C0.000278166384,7.25056528 1.76802553,9.27075673 4.11296815,9.60952942 L4.17277392,9.6178259 L4.17277392,19.9980978 L2.459269,18.2973206 C2.34104829,18.1797872 2.18388428,18.1147981 2.01698445,18.1147981 C1.84869379,18.1147981 1.69152978,18.1797872 1.5746999,18.2973206 C1.45647919,18.414854 1.39111008,18.5697215 1.39111008,18.7370337 C1.39111008,18.9029632 1.45647919,19.0592134 1.57330907,19.1767468 L4.3549729,21.9422382 C4.36192706,21.9477692 4.37305372,21.9533002 4.38557121,21.9602139 C4.39947952,21.9685104 4.41338784,21.9768068 4.42590533,21.9864861 L4.44398615,22.0003135 C4.48153861,22.0307339 4.51909107,22.0597716 4.55803436,22.073599 C4.71241671,22.1413536 4.8862707,22.1399708 5.03648054,22.0749818 C5.09906798,22.0514751 5.15748292,22.0113755 5.22285202,21.9519174 L5.24649616,21.9367072 L8.02259667,19.1767468 C8.13942655,19.0592134 8.20479565,18.9029632 8.20479565,18.7370337 C8.20479565,18.5697215 8.13942655,18.414854 8.02259667,18.2973206 C7.90437596,18.1797872 7.74721195,18.1147981 7.58031212,18.1147981 C7.41202146,18.1147981 7.25485745,18.1797872 7.13802757,18.2973206 L5.42452265,19.9994805 L5.42452265,9.6178259 L5.48432842,9.60952942 C7.82927104,9.27075673 9.5970184,7.25056528 9.5970184,4.90819409 C9.5970184,2.27821179 7.44401059,0.13772147 4.79864829,0.13772147" id="Fill-6"></path>
                </g>
            </g>
        </g>
    </g>
</svg>