<?xml version="1.0" encoding="UTF-8"?>
<svg width="7px" height="9px" viewBox="0 0 7 9" version="1.1" xmlns="http://www.w3.org/2000/svg" xmlns:xlink="http://www.w3.org/1999/xlink">
    <!-- Generator: Sketch 43.1 (39012) - http://www.bohemiancoding.com/sketch -->
    <title>Page-1 Copy</title>
    <desc>Created with Sketch.</desc>
    <defs></defs>
    <g id="Page-1" stroke="none" stroke-width="1" fill="none" fill-rule="evenodd">
        <g id="Homepage-splash-white-Copy" transform="translate(-14.000000, -618.000000)" fill-rule="nonzero" fill="#FFFFFF">
            <g id="Group-8" transform="translate(0.000000, 595.000000)">
                <path d="M14.5000233,31.480296 L14.5000233,24.0103715 C14.5000233,23.8274415 14.5940433,23.660282 14.7493033,23.5724215 C14.9093083,23.468341 15.1115833,23.4773525 15.2629633,23.5935985 L20.7721833,27.3175215 C20.9201133,27.40403 21.0076633,27.57119 20.9994683,27.748713 C21.0029183,27.926686 20.9166633,28.093846 20.7721833,28.187113 L15.2629633,31.898871 C15.1840383,31.955192 15.0930383,31.988984 14.9968583,31.999347 C14.9075833,32.004754 14.8200333,31.9763685 14.7475783,31.92185 C14.5923183,31.8339895 14.4982983,31.6632255 14.5000233,31.480296 Z" id="Page-1-Copy" transform="translate(17.749999, 27.750000) rotate(-180.000000) translate(-17.749999, -27.750000) "></path>
            </g>
        </g>
    </g>
</svg>