<?xml version="1.0" encoding="UTF-8"?>
<svg width="10px" height="14px" viewBox="0 0 10 14" version="1.1" xmlns="http://www.w3.org/2000/svg" xmlns:xlink="http://www.w3.org/1999/xlink">
    <!-- Generator: Sketch 43.2 (39069) - http://www.bohemiancoding.com/sketch -->
    <title>Shape</title>
    <desc>Created with Sketch.</desc>
    <defs></defs>
    <g id="dashboard-hifi" stroke="none" stroke-width="1" fill="none" fill-rule="evenodd">
        <g id="7)-Model-Snapshot---Summary" transform="translate(-1233.000000, -110.000000)" fill-rule="nonzero" fill="#505050">
            <g id="content-header" transform="translate(-2.000000, 71.000000)">
                <g id="Group-2" transform="translate(2.000000, 0.000000)">
                    <g id="Group" transform="translate(1233.000000, 37.500000)">
                        <g id="logo-ab464a6efeaaa09c0904a6704a997891" transform="translate(0.000000, 1.500000)">
                            <path d="M8.0009317,6.97554143e-06 C7.09725329,-0.00236103253 6.30499126,0.598398615 6.07039457,1.46390246 C5.83579787,2.3294063 6.2175482,3.24315843 7.00062113,3.69047946 L7.00062113,4.96031945 L5,6.94444444 L2.99937887,4.96031945 L2.99937887,3.69047946 C3.7824518,3.24315843 4.16420213,2.3294063 3.92960543,1.46390246 C3.69500874,0.598398615 2.90274671,-0.00236103253 1.9990683,6.97554143e-06 C1.09538989,-0.00236103253 0.303127859,0.598398615 0.0685311657,1.46390246 C-0.166065527,2.3294063 0.215684804,3.24315843 0.998757734,3.69047946 L0.998757734,5.4563507 L3.99968943,8.43253819 L3.99968943,10.1984094 C3.2166165,10.6457305 2.83486617,11.5594826 3.06946287,12.4249864 C3.30405956,13.2904903 4.09632159,13.8912499 5,13.8888819 C5.90367841,13.8912499 6.69594044,13.2904903 6.93053713,12.4249864 C7.16513383,11.5594826 6.7833835,10.6457305 6.00031057,10.1984094 L6.00031057,8.43253819 L9.00124227,5.4563507 L9.00124227,3.69047946 C9.7843152,3.24315843 10.1660655,2.3294063 9.93146883,1.46390246 C9.69687214,0.598398615 8.90461011,-0.00236103253 8.0009317,6.97554143e-06 L8.0009317,6.97554143e-06 Z M1.9990683,3.17460696 C1.33886333,3.17460696 0.79869562,2.62897259 0.79869562,1.98413197 C0.79869562,1.33929134 1.34886643,0.793656972 1.9990683,0.793656972 C2.64927017,0.793656972 3.19944098,1.33929134 3.19944098,1.98413197 C3.19944098,2.62897259 2.64927017,3.17460696 1.9990683,3.17460696 Z M5,13.0952319 C4.33979503,13.0952319 3.79962732,12.5495975 3.79962732,11.9047569 C3.79962732,11.2599163 4.34979813,10.7142819 5,10.7142819 C5.65020187,10.7142819 6.20037268,11.2599163 6.20037268,11.9047569 C6.20037268,12.5495975 5.65020187,13.0952319 5,13.0952319 Z M8.0009317,3.17460696 C7.34072673,3.17460696 6.80055902,2.62897259 6.80055902,1.98413197 C6.80055902,1.33929134 7.35072983,0.793656972 8.0009317,0.793656972 C8.65113357,0.793656972 9.20130438,1.33929134 9.20130438,1.98413197 C9.20130438,2.62897259 8.65113357,3.17460696 8.0009317,3.17460696 L8.0009317,3.17460696 Z" id="Shape"></path>
                        </g>
                    </g>
                </g>
            </g>
        </g>
    </g>
</svg>