<?xml version="1.0" encoding="UTF-8"?>
<svg width="28px" height="28px" viewBox="0 0 28 28" version="1.1" xmlns="http://www.w3.org/2000/svg" xmlns:xlink="http://www.w3.org/1999/xlink">
    <!-- Generator: Sketch 43.2 (39069) - http://www.bohemiancoding.com/sketch -->
    <title>Page 1</title>
    <desc>Created with Sketch.</desc>
    <defs></defs>
    <g id="dashboard-hifi" stroke="none" stroke-width="1" fill="none" fill-rule="evenodd">
        <g id="12)-PERSONAL---Build-Model-file" transform="translate(-2075.000000, -1581.000000)" fill="#FFFFFF">
            <g id="repo-files" transform="translate(882.000000, 1553.000000)">
                <path d="M1193.7175,28.0026263 C1193.3897,28.0607077 1193.12677,28.2998908 1193.03458,28.6176587 C1192.94238,28.9388468 1193.03799,29.2805295 1193.28043,29.5060233 L1205.7641,41.9978843 L1193.28043,54.4897453 C1193.11311,54.6537551 1193.0175,54.875855 1193.01409,55.1081978 C1193.01409,55.3439608 1193.10286,55.5660607 1193.26677,55.7334819 C1193.43067,55.9009118 1193.65262,55.9965798 1193.88481,56 C1194.117,56 1194.34238,55.9111635 1194.50969,55.7471537 L1207.02046,43.2552927 L1219.50413,55.7471537 C1219.67145,55.9111635 1219.8934,56 1220.129,56 C1220.36119,55.9965798 1220.58315,55.9009118 1220.74705,55.7334819 C1220.91095,55.5660519 1220.99973,55.3439608 1220.99632,55.1081978 C1220.99632,54.875855 1220.90071,54.6537551 1220.7334,54.4897453 L1208.24973,41.9978843 L1220.7334,29.5060233 C1220.99291,29.2565884 1221.07145,28.8738989 1220.93144,28.5424329 C1220.79144,28.2075817 1220.46364,27.9957336 1220.1051,28.0025651 C1219.87974,28.0059765 1219.66461,28.0948217 1219.50413,28.2485798 L1207.02046,40.7404408 L1194.50969,28.2485798 C1194.34237,28.0879902 1194.1136,27.999145 1193.8814,28.0025651 C1193.82676,27.999145 1193.77213,27.999145 1193.71749,28.0025651 L1193.7175,28.0026263 Z" id="Page-1"></path>
            </g>
        </g>
    </g>
</svg>