<?xml version="1.0" encoding="UTF-8"?>
<svg width="30px" height="34px" viewBox="0 0 30 34" version="1.1" xmlns="http://www.w3.org/2000/svg" xmlns:xlink="http://www.w3.org/1999/xlink">
    <!-- Generator: Sketch 43.2 (39069) - http://www.bohemiancoding.com/sketch -->
    <title>Page 1</title>
    <desc>Created with Sketch.</desc>
    <defs></defs>
    <g id="dashboard-hifi" stroke="none" stroke-width="1" fill="none" fill-rule="evenodd">
        <g id="Homepage-r3" transform="translate(-271.000000, -3338.000000)" stroke-width="0.2" stroke="#505050" fill="#505050">
            <g id="Page-1" transform="translate(271.500000, 3338.000000)">
                <g id="Group-3">
                    <path d="M0.966942857,14.6449875 C0.966942857,7.3286125 6.94508571,1.3762375 14.2931333,1.3762375 C21.641181,1.3762375 27.6193238,7.3286125 27.6193238,14.6449875 C27.6193238,21.6506125 22.0996571,29.1677375 15.055419,31.7568625 L14.7764667,31.8599875 L14.7764667,28.3949875 C14.7764667,28.1296125 14.5596571,27.9137375 14.2931333,27.9137375 C6.94508571,27.9137375 0.966942857,21.9613625 0.966942857,14.6449875 M14.0058952,32.9063625 C14.127419,32.9971125 14.2972762,33.0218625 14.4339905,32.9806125 C22.3703238,30.5826125 28.5859905,22.5278625 28.5859905,14.6449875 C28.5859905,6.7978625 22.1742286,0.4137375 14.2931333,0.4137375 C6.4120381,0.4137375 0.000276190476,6.7978625 0.000276190476,14.6449875 C0.000276190476,22.2569875 5.9798,28.5008625 13.6123238,28.8611125 L13.8098,28.8693625 L13.8098,32.5199875 C13.8098,32.6698625 13.8829905,32.8156125 14.0058952,32.9063625" id="Fill-1"></path>
                </g>
                <path d="M7.25,15.5925926 C6.78592593,15.5925926 6.40740741,15.2140741 6.40740741,14.75 C6.40740741,14.2859259 6.78592593,13.9074074 7.25,13.9074074 C7.71407407,13.9074074 8.09259259,14.2859259 8.09259259,14.75 C8.09259259,15.2140741 7.71407407,15.5925926 7.25,15.5925926 M7.25,13 C6.28425926,13 5.5,13.7842593 5.5,14.75 C5.5,15.7157407 6.28425926,16.5 7.25,16.5 C8.21574074,16.5 9,15.7157407 9,14.75 C9,13.7842593 8.21574074,13 7.25,13" id="Fill-4"></path>
                <path d="M14.25,15.5925926 C13.7859259,15.5925926 13.4074074,15.2140741 13.4074074,14.75 C13.4074074,14.2859259 13.7859259,13.9074074 14.25,13.9074074 C14.7140741,13.9074074 15.0925926,14.2859259 15.0925926,14.75 C15.0925926,15.2140741 14.7140741,15.5925926 14.25,15.5925926 M14.25,13 C13.2842593,13 12.5,13.7842593 12.5,14.75 C12.5,15.7157407 13.2842593,16.5 14.25,16.5 C15.2157407,16.5 16,15.7157407 16,14.75 C16,13.7842593 15.2157407,13 14.25,13" id="Fill-6"></path>
                <path d="M21.25,15.5925926 C20.7859259,15.5925926 20.4074074,15.2140741 20.4074074,14.75 C20.4074074,14.2859259 20.7859259,13.9074074 21.25,13.9074074 C21.7140741,13.9074074 22.0925926,14.2859259 22.0925926,14.75 C22.0925926,15.2140741 21.7140741,15.5925926 21.25,15.5925926 M21.25,13 C20.2855556,13 19.5,13.7842593 19.5,14.75 C19.5,15.7157407 20.2855556,16.5 21.25,16.5 C22.2144444,16.5 23,15.7157407 23,14.75 C23,13.7842593 22.2144444,13 21.25,13" id="Fill-8"></path>
            </g>
        </g>
    </g>
</svg>