<?xml version="1.0" encoding="UTF-8"?>
<svg width="14px" height="14px" viewBox="0 0 14 14" version="1.1" xmlns="http://www.w3.org/2000/svg" xmlns:xlink="http://www.w3.org/1999/xlink">
    <!-- Generator: Sketch 43.2 (39069) - http://www.bohemiancoding.com/sketch -->
    <title>Shape</title>
    <desc>Created with Sketch.</desc>
    <defs></defs>
    <g id="dashboard-hifi" stroke="none" stroke-width="1" fill="none" fill-rule="evenodd">
        <g id="1)-Search-Page---Models" transform="translate(-845.000000, -606.000000)" fill-rule="nonzero" stroke="#8A8A8A">
            <g id="model-box" transform="translate(151.000000, 101.000000)">
                <g id="star" transform="translate(685.000000, 497.500000)">
                    <g id="Group-4" transform="translate(9.000000, 6.500000)">
                        <g id="empty-star.1" transform="translate(0.000000, 1.500000)">
                            <g id="Layer_1">
                                <g id="empty-star.3">
                                    <g id="Layer_1">
                                        <path d="M2.6530978,12.8984821 L2.65225227,12.8989048 C2.65253389,12.8987632 2.65281573,12.8986223 2.6530978,12.8984821 Z M7.17451544,0.379321994 L7.17520075,0.377948113 C7.17497335,0.378406997 7.17474509,0.37886459 7.17451598,0.379320892 L7.17451544,0.379321994 Z M6.82525953,0.378171334 C6.82502801,0.377710215 6.82479734,0.377247787 6.82456753,0.37678405 L6.82525953,0.378171335 L6.82525953,0.378171334 Z M3.00984966,12.7201062 L3.81233903,8.7065607 L3.86480082,8.44417924 L3.67559687,8.25497529 L0.723080339,5.30245876 L4.73847618,4.77017766 L5.00168177,4.73528711 L5.12019587,4.49769724 L7.00017439,0.728830352 L8.88015118,4.49769724 L8.99866527,4.73528711 L9.26187087,4.77017766 L13.2783577,5.30260343 L10.3259676,8.25497529 L10.1367636,8.44417924 L10.1892254,8.7065607 L10.9917819,12.7204522 L7.22408468,10.8365954 L7.00047788,10.724792 L6.77687108,10.8365954 L3.00984966,12.7201062 Z" id="Shape"></path>
                                    </g>
                                </g>
                            </g>
                        </g>
                    </g>
                </g>
            </g>
        </g>
    </g>
</svg>