<?xml version="1.0" encoding="UTF-8"?>
<svg width="14px" height="9px" viewBox="0 0 14 9" version="1.1" xmlns="http://www.w3.org/2000/svg" xmlns:xlink="http://www.w3.org/1999/xlink">
    <!-- Generator: Sketch 43.2 (39069) - http://www.bohemiancoding.com/sketch -->
    <title>Group 12</title>
    <desc>Created with Sketch.</desc>
    <defs></defs>
    <g id="dashboard-hifi" stroke="none" stroke-width="1" fill="none" fill-rule="evenodd">
        <g id="3)-Profile-Page---Model" transform="translate(-170.000000, -517.000000)" stroke-width="0.5" stroke="#979797" fill-rule="nonzero">
            <g id="profile" transform="translate(151.000000, 100.000000)">
                <g id="mail.1" transform="translate(20.000000, 392.000000)">
                    <g id="Layer_1">
                        <g id="Group">
                            <g id="Group-3">
                                <g id="Group-12" transform="translate(0.000000, 25.000000)">
                                    <path d="M11,8.5 L1,8.5 C0.44,8.5 0,8.06 0,7.5 L0,1.5 C0,0.94 0.44,0.5 1,0.5 L11,0.5 C11.56,0.5 12,0.94 12,1.5 L12,7.5 C12,8.06 11.56,8.5 11,8.5 Z M1,0.9 C0.68,0.9 0.4,1.18 0.4,1.5 L0.4,7.5 C0.4,7.82 0.68,8.1 1,8.1 L11,8.1 C11.32,8.1 11.6,7.82 11.6,7.5 L11.6,1.5 C11.6,1.18 11.32,0.9 11,0.9 L1,0.9 Z" id="Shape" fill="#979797"></path>
                                    <path d="M5.89003754,5.26601525 C5.63345848,5.26601525 5.34022526,5.19270695 5.15695449,5.04609034 L1.67481001,2.66357043 C1.6015017,2.62691627 1.56484755,2.48029966 1.63815586,2.40699136 C1.67481001,2.33368305 1.78477247,2.2970289 1.89473492,2.37033721 L5.37687941,4.75285712 C5.67011263,4.97278203 6.14661661,4.97278203 6.43984983,4.75285712 L10.1052651,2.37033721 C10.1785734,2.2970289 10.2885358,2.33368305 10.3618441,2.40699136 C10.4351524,2.48029966 10.3984983,2.59026212 10.32519,2.66357043 L6.65977474,5.04609034 C6.43984983,5.19270695 6.18327076,5.26601525 5.89003754,5.26601525 Z" id="Shape" fill="#000000"></path>
                                </g>
                            </g>
                        </g>
                    </g>
                </g>
            </g>
        </g>
    </g>
</svg>