<?xml version="1.0" encoding="UTF-8"?>
<svg width="13px" height="16px" viewBox="0 0 13 16" version="1.1" xmlns="http://www.w3.org/2000/svg" xmlns:xlink="http://www.w3.org/1999/xlink">
    <!-- Generator: Sketch 43.2 (39069) - http://www.bohemiancoding.com/sketch -->
    <title>Shape</title>
    <desc>Created with Sketch.</desc>
    <defs></defs>
    <g id="dashboard-hifi" stroke="none" stroke-width="1" fill="none" fill-rule="evenodd">
        <g id="11)-Model-Snapshot---Session-1--Training-Task---Files" transform="translate(-259.000000, -657.000000)" fill-rule="nonzero" fill="#3F93EB">
            <g id="content-box" transform="translate(151.000000, 233.500000)">
                <g id="files" transform="translate(50.500000, 219.500000)">
                    <g id="Group-5" transform="translate(0.000000, 62.500000)">
                        <path d="M64.25,146.359213 L60.0833333,146.359213 L60.0833333,145.311077 L64.25,145.311077 L64.25,146.359213 Z M60.0833333,149.503623 L67.375,149.503623 L67.375,148.455487 L60.0833333,148.455487 L60.0833333,149.503623 Z M60.0833333,151.599896 L67.375,151.599896 L67.375,150.55176 L60.0833333,150.55176 L60.0833333,151.599896 Z M60.0833333,153.69617 L67.375,153.69617 L67.375,152.648033 L60.0833333,152.648033 L60.0833333,153.69617 Z M70.5,145.835145 L70.5,155.792443 C70.5,156.368918 70.03125,156.84058 69.4583333,156.84058 L59.0416667,156.84058 C58.46875,156.84058 58,156.368918 58,155.792443 L58,143.214803 C58,142.638328 58.46875,142.166667 59.0416667,142.166667 L66.8541667,142.166667 L70.5,145.835145 Z M69.4583333,146.359213 L66.3333333,143.214803 L59.0416667,143.214803 L59.0416667,155.792443 L69.4583333,155.792443 L69.4583333,146.359213 Z" id="Shape"></path>
                    </g>
                </g>
            </g>
        </g>
    </g>
</svg>