<?xml version="1.0" encoding="UTF-8"?>
<svg width="29px" height="35px" viewBox="0 0 29 35" version="1.1" xmlns="http://www.w3.org/2000/svg" xmlns:xlink="http://www.w3.org/1999/xlink">
    <!-- Generator: Sketch 43.2 (39069) - http://www.bohemiancoding.com/sketch -->
    <title>Page 1</title>
    <desc>Created with Sketch.</desc>
    <defs></defs>
    <g id="dashboard-hifi" stroke="none" stroke-width="1" fill="none" fill-rule="evenodd">
        <g id="Homepage-r3" transform="translate(-561.000000, -2379.000000)" fill="#505050">
            <g id="Page-1" transform="translate(561.000000, 2379.000000)">
                <path d="M5,6.25 L5,28.125 C5,29.16 5.84,30 6.875,30 L21.875,30 C22.9075,30 23.75,29.16 23.75,28.125 L23.75,6.25 C23.75,5.215 22.9075,4.375 21.875,4.375 L6.875,4.375 C5.84,4.375 5,5.215 5,6.25 M22.5,6.25 L22.5,28.125 C22.5,28.469375 22.219375,28.75 21.875,28.75 L6.875,28.75 C6.530625,28.75 6.25,28.469375 6.25,28.125 L6.25,6.25 C6.25,5.905625 6.530625,5.625 6.875,5.625 L21.875,5.625 C22.219375,5.625 22.5,5.905625 22.5,6.25" id="Fill-1"></path>
                <path d="M0.625,8.75 C0.969375,8.75 1.25,8.469375 1.25,8.125 L1.25,1.25 L8.125,1.25 C8.469375,1.25 8.75,0.969375 8.75,0.625 C8.75,0.280625 8.469375,0 8.125,0 L0.625,0 C0.280625,0 0,0.280625 0,0.625 L0,8.125 C0,8.469375 0.280625,8.75 0.625,8.75" id="Fill-3"></path>
                <path d="M28.125,0 L20.625,0 C20.280625,0 20,0.280625 20,0.625 C20,0.969375 20.280625,1.25 20.625,1.25 L27.5,1.25 L27.5,8.125 C27.5,8.469375 27.780625,8.75 28.125,8.75 C28.469375,8.75 28.75,8.469375 28.75,8.125 L28.75,0.625 C28.75,0.280625 28.469375,0 28.125,0" id="Fill-5"></path>
                <path d="M8.125,33.75 L1.25,33.75 L1.25,26.875 C1.25,26.530625 0.969375,26.25 0.625,26.25 C0.280625,26.25 0,26.530625 0,26.875 L0,34.375 C0,34.719375 0.280625,35 0.625,35 L8.125,35 C8.469375,35 8.75,34.719375 8.75,34.375 C8.75,34.030625 8.469375,33.75 8.125,33.75" id="Fill-7"></path>
                <path d="M28.125,26.25 C27.780625,26.25 27.5,26.530625 27.5,26.875 L27.5,33.75 L20.625,33.75 C20.280625,33.75 20,34.030625 20,34.375 C20,34.719375 20.280625,35 20.625,35 L28.125,35 C28.469375,35 28.75,34.719375 28.75,34.375 L28.75,26.875 C28.75,26.530625 28.469375,26.25 28.125,26.25" id="Fill-9"></path>
                <path d="M9.375,25.625 L19.375,25.625 C19.719375,25.625 20,25.344375 20,25 C20,24.655625 19.719375,24.375 19.375,24.375 L9.375,24.375 C9.030625,24.375 8.75,24.655625 8.75,25 C8.75,25.344375 9.030625,25.625 9.375,25.625" id="Fill-11"></path>
                <path d="M9.375,21.875 L19.375,21.875 C19.719375,21.875 20,21.594375 20,21.25 C20,20.905625 19.719375,20.625 19.375,20.625 L9.375,20.625 C9.030625,20.625 8.75,20.905625 8.75,21.25 C8.75,21.594375 9.030625,21.875 9.375,21.875" id="Fill-13"></path>
                <path d="M9.375,18.125 L19.375,18.125 C19.719375,18.125 20,17.844375 20,17.5 C20,17.155625 19.719375,16.875 19.375,16.875 L9.375,16.875 C9.030625,16.875 8.75,17.155625 8.75,17.5 C8.75,17.844375 9.030625,18.125 9.375,18.125" id="Fill-15"></path>
                <path d="M9.375,14.375 L19.375,14.375 C19.719375,14.375 20,14.094375 20,13.75 C20,13.405625 19.719375,13.125 19.375,13.125 L9.375,13.125 C9.030625,13.125 8.75,13.405625 8.75,13.75 C8.75,14.094375 9.030625,14.375 9.375,14.375" id="Fill-17"></path>
                <path d="M9.375,10.625 L15.625,10.625 C15.969375,10.625 16.25,10.344375 16.25,10 C16.25,9.655625 15.969375,9.375 15.625,9.375 L9.375,9.375 C9.030625,9.375 8.75,9.655625 8.75,10 C8.75,10.344375 9.030625,10.625 9.375,10.625" id="Fill-19"></path>
            </g>
        </g>
    </g>
</svg>