<?xml version="1.0" encoding="UTF-8"?>
<svg width="25px" height="45px" viewBox="0 0 25 45" version="1.1" xmlns="http://www.w3.org/2000/svg" xmlns:xlink="http://www.w3.org/1999/xlink">
    <!-- Generator: Sketch 43.2 (39069) - http://www.bohemiancoding.com/sketch -->
    <title>Page 1</title>
    <desc>Created with Sketch.</desc>
    <defs></defs>
    <g id="dashboard-hifi" stroke="none" stroke-width="1" fill="none" fill-rule="evenodd">
        <g id="Homepage-r3" transform="translate(-949.000000, -2374.000000)" fill="#505050">
            <g id="Page-1" transform="translate(949.500000, 2374.500000)">
                <path d="M20.885,14.8775 C19.6935,14.8775 18.76,13.944 18.76,12.7525 C18.76,11.561 19.6935,10.6275 20.885,10.6275 C22.0765,10.6275 23.01,11.561 23.01,12.7525 C23.01,13.944 22.0765,14.8775 20.885,14.8775 M23.01,22.1275 C23.01,23.319 22.0765,24.2525 20.885,24.2525 C19.6935,24.2525 18.76,23.319 18.76,22.1275 C18.76,20.936 19.6935,20.0025 20.885,20.0025 C22.0765,20.0025 23.01,20.936 23.01,22.1275 M20.055,5.338 C19.7995,5.231 19.572,5.0785 19.378,4.885 C18.9795,4.4865 18.76,3.9505 18.76,3.3775 C18.76,2.8045 18.9795,2.2685 19.378,1.87 C19.572,1.6765 19.7995,1.524 20.054,1.4175 C20.317,1.3075 20.5965,1.2525 20.885,1.2525 C22.0765,1.2525 23.01,2.186 23.01,3.3775 C23.01,4.569 22.0765,5.5025 20.885,5.5025 C20.5965,5.5025 20.317,5.4475 20.055,5.338 M5.5,40.8775 C5.5,42.069 4.5665,43.0025 3.375,43.0025 C2.184,43.0025 1.25,42.069 1.25,40.8775 C1.25,39.686 2.184,38.7525 3.375,38.7525 C4.5665,38.7525 5.5,39.686 5.5,40.8775 M1.25,3.3775 C1.25,2.186 2.184,1.2525 3.375,1.2525 C4.5665,1.2525 5.5,2.186 5.5,3.3775 C5.5,4.569 4.5665,5.5025 3.375,5.5025 C2.184,5.5025 1.25,4.569 1.25,3.3775 M21.7855,9.5035 L21.512,9.427 L21.512,6.7 L21.786,6.623 C23.244,6.2155 24.262,4.88 24.262,3.375 C24.262,1.514 22.748,0 20.887,0 C20.728,0 20.56,0.0145 20.3695,0.0445 L20.288,0.0565 C20.127,0.0855 19.9635,0.128 19.8065,0.182 C18.414,0.68 17.508,1.9565 17.508,3.375 C17.508,3.6455 17.5505,3.9315 17.6375,4.249 L17.6525,4.308 C17.6855,4.4205 17.724,4.5295 17.768,4.637 L17.8105,4.733 C17.8655,4.8535 17.916,4.961 17.976,5.0635 C18.121,5.301 18.272,5.499 18.446,5.6815 L18.4895,5.73 C18.586,5.829 18.6625,5.892 18.739,5.9555 C18.7885,5.997 18.837,6.037 18.888,6.0755 C18.9635,6.1315 19.041,6.184 19.121,6.234 C19.179,6.269 19.241,6.3035 19.3035,6.337 C19.4,6.3885 19.4715,6.428 19.546,6.4605 C19.596,6.482 19.6465,6.4995 19.6975,6.517 L19.8655,6.5795 C19.893,6.591 19.92,6.602 19.948,6.612 L20.258,6.612 L20.26,9.4235 L19.986,9.5 C18.528,9.908 17.51,11.243 17.51,12.748 C17.51,14.251 18.5285,15.587 19.9865,15.9965 L20.26,16.0735 L20.26,18.8005 L19.986,18.877 C18.528,19.2845 17.51,20.62 17.51,22.125 C17.51,23.613 18.514,24.945 19.951,25.365 L20.2405,25.4495 L20.22,25.75 C20.072,27.936 19.388,29.188 17.9335,29.935 C16.5645,30.639 14.4555,30.6975 12.231,30.6975 L11.9425,30.6975 C9.856,30.6885 7.7115,30.693 5.9045,31.6225 C5.4365,31.8645 5.011,32.1745 4.641,32.5445 L4.0005,33.1845 L4.0005,6.698 L4.2745,6.621 C5.7325,6.2135 6.7505,4.878 6.7505,3.373 C6.7505,1.557 5.309,0.0715 3.51,0.0005 L3.375,0.0025 C1.5145,0.0025 0,1.5165 0,3.3775 C0,4.8805 1.019,6.2165 2.477,6.626 L2.75,6.7025 L2.75,37.5545 L2.4765,37.6315 C1.0185,38.039 0,39.3745 0,40.8795 C0,42.7405 1.5145,44.2545 3.375,44.2545 C5.236,44.2545 6.75,42.7405 6.75,40.8795 C6.75,39.393 5.7475,38.0615 4.311,37.6415 L4.021,37.557 L4.042,37.2555 C4.2085,34.8805 4.9365,33.53 6.4755,32.7395 C7.889,32.012 10.005,31.9515 12.2325,31.9515 L12.5865,31.952 C14.6365,31.952 16.745,31.958 18.5085,31.052 C20.247,30.1585 21.2695,28.315 21.466,25.7215 L21.486,25.456 L21.744,25.388 C23.2265,24.9935 24.262,23.654 24.262,22.129 C24.262,20.626 23.2435,19.29 21.7855,18.8805 L21.512,18.804 L21.512,16.0765 L21.786,16 C23.244,15.5925 24.262,14.257 24.262,12.752 C24.262,11.249 23.2435,9.913 21.7855,9.5035" id="Fill-1"></path>
            </g>
        </g>
    </g>
</svg>