<?xml version="1.0" encoding="UTF-8"?>
<svg width="7px" height="9px" viewBox="0 0 7 9" version="1.1" xmlns="http://www.w3.org/2000/svg" xmlns:xlink="http://www.w3.org/1999/xlink">
    <!-- Generator: Sketch 43.2 (39069) - http://www.bohemiancoding.com/sketch -->
    <title>Page-1</title>
    <desc>Created with Sketch.</desc>
    <defs></defs>
    <g id="dashboard-hifi" stroke="none" stroke-width="1" fill="none" fill-rule="evenodd">
        <g id="Homepage-r3" transform="translate(-391.000000, -1840.000000)" fill-rule="nonzero" fill="#393939">
            <g id="Group" transform="translate(378.000000, 1824.500000)">
                <g id="arrow-copy" transform="translate(16.000000, 20.000000) rotate(-180.000000) translate(-16.000000, -20.000000) translate(12.500000, 15.500000)">
                    <g id="Page-1" transform="translate(0.000000, -0.000000)">
                        <g transform="translate(-0.000000, 0.000000)" id="Community-Events-Events-List">
                            <g transform="translate(-0.000000, 0.000000)">
                                <path d="M2.33342701e-05,7.98029598 L2.33342701e-05,0.510371484 C2.33342701e-05,0.327441484 0.0940433343,0.160281984 0.249303334,0.0724214844 C0.409308334,-0.0316590156 0.611583334,-0.0226475156 0.762963334,0.0935984844 L6.27218333,3.81752148 C6.42011333,3.90402998 6.50766333,4.07118998 6.49946833,4.24871298 C6.50291833,4.42668598 6.41666333,4.59384598 6.27218333,4.68711298 L0.762963334,8.39887098 C0.684038334,8.45519198 0.593038334,8.48898398 0.496858334,8.49934698 C0.407583334,8.50475398 0.320033334,8.47636848 0.247578334,8.42184998 C0.0923183343,8.33398948 -0.00170166573,8.16322548 2.33342701e-05,7.98029598 Z" id="Page-1"></path>
                            </g>
                        </g>
                    </g>
                </g>
            </g>
        </g>
    </g>
</svg>