<?xml version="1.0" encoding="UTF-8"?>
<svg width="13px" height="16px" viewBox="0 0 13 16" version="1.1" xmlns="http://www.w3.org/2000/svg" xmlns:xlink="http://www.w3.org/1999/xlink">
    <!-- Generator: Sketch 43.2 (39069) - http://www.bohemiancoding.com/sketch -->
    <title>Shape</title>
    <desc>Created with Sketch.</desc>
    <defs></defs>
    <g id="dashboard-hifi" stroke="none" stroke-width="1" fill="none" fill-rule="evenodd">
        <g id="11)-Model-Snapshot---Session-1--Training-Task---Files" transform="translate(-259.000000, -611.000000)" fill-rule="nonzero" fill="#505050">
            <g id="content-box" transform="translate(151.000000, 233.500000)">
                <g id="files" transform="translate(50.500000, 219.500000)">
                    <g id="Group-5" transform="translate(0.000000, 62.500000)">
                        <path d="M64.25,100.192547 L60.0833333,100.192547 L60.0833333,99.1444099 L64.25,99.1444099 L64.25,100.192547 Z M60.0833333,103.336957 L67.375,103.336957 L67.375,102.28882 L60.0833333,102.28882 L60.0833333,103.336957 Z M60.0833333,105.43323 L67.375,105.43323 L67.375,104.385093 L60.0833333,104.385093 L60.0833333,105.43323 Z M60.0833333,107.529503 L67.375,107.529503 L67.375,106.481366 L60.0833333,106.481366 L60.0833333,107.529503 Z M70.5,99.6684783 L70.5,109.625776 C70.5,110.202252 70.03125,110.673913 69.4583333,110.673913 L59.0416667,110.673913 C58.46875,110.673913 58,110.202252 58,109.625776 L58,97.0481366 C58,96.4716615 58.46875,96 59.0416667,96 L66.8541667,96 L70.5,99.6684783 Z M69.4583333,100.192547 L66.3333333,97.0481366 L59.0416667,97.0481366 L59.0416667,109.625776 L69.4583333,109.625776 L69.4583333,100.192547 Z" id="Shape"></path>
                    </g>
                </g>
            </g>
        </g>
    </g>
</svg>