<?xml version="1.0" encoding="UTF-8"?>
<svg width="35px" height="30px" viewBox="0 0 35 30" version="1.1" xmlns="http://www.w3.org/2000/svg" xmlns:xlink="http://www.w3.org/1999/xlink">
    <!-- Generator: Sketch 43.2 (39069) - http://www.bohemiancoding.com/sketch -->
    <title>Page 1</title>
    <desc>Created with Sketch.</desc>
    <defs>
        <polygon id="path-1" points="1.98951966e-13 0 4.42866667 0 4.42866667 10.4121889 1.98951966e-13 10.4121889"></polygon>
        <polygon id="path-3" points="0 28.8608889 34.3451111 28.8608889 34.3451111 0.5 0 0.5"></polygon>
    </defs>
    <g id="dashboard-hifi" stroke="none" stroke-width="1" fill="none" fill-rule="evenodd">
        <g id="Homepage-r4-Copy-2" transform="translate(-847.000000, -3147.000000)">
            <g id="Page-1" transform="translate(847.500000, 3147.500000)">
                <path d="M15.7070833,10.9111617 C15.3111944,10.9111617 14.9891944,10.5891617 14.9891944,10.1932728 L14.9891944,2.95216172 L13.2251944,4.71616172 C12.9545278,4.98760616 12.4800833,4.98682838 12.2094167,4.71616172 C11.9301944,4.43616172 11.9301944,3.98116172 12.2094167,3.70116172 L15.2015278,0.709828383 C15.4053056,0.506050605 15.7171944,0.442272828 15.98475,0.555828383 C16.2538611,0.666272828 16.4280833,0.926828383 16.4280833,1.21849505 L16.4280833,10.1901617 C16.4265278,10.5876062 16.1029722,10.9111617 15.7070833,10.9111617 Z" id="Fill-1" fill="#505050"></path>
                <path d="M25.4286667,10.1901333 L25.4286667,1.21846668 C25.4286667,0.926800016 25.2544444,0.66624446 24.9861111,0.555800016 C24.717,0.44224446 24.4058889,0.506022238 24.2013333,0.710577793 L21.21,3.70113335 C20.93,3.98113335 20.93,4.43691113 21.21,4.71613335 C21.4806667,4.98680002 21.9551111,4.98757779 22.225,4.71613335 L23.9897778,2.95213335 L23.9897778,10.1932445 C23.9897778,10.5891333 24.3117778,10.9111333 24.7076667,10.9111333 C25.1043333,10.9111333 25.4271111,10.5875778 25.4286667,10.1901333" id="Fill-3" fill="#505050"></path>
                <g id="Group-7" transform="translate(30.055556, 0.360889)">
                    <mask id="mask-2" fill="white">
                        <use xlink:href="#path-1"></use>
                    </mask>
                    <g id="Clip-6"></g>
                    <path d="M4.42866667,9.69148613 L4.42866667,0.719819467 C4.42866667,0.4281528 4.25444444,0.167597245 3.98611111,0.0571528002 C3.71544444,-0.0579583109 3.40977778,0.00426391129 3.19977778,0.212708356 L0.21,3.20248613 C-0.07,3.48248613 -0.07,3.93826391 0.21,4.21748613 C0.480666667,4.4881528 0.955111111,4.48893058 1.225,4.21748613 L2.98977778,2.45348613 L2.98977778,9.69459724 C2.98977778,10.0904861 3.31177778,10.4124861 3.70766667,10.4124861 C4.10433333,10.4124861 4.42711111,10.0889306 4.42866667,9.69148613" id="Fill-5" fill="#505050" mask="url(#mask-2)"></path>
                </g>
                <mask id="mask-4" fill="white">
                    <use xlink:href="#path-3"></use>
                </mask>
                <g id="Clip-9"></g>
                <path d="M1.43577778,9.474 L5.98266667,9.474 L5.98266667,1.93577778 L1.43577778,1.93577778 L1.43577778,9.474 Z M6.70055556,0.5 L0.717888889,0.5 C0.322,0.5 0,0.822 0,1.21711111 L0,10.1918889 C0,10.5877778 0.322,10.9097778 0.717888889,10.9097778 L6.70055556,10.9097778 C7.09722222,10.9097778 7.41922222,10.5877778 7.41922222,10.1918889 L7.41922222,1.21711111 C7.41922222,0.822 7.09722222,0.5 6.70055556,0.5 L6.70055556,0.5 Z" id="Fill-8" fill="#505050" mask="url(#mask-4)"></path>
                <path d="M25.4280833,28.1894704 L25.4280833,19.2178037 C25.4280833,18.926137 25.2546389,18.6663593 24.9855278,18.555137 C24.7171944,18.443137 24.4045278,18.5053593 24.20075,18.709137 L21.2094167,21.7004704 C20.9301944,21.9804704 20.9301944,22.4362481 21.2094167,22.7154704 C21.4800833,22.986137 21.9545278,22.9869148 22.2244167,22.7154704 L23.9891944,20.9506926 L23.9891944,28.1925815 C23.9891944,28.5884704 24.3111944,28.9104704 24.7070833,28.9104704 C25.10375,28.9104704 25.4265278,28.5869148 25.4280833,28.1894704" id="Fill-10" fill="#505050" mask="url(#mask-4)"></path>
                <path d="M34.4280833,28.1907944 L34.4280833,19.2191277 C34.4280833,18.927461 34.2546389,18.6676833 33.9855278,18.556461 C33.7148611,18.4421277 33.4076389,18.5051277 33.1991944,18.7120166 L30.2094167,21.7017944 C29.9301944,21.9817944 29.9301944,22.4375722 30.2094167,22.7167944 C30.4800833,22.987461 30.9545278,22.9882388 31.2244167,22.7167944 L32.9891944,20.9520166 L32.9891944,28.1939055 C32.9891944,28.5897944 33.3111944,28.9117944 33.7070833,28.9117944 C34.10375,28.9117944 34.4265278,28.5882388 34.4280833,28.1907944" id="Fill-11" fill="#505050" mask="url(#mask-4)"></path>
                <path d="M3.70708333,28.9100759 C4.10297222,28.9100759 4.42652778,28.5865204 4.42808333,28.1890759 L4.42808333,19.2174092 C4.42808333,18.9257426 4.25463889,18.6659648 3.98552778,18.5555204 L3.98086111,18.553187 C3.71875,18.4442981 3.40452778,18.5057426 3.20152778,18.7087426 L0.209416667,21.7000759 C-0.0698055556,21.9800759 -0.0698055556,22.4358537 0.209416667,22.7150759 C0.480083333,22.9857426 0.954527778,22.9865204 1.22519444,22.7150759 L2.98919444,20.9510759 L2.98919444,28.192187 C2.98919444,28.5880759 3.31119444,28.9100759 3.70708333,28.9100759" id="Fill-12" fill="#505050" mask="url(#mask-4)"></path>
                <path d="M10.4357778,27.4747778 L14.9826667,27.4747778 L14.9826667,19.9365556 L10.4357778,19.9365556 L10.4357778,27.4747778 Z M15.7005556,18.5 L9.71711111,18.5 C9.322,18.5 9,18.822 9,19.2178889 L9,28.1926667 C9,28.5885556 9.322,28.9105556 9.71711111,28.9105556 L15.7005556,28.9105556 C16.0964444,28.9105556 16.4184444,28.5885556 16.4184444,28.1926667 L16.4184444,19.2178889 C16.4184444,18.822 16.0964444,18.5 15.7005556,18.5 L15.7005556,18.5 Z" id="Fill-13" fill="#505050" mask="url(#mask-4)"></path>
            </g>
        </g>
    </g>
</svg>