<?xml version="1.0" encoding="UTF-8"?>
<svg width="20px" height="20px" viewBox="0 0 14 14" version="1.1" xmlns="http://www.w3.org/2000/svg" xmlns:xlink="http://www.w3.org/1999/xlink">
    <!-- Generator: Sketch 43.1 (39012) - http://www.bohemiancoding.com/sketch -->
    <title>Shape</title>
    <desc>Created with Sketch.</desc>
    <defs></defs>
    <g id="Page-1" stroke="none" stroke-width="1" fill="none" fill-rule="evenodd">
        <g id="Homepage-splash-white-Copy" transform="translate(-1328.000000, -1110.000000)" fill-rule="nonzero" fill="#505050">
            <g id="footer" transform="translate(0.000000, 1054.000000)">
                <g id="Group-3" transform="translate(151.500000, 48.000000)">
                    <g id="Group-13" transform="translate(1018.000000, 0.000000)">
                        <g id="github-icon" transform="translate(158.000000, 8.000000)">
                            <path d="M7.42405723,0.5 C3.60749515,0.5 0.512654363,3.59426852 0.512654363,7.41140287 C0.512654363,10.4650417 2.49298165,13.0557305 5.23909346,13.9696132 C5.58450337,14.0335907 5.71131391,13.8196838 5.71131391,13.6371362 C5.71131391,13.4723282 5.7049047,12.9278899 5.701929,12.3503755 C3.77917005,12.7684611 3.37344502,11.5349197 3.37344502,11.5349197 C3.05905102,10.7360591 2.60605819,10.52364 2.60605819,10.52364 C1.97898697,10.0946817 2.653326,10.1034943 2.653326,10.1034943 C3.34735044,10.15225 3.71278909,10.8157163 3.71278909,10.8157163 C4.32921646,11.8723181 5.32962336,11.5668512 5.72401785,11.3902549 C5.78604972,10.9435569 5.96516391,10.6386622 6.16281889,10.4660717 C4.6277019,10.2913066 3.01395777,9.69868485 3.01395777,7.05042772 C3.01395777,6.29585926 3.28394515,5.67931751 3.72606528,5.19530871 C3.65430516,5.02123035 3.41773715,4.31827884 3.79301849,3.36628426 C3.79301849,3.36628426 4.37339414,3.180532 5.69414641,4.07472936 C6.2454518,3.92159535 6.83670014,3.84479944 7.42405723,3.8421671 C8.01141433,3.84479944 8.60312049,3.92159535 9.15545585,4.07472936 C10.4746059,3.180532 11.0541803,3.36628426 11.0541803,3.36628426 C11.4303773,4.31827884 11.1936948,5.02123035 11.1219347,5.19530871 C11.5650849,5.67931751 11.8332411,6.29585926 11.8332411,7.05042772 C11.8332411,9.70497963 10.2164068,10.2894755 8.6773985,10.4605781 C8.92529708,10.6750573 9.14618541,11.0956608 9.14618541,11.7404718 C9.14618541,12.6652273 9.13817397,13.4094952 9.13817397,13.6371362 C9.13817397,13.8210572 9.262581,14.0365664 9.61291225,13.9686976 C12.3575362,13.0537848 14.3353456,10.4640116 14.3353456,7.41140287 C14.3353456,3.59426852 11.2409627,0.5 7.42405723,0.5 Z M3.10119948,10.3454393 C3.08597763,10.3797743 3.03195726,10.3900748 2.98274379,10.3664981 C2.93261471,10.3439514 2.90446004,10.2971414 2.92071193,10.262692 C2.93559042,10.2273269 2.98972524,10.2174843 3.03973986,10.2411754 C3.08998339,10.263722 3.11859587,10.3109898 3.10119948,10.3454393 Z M3.44116371,10.6487848 C3.40820213,10.679343 3.34376682,10.6651512 3.30004694,10.6168533 C3.25483921,10.5686699 3.24636992,10.5042346 3.2797893,10.4732186 C3.31378093,10.4426605 3.3762706,10.4569668 3.42159278,10.5051502 C3.46680048,10.5539058 3.47561313,10.6178833 3.44116371,10.6487848 Z M3.67439204,11.0369051 C3.63204557,11.0663188 3.56280336,11.0387363 3.51999908,10.9772767 C3.4776526,10.9158171 3.4776526,10.8421113 3.52091469,10.8125832 C3.56383339,10.7830552 3.63204557,10.8096076 3.67542209,10.8706094 C3.71765413,10.933099 3.71765413,11.0068047 3.67439204,11.0369051 Z M4.06883106,11.4864032 C4.03094814,11.5281775 3.95026094,11.5169614 3.89120476,11.4599654 C3.8307752,11.4042282 3.81395106,11.3251433 3.85194844,11.283369 C3.89028916,11.2414804 3.97143417,11.2532687 4.03094814,11.309807 C4.09091991,11.3654297 4.1092319,11.4450869 4.06883106,11.4864032 Z M4.57860522,11.6381487 C4.56189554,11.6922836 4.48418403,11.7168903 4.40590026,11.6938859 C4.32773096,11.6701947 4.27657184,11.6067895 4.29236593,11.5520824 C4.30861781,11.4976043 4.38667267,11.4719675 4.46552868,11.4965742 C4.54358354,11.5201509 4.59485712,11.5830983 4.57860522,11.6381487 Z M5.15874961,11.7025152 C5.16069524,11.7595112 5.09431428,11.8067791 5.01213923,11.8078092 C4.92950638,11.8096404 4.86266762,11.7635171 4.86175202,11.7074366 C4.86175202,11.6498682 4.92664512,11.6030582 5.00927798,11.6016848 C5.09145304,11.6000825 5.15874961,11.6458625 5.15874961,11.7025152 Z M5.72867646,11.6806687 C5.73851916,11.7362914 5.68140863,11.7934018 5.59980583,11.8086237 C5.51957643,11.8232733 5.44529841,11.7889383 5.43511236,11.7337734 C5.42515523,11.6767774 5.4832958,11.6196669 5.56341075,11.6049029 C5.645128,11.5907111 5.71826152,11.6241304 5.72867646,11.6806687 Z" id="Shape"></path>
                        </g>
                    </g>
                </g>
            </g>
        </g>
    </g>
</svg>