<?xml version="1.0" encoding="UTF-8"?>
<svg width="37px" height="36px" viewBox="0 0 37 36" version="1.1" xmlns="http://www.w3.org/2000/svg" xmlns:xlink="http://www.w3.org/1999/xlink">
    <!-- Generator: Sketch 46.2 (44496) - http://www.bohemiancoding.com/sketch -->
    <title>tree-view.2</title>
    <desc>Created with Sketch.</desc>
    <defs></defs>
    <g id="dashboard-hifi" stroke="none" stroke-width="1" fill="none" fill-rule="evenodd">
        <g id="Homepage-r4" transform="translate(-943.000000, -685.000000)" fill-rule="nonzero" fill="#505050">
            <g id="tree-view.2" transform="translate(943.500000, 685.000000)">
                <path d="M29.4,27.6 L18.6,27.6 C18.2688,27.6 18,27.8688 18,28.2 C18,28.5312 18.2688,28.8 18.6,28.8 L29.4,28.8 C29.7312,28.8 30,28.5312 30,28.2 C30,27.8688 29.7312,27.6 29.4,27.6 Z M13.8,13.2 L24.6,13.2 C24.9312,13.2 25.2,12.9312 25.2,12.6 C25.2,12.2688 24.9312,12 24.6,12 L13.8,12 C13.4688,12 13.2,12.2688 13.2,12.6 C13.2,12.9312 13.4688,13.2 13.8,13.2 Z M18,19.8 C18,20.1312 18.2688,20.4 18.6,20.4 L29.4,20.4 C29.7312,20.4 30,20.1312 30,19.8 C30,19.4688 29.7312,19.2 29.4,19.2 L18.6,19.2 C18.2688,19.2 18,19.4688 18,19.8 Z M11.4,2.4 C11.0688,2.4 10.8,2.6688 10.8,3 C10.8,3.3312 11.0688,3.6 11.4,3.6 C11.7324,3.6 12,3.3312 12,3 C12,2.6688 11.7324,2.4 11.4,2.4 Z M32.2368,0 L3.7644,0 C1.6884,0 0,1.6884 0,3.7632 L0,32.2368 C0,34.3116 1.6896,36 3.7644,36 L32.2368,36 C34.3128,36 36,34.3116 36,32.2368 L36,3.7632 C36,1.6884 34.3116,0 32.2368,0 Z M34.8012,32.2368 C34.8012,33.6504 33.6504,34.8 32.2368,34.8 L3.7656,34.8 C2.352,34.8 1.2,33.6504 1.2,32.2368 L1.2,6 L34.8012,6 L34.8012,32.2368 Z M34.8012,4.8 L1.2,4.8 L1.2,3.7632 C1.2,2.3496 2.3508,1.2 3.7656,1.2 L32.238,1.2 C33.6516,1.2 34.8024,2.3496 34.8024,3.7632 L34.8024,4.8 L34.8012,4.8 Z M7.8,2.4 C7.4688,2.4 7.2,2.6688 7.2,3 C7.2,3.3312 7.4688,3.6 7.8,3.6 C8.1324,3.6 8.4,3.3312 8.4,3 C8.4,2.6688 8.1324,2.4 7.8,2.4 Z M6.6,14.4 L7.2,14.4 L7.2,28.2 C7.2,28.5312 7.4688,28.8 7.8,28.8 L10.8,28.8 L10.8,29.4 C10.8,29.7312 11.0688,30 11.4,30 L13.8,30 C14.1312,30 14.4,29.7312 14.4,29.4 L14.4,27 C14.4,26.6688 14.1312,26.4 13.8,26.4 L11.4,26.4 C11.0688,26.4 10.8,26.6688 10.8,27 L10.8,27.6 L8.4,27.6 L8.4,20.4 L10.8,20.4 L10.8,21 C10.8,21.3312 11.0688,21.6 11.4,21.6 L13.8,21.6 C14.1312,21.6 14.4,21.3312 14.4,21 L14.4,18.6 C14.4,18.2688 14.1312,18 13.8,18 L11.4,18 C11.0688,18 10.8,18.2688 10.8,18.6 L10.8,19.2 L8.4,19.2 L8.4,14.4 L9,14.4 C9.3312,14.4 9.6,14.1312 9.6,13.8 L9.6,11.4 C9.6,11.0688 9.3312,10.8 9,10.8 L6.6,10.8 C6.2688,10.8 6,11.0688 6,11.4 L6,13.8 C6,14.1312 6.2688,14.4 6.6,14.4 Z M12,27.6 L13.2,27.6 L13.2,28.8 L12,28.8 L12,27.6 Z M12,19.2 L13.2,19.2 L13.2,20.4 L12,20.4 L12,19.2 Z M7.2,12 L8.4,12 L8.4,13.2 L7.2,13.2 L7.2,12 Z M4.2,2.4 C3.8688,2.4 3.6,2.6688 3.6,3 C3.6,3.3312 3.8688,3.6 4.2,3.6 C4.5324,3.6 4.8,3.3312 4.8,3 C4.8,2.6688 4.5324,2.4 4.2,2.4 Z" id="Shape"></path>
            </g>
        </g>
    </g>
</svg>