<?xml version="1.0" encoding="UTF-8"?>
<svg width="35px" height="32px" viewBox="0 0 35 32" version="1.1" xmlns="http://www.w3.org/2000/svg" xmlns:xlink="http://www.w3.org/1999/xlink">
    <!-- Generator: Sketch 46.2 (44496) - http://www.bohemiancoding.com/sketch -->
    <title>red-eye-detection</title>
    <desc>Created with Sketch.</desc>
    <defs></defs>
    <g id="dashboard-hifi" stroke="none" stroke-width="1" fill="none" fill-rule="evenodd">
        <g id="Homepage-r4" transform="translate(-558.000000, -1298.000000)" fill-rule="nonzero" fill="#505050">
            <g id="Group-22" transform="translate(0.000000, 1181.000000)">
                <g id="Group-4" transform="translate(537.000000, 92.500000)">
                    <g id="red-eye-detection" transform="translate(21.500000, 25.000000)">
                        <path d="M28.9782609,20.2173913 C28.606069,20.2173913 28.3043478,20.5191125 28.3043478,20.8913043 L28.3043478,25.6086957 L23.5869565,25.6086957 C23.2147646,25.6086957 22.9130435,25.9104168 22.9130435,26.2826087 C22.9130435,26.6548006 23.2147646,26.9565217 23.5869565,26.9565217 L28.9782609,26.9565217 C29.3504528,26.9565217 29.6521739,26.6548006 29.6521739,26.2826087 L29.6521739,20.8913043 C29.6521739,20.5191125 29.3504528,20.2173913 28.9782609,20.2173913 Z" id="Shape"></path>
                        <path d="M10.1086957,25.6086957 L5.39130435,25.6086957 L5.39130435,20.8913043 C5.39130435,20.5191125 5.0895832,20.2173913 4.7173913,20.2173913 C4.34519941,20.2173913 4.04347826,20.5191125 4.04347826,20.8913043 L4.04347826,26.2826087 C4.04347826,26.6548006 4.34519941,26.9565217 4.7173913,26.9565217 L10.1086957,26.9565217 C10.4808875,26.9565217 10.7826087,26.6548006 10.7826087,26.2826087 C10.7826087,25.9104168 10.4808875,25.6086957 10.1086957,25.6086957 Z" id="Shape"></path>
                        <path d="M28.9782609,4.04347826 L23.5869565,4.04347826 C23.2147646,4.04347826 22.9130435,4.34519941 22.9130435,4.7173913 C22.9130435,5.0895832 23.2147646,5.39130435 23.5869565,5.39130435 L28.3043478,5.39130435 L28.3043478,10.1086957 C28.3043478,10.4808875 28.606069,10.7826087 28.9782609,10.7826087 C29.3504528,10.7826087 29.6521739,10.4808875 29.6521739,10.1086957 L29.6521739,4.7173913 C29.6521739,4.34519941 29.3504528,4.04347826 28.9782609,4.04347826 Z" id="Shape"></path>
                        <path d="M4.7173913,10.7826087 C5.0895832,10.7826087 5.39130435,10.4808875 5.39130435,10.1086957 L5.39130435,5.39130435 L10.1086957,5.39130435 C10.4808875,5.39130435 10.7826087,5.0895832 10.7826087,4.7173913 C10.7826087,4.34519941 10.4808875,4.04347826 10.1086957,4.04347826 L4.7173913,4.04347826 C4.34519941,4.04347826 4.04347826,4.34519941 4.04347826,4.7173913 L4.04347826,10.1086957 C4.04347826,10.4808875 4.34519941,10.7826087 4.7173913,10.7826087 Z" id="Shape"></path>
                        <path d="M31.673913,5.98555022e-16 L2.02173913,5.98555022e-16 C0.905163441,0 1.36741084e-16,0.905163441 0,2.02173913 L0,28.9782609 C2.12017795e-15,30.0948366 0.905163441,31 2.02173913,31 L31.673913,31 C32.7904887,31 33.6956522,30.0948366 33.6956522,28.9782609 L33.6956522,2.02173913 C33.6956522,0.905163441 32.7904887,2.39422009e-15 31.673913,5.98555022e-16 Z M32.3478261,28.9782609 C32.3478261,29.3504528 32.0461049,29.6521739 31.673913,29.6521739 L2.02173913,29.6521739 C1.64954723,29.6521739 1.34782609,29.3504528 1.34782609,28.9782609 L1.34782609,2.02173913 C1.34782609,1.64954723 1.64954723,1.34782609 2.02173913,1.34782609 L31.673913,1.34782609 C32.0461049,1.34782609 32.3478261,1.64954723 32.3478261,2.02173913 L32.3478261,28.9782609 Z" id="Shape"></path>
                        <path d="M16.8478261,12.1304348 C14.9868666,12.1304348 13.4782609,13.6390405 13.4782609,15.5 C13.4782609,17.3609595 14.9868666,18.8695652 16.8478261,18.8695652 C18.7087856,18.8695652 20.2173913,17.3609595 20.2173913,15.5 C20.2173913,13.6390405 18.7087856,12.1304348 16.8478261,12.1304348 Z M16.8478261,17.5217391 C15.7312504,17.5217391 14.826087,16.6165757 14.826087,15.5 C14.826087,14.3834243 15.7312504,13.4782609 16.8478261,13.4782609 C17.9644018,13.4782609 18.8695652,14.3834243 18.8695652,15.5 C18.8695652,16.6165757 17.9644018,17.5217391 16.8478261,17.5217391 L16.8478261,17.5217391 Z" id="Shape"></path>
                        <path d="M25.6086957,15.5 C25.6086957,14.4891304 21.6865217,9.43478261 16.8478261,9.43478261 C12.0091304,9.43478261 8.08695652,14.4891304 8.08695652,15.5 C8.08695652,16.5108696 12.0091304,21.5652174 16.8478261,21.5652174 C21.6865217,21.5652174 25.6086957,16.5108696 25.6086957,15.5 Z M16.8478261,20.2173913 C13.1413043,20.2173913 10.0561304,16.6173478 9.4913913,15.5 C10.0561304,14.3826522 13.1413043,10.7826087 16.8478261,10.7826087 C20.5543478,10.7826087 23.6395217,14.3826522 24.2042609,15.5 C23.6395217,16.6173478 20.5543478,20.2173913 16.8478261,20.2173913 Z" id="Shape"></path>
                    </g>
                </g>
            </g>
        </g>
    </g>
</svg>