<?xml version="1.0" encoding="UTF-8"?>
<svg width="7px" height="5px" viewBox="0 0 7 5" version="1.1" xmlns="http://www.w3.org/2000/svg" xmlns:xlink="http://www.w3.org/1999/xlink">
    <!-- Generator: Sketch 43.2 (39069) - http://www.bohemiancoding.com/sketch -->
    <title>Page-1</title>
    <desc>Created with Sketch.</desc>
    <defs></defs>
    <g id="dashboard-hifi" stroke="none" stroke-width="1" fill="none" fill-rule="evenodd">
        <g id="7)-Model-Snapshot---Summary" transform="translate(-368.000000, -270.000000)" fill-rule="nonzero" fill="#7C7C7C">
            <g id="content-box" transform="translate(151.000000, 232.000000)">
                <g id="Group-5" transform="translate(176.000000, 20.500000)">
                    <g id="arrow" transform="translate(44.500000, 20.000000) rotate(-270.000000) translate(-44.500000, -20.000000) translate(42.000000, 17.000000)">
                        <g id="Page-1">
                            <g id="Community-Events-Events-List">
                                <g>
                                    <path d="M1.72314612e-05,5.63315013 L1.72314612e-05,0.360262225 C1.72314612e-05,0.231135166 0.0694473855,0.113140225 0.184100924,0.051121048 C0.302258463,-0.0223475405 0.451630771,-0.0159864817 0.56341908,0.0660695186 L4.63176617,2.69472106 C4.74100679,2.75578588 4.80565909,2.87378118 4.7996074,2.99909153 C4.80215509,3.12471953 4.73845909,3.24271482 4.63176617,3.30855035 L0.56341908,5.92861483 C0.505136002,5.96837083 0.437936002,5.99222401 0.366910771,5.99953907 C0.300984617,6.00335577 0.236332309,5.98331895 0.182827078,5.9448353 C0.0681735394,5.88281613 -0.0012566147,5.76227683 1.72314612e-05,5.63315013 Z" id="Page-1"></path>
                                </g>
                            </g>
                        </g>
                    </g>
                </g>
            </g>
        </g>
    </g>
</svg>