<?xml version="1.0" encoding="UTF-8"?>
<svg width="33px" height="42px" viewBox="0 0 33 42" version="1.1" xmlns="http://www.w3.org/2000/svg" xmlns:xlink="http://www.w3.org/1999/xlink">
    <!-- Generator: Sketch 43.2 (39069) - http://www.bohemiancoding.com/sketch -->
    <title>Page 1</title>
    <desc>Created with Sketch.</desc>
    <defs></defs>
    <g id="dashboard-hifi" stroke="none" stroke-width="1" fill="none" fill-rule="evenodd">
        <g id="Homepage-r3" transform="translate(-849.000000, -1814.000000)">
            <g id="Page-1" transform="translate(850.000000, 1815.000000)">
                <path d="M29.5048966,20.4434828 C29.8048966,20.0103793 30.1148966,19.5621034 30.2252414,19.1324483 C30.4645517,18.2024483 30.6362759,17.2072759 30.750069,16.0893448 C30.9269655,14.3517586 30.8121379,12.5496897 30.4083448,10.7334828 C30.1531724,9.58727586 29.7817931,8.26934483 28.9614483,7.18417241 C28.4635172,6.52589655 28.2928276,5.90727586 28.390069,5.11451724 C28.5752414,3.60727586 28.3462759,2.06934483 27.7097241,0.543482759 C27.5742069,0.219 27.440069,0.166241379 27.2090345,0.178310345 C25.2969655,0.269344828 23.738,0.736241379 22.4438621,1.60589655 C22.0035172,1.90141379 21.6355862,2.12831034 21.2869655,2.31865517 C20.9669655,2.49348276 20.6221379,2.50727586 20.4469655,2.50175862 C20.2152414,2.49313793 20.0038621,2.4552069 19.7993793,2.41865517 C19.7297241,2.40624138 19.660069,2.39382759 19.590069,2.3827931 C19.2976552,2.33693103 19.005931,2.28451724 18.7138621,2.23210345 C18.0873103,2.11934483 17.4955862,2.0127931 16.8990345,1.97175862 C14.658,1.81624138 12.3807586,2.02175862 10.1324828,2.5827931 C9.75593103,2.67624138 9.41041379,2.50106897 9.31351724,2.44486207 C9.02627586,2.27968966 8.74110345,2.10865517 8.45593103,1.93762069 C8.04317241,1.69003448 7.61627586,1.43382759 7.19248276,1.20348276 C6.05765517,0.585896552 4.79455172,0.249 3.33213793,0.173827586 C3.0317931,0.160034483 2.92144828,0.252793103 2.82248276,0.432793103 C2.79213793,0.488310345 2.75937931,0.542793103 2.72662069,0.596931034 C2.688,0.660724138 2.65144828,0.720724138 2.62868966,0.770034483 C1.89662069,2.3552069 1.71110345,4.05003448 2.0617931,5.95141379 C2.11903448,6.26037931 2.23731034,6.90348276 1.66662069,7.41141379 C1.66765517,7.41313793 1.64041379,7.45968966 1.62041379,7.49348276 C1.60213793,7.52486207 1.58351724,7.55624138 1.56455172,7.58658621 C0.890068966,8.6652069 0.485241379,9.97037931 0.290413793,11.6934828 C0.0635172414,13.7027931 0.163862069,15.8172759 0.589034483,17.9786552 C0.710068966,18.5931379 0.828,19.1407241 1.048,19.6207241 C1.40868966,20.406931 1.99144828,21.1655517 2.82972414,21.9393448 C4.31972414,23.3155517 6.16868966,24.296931 8.48144828,24.9403793 C8.78524138,25.0252069 9.098,25.101069 9.40041379,25.1745172 C9.5417931,25.2086552 9.6817931,25.2424483 9.81903448,25.276931 L10.4414483,25.4327931 L10.1383448,26.5958966 C9.90455172,27.4921034 9.67317241,28.3817586 9.43558621,29.2696897 C9.348,29.6014138 9.04282759,29.8083103 8.79593103,29.859 C7.72489655,30.0803793 6.56834483,30.2707241 5.37455172,30.1731379 C3.67765517,30.0334828 2.99386207,29.0252069 2.71903448,28.2041724 C2.69006897,28.1179655 2.65558621,28.0331379 2.6217931,27.9479655 L2.5742069,27.8286552 C2.30593103,27.1414138 2.07041379,26.5772759 1.69006897,26.0893448 C1.51524138,25.8655517 1.25524138,25.8055517 1.05765517,25.9431379 C0.828344828,26.1024483 0.789034483,26.3565862 0.952482759,26.6227931 C1.13317241,26.9162414 1.30524138,27.2376207 1.47868966,27.6041724 C1.58351724,27.8258966 1.68075862,28.051069 1.778,28.2765862 C1.88903448,28.5341724 1.9942069,28.7779655 2.11075862,29.0162414 C2.65662069,30.1331379 3.54317241,30.7934828 4.82006897,31.0355517 C5.45558621,31.1555517 6.10972414,31.0979655 6.80213793,31.0365862 L6.8842069,31.0293448 C7.21489655,31.0003793 7.54386207,30.9600345 7.89282759,30.9176207 C8.05248276,30.8983103 8.2142069,30.8786552 8.37834483,30.8600345 L9.08627586,30.7783103 L9.08558621,31.6265862 C9.08489655,31.7058966 9.0842069,31.7779655 9.08662069,31.8503793 C9.09593103,32.1762414 9.10627586,32.5014138 9.11662069,32.8265862 C9.13834483,33.5034828 9.16075862,34.2031379 9.17317241,34.8938276 C9.19144828,35.9086552 8.80834483,36.5872759 8.0342069,36.9124483 C7.59006897,37.2283103 7.33765517,37.5721034 7.24041379,37.9931379 C7.18524138,38.2314138 7.30110345,38.4327931 7.53627586,38.5062414 C7.68489655,38.5531379 7.95731034,38.5748621 8.02972414,38.361069 C8.19213793,37.8821034 8.50558621,37.651069 8.72731034,37.5186552 C8.80731034,37.4707241 8.9117931,37.4072759 9.008,37.339 C9.4917931,36.9965862 9.76731034,36.6055517 9.8742069,36.1083103 C10.0866207,35.1221034 10.0673103,34.1186552 10.0469655,33.0562414 L10.040069,32.6914138 C10.0369655,32.5034828 10.028,32.3152069 10.0190345,32.1272759 C9.98558621,31.4352069 9.95144828,30.7193448 10.1804138,29.9658966 C10.3369655,29.451069 10.4776552,28.9152069 10.6138621,28.396931 C10.755931,27.8555517 10.9028276,27.2962414 11.0707586,26.7465862 C11.2304138,26.2252069 11.5317931,25.7814138 11.7562759,25.501069 C11.980069,25.2217586 11.9631724,25.0845172 11.9235172,24.956931 C11.8748966,24.8003793 11.7931724,24.6948621 11.5352414,24.6507241 C11.4090345,24.6293448 11.2824828,24.6083103 11.1566207,24.5876207 C10.8745517,24.5414138 10.5928276,24.4948621 10.3128276,24.4400345 C7.91903448,23.971069 6.06213793,23.2300345 4.46834483,22.1072759 C2.67558621,20.8441724 1.65455172,19.2962414 1.34731034,17.3745172 C0.995241379,15.1717586 0.992482759,12.991069 1.33937931,10.8945172 C1.53696552,9.69831034 1.92662069,8.18313793 3.19282759,7.06831034 C3.21937931,7.04486207 3.28213793,6.98968966 3.22041379,6.82175862 C2.82317241,5.74072414 2.70386207,4.55106897 2.85558621,3.18486207 C2.90731034,2.72210345 3.00455172,2.11003448 3.30144828,1.4752069 L3.52317241,1.00210345 L4.03006897,1.12831034 C4.18282759,1.16624138 4.33489655,1.20175862 4.48662069,1.23762069 C4.82558621,1.31762069 5.17593103,1.40003448 5.52213793,1.50382759 C6.97041379,1.93693103 8.18627586,2.76658621 9.25868966,3.49831034 C9.45041379,3.62934483 9.60558621,3.66003448 9.83006897,3.61313793 C10.0545517,3.56624138 10.2786897,3.51762069 10.5028276,3.469 C11.3414483,3.28796552 12.2083448,3.10072414 13.0845517,2.99072414 C15.5131724,2.68589655 17.475931,2.7652069 19.260069,3.23968966 C19.8917931,3.40762069 20.5028276,3.5427931 21.0297241,3.36175862 C21.4869655,3.20382759 21.9755862,2.96175862 22.5673103,2.60037931 C22.6642069,2.54106897 22.7604138,2.48106897 22.8566207,2.42072414 C23.3786897,2.09382759 23.9186897,1.75555172 24.5707586,1.56831034 C24.9835172,1.44968966 25.4035172,1.34968966 25.8097241,1.2527931 C25.9897241,1.20968966 26.170069,1.16658621 26.3514483,1.12175862 L26.9314483,0.977965517 L27.1469655,1.66210345 C27.1707586,1.73658621 27.1883448,1.79175862 27.2035172,1.84762069 C27.6324828,3.43831034 27.6628276,4.8827931 27.2955862,6.2627931 C27.2266207,6.52210345 27.2876552,6.63762069 27.4242069,6.76037931 C28.1962759,7.45313793 28.7569655,8.35934483 29.1376552,9.53003448 C29.9624828,12.0634828 30.1542069,14.6845172 29.7076552,17.3193448 L29.6907586,17.4196897 C29.6035172,17.9393448 29.5045517,18.5286552 29.2535172,19.059 C28.7069655,20.2158966 27.8352414,21.2514138 26.6631724,22.1358966 C24.8969655,23.4696897 22.8145517,24.2434828 20.2969655,24.5017586 C20.1804138,24.5138276 20.0635172,24.5255517 19.9476552,24.5431379 C19.7728276,24.5700345 19.6342069,24.666931 19.568,24.8093448 C19.5307586,24.8886552 19.4866207,25.0507241 19.6048966,25.2452069 C19.7890345,25.5472759 19.9924828,25.8379655 20.2076552,26.1455517 C20.3166207,26.3014138 20.4255862,26.456931 20.5321379,26.6145172 C20.828,27.0517586 21.2231724,27.7300345 21.238,28.5652069 C21.2545517,29.5283103 21.2642069,30.5641724 21.2197241,31.6148621 C21.2124828,31.7865862 21.2042069,31.9586552 21.1962759,32.1303793 C21.1442069,33.2441724 21.0952414,34.2962414 21.2428276,35.3486552 C21.3666207,36.2286552 21.6704138,36.8438276 22.1983448,37.2848621 C22.4366207,37.4834828 22.6676552,37.6903793 22.8911034,37.8907241 C23.0317931,38.0165862 23.1724828,38.1424483 23.3148966,38.2662414 C23.3338621,38.2831379 23.3628276,38.301069 23.3935172,38.3145172 C23.5621379,38.3896897 23.7852414,38.331069 23.9124828,38.176931 C24.0324828,38.0314138 24.0855862,37.7900345 23.9469655,37.6293448 C23.685931,37.3265862 23.3576552,37.0583103 23.0414483,36.8131379 C22.7207586,36.5648621 22.2866207,36.1558966 22.2221379,35.4803793 C22.2114483,35.3672759 22.1997241,35.2538276 22.188,35.1403793 C22.1435172,34.7117586 22.0973103,34.2686552 22.0997241,33.8158966 C22.1048966,32.9493448 22.1235172,32.0714138 22.1414483,31.2221034 C22.1548966,30.579 22.1686897,29.9358966 22.1766207,29.2927931 C22.1921379,28.0579655 21.9552414,27.1103793 21.4314483,26.3100345 C21.3593793,26.2000345 21.3348966,26.0965862 21.3231724,26.046931 L21.1317931,25.4103793 L21.7755862,25.2427931 C21.9090345,25.209 22.0417931,25.176931 22.1731724,25.1455517 C22.4517931,25.0779655 22.7148966,25.0141724 22.9735172,24.9393448 C25.8538621,24.1052069 27.9845517,22.6424483 29.488,20.4679655 L29.5048966,20.4434828 Z" id="Fill-1" fill="#505050"></path>
                <path d="M29.5048966,20.4434828 C29.8048966,20.0103793 30.1148966,19.5621034 30.2252414,19.1324483 C30.4645517,18.2024483 30.6362759,17.2072759 30.750069,16.0893448 C30.9269655,14.3517586 30.8121379,12.5496897 30.4083448,10.7334828 C30.1531724,9.58727586 29.7817931,8.26934483 28.9614483,7.18417241 C28.4635172,6.52589655 28.2928276,5.90727586 28.390069,5.11451724 C28.5752414,3.60727586 28.3462759,2.06934483 27.7097241,0.543482759 C27.5742069,0.219 27.440069,0.166241379 27.2090345,0.178310345 C25.2969655,0.269344828 23.738,0.736241379 22.4438621,1.60589655 C22.0035172,1.90141379 21.6355862,2.12831034 21.2869655,2.31865517 C20.9669655,2.49348276 20.6221379,2.50727586 20.4469655,2.50175862 C20.2152414,2.49313793 20.0038621,2.4552069 19.7993793,2.41865517 C19.7297241,2.40624138 19.660069,2.39382759 19.590069,2.3827931 C19.2976552,2.33693103 19.005931,2.28451724 18.7138621,2.23210345 C18.0873103,2.11934483 17.4955862,2.0127931 16.8990345,1.97175862 C14.658,1.81624138 12.3807586,2.02175862 10.1324828,2.5827931 C9.75593103,2.67624138 9.41041379,2.50106897 9.31351724,2.44486207 C9.02627586,2.27968966 8.74110345,2.10865517 8.45593103,1.93762069 C8.04317241,1.69003448 7.61627586,1.43382759 7.19248276,1.20348276 C6.05765517,0.585896552 4.79455172,0.249 3.33213793,0.173827586 C3.0317931,0.160034483 2.92144828,0.252793103 2.82248276,0.432793103 C2.79213793,0.488310345 2.75937931,0.542793103 2.72662069,0.596931034 C2.688,0.660724138 2.65144828,0.720724138 2.62868966,0.770034483 C1.89662069,2.3552069 1.71110345,4.05003448 2.0617931,5.95141379 C2.11903448,6.26037931 2.23731034,6.90348276 1.66662069,7.41141379 C1.66765517,7.41313793 1.64041379,7.45968966 1.62041379,7.49348276 C1.60213793,7.52486207 1.58351724,7.55624138 1.56455172,7.58658621 C0.890068966,8.6652069 0.485241379,9.97037931 0.290413793,11.6934828 C0.0635172414,13.7027931 0.163862069,15.8172759 0.589034483,17.9786552 C0.710068966,18.5931379 0.828,19.1407241 1.048,19.6207241 C1.40868966,20.406931 1.99144828,21.1655517 2.82972414,21.9393448 C4.31972414,23.3155517 6.16868966,24.296931 8.48144828,24.9403793 C8.78524138,25.0252069 9.098,25.101069 9.40041379,25.1745172 C9.5417931,25.2086552 9.6817931,25.2424483 9.81903448,25.276931 L10.4414483,25.4327931 L10.1383448,26.5958966 C9.90455172,27.4921034 9.67317241,28.3817586 9.43558621,29.2696897 C9.348,29.6014138 9.04282759,29.8083103 8.79593103,29.859 C7.72489655,30.0803793 6.56834483,30.2707241 5.37455172,30.1731379 C3.67765517,30.0334828 2.99386207,29.0252069 2.71903448,28.2041724 C2.69006897,28.1179655 2.65558621,28.0331379 2.6217931,27.9479655 L2.5742069,27.8286552 C2.30593103,27.1414138 2.07041379,26.5772759 1.69006897,26.0893448 C1.51524138,25.8655517 1.25524138,25.8055517 1.05765517,25.9431379 C0.828344828,26.1024483 0.789034483,26.3565862 0.952482759,26.6227931 C1.13317241,26.9162414 1.30524138,27.2376207 1.47868966,27.6041724 C1.58351724,27.8258966 1.68075862,28.051069 1.778,28.2765862 C1.88903448,28.5341724 1.9942069,28.7779655 2.11075862,29.0162414 C2.65662069,30.1331379 3.54317241,30.7934828 4.82006897,31.0355517 C5.45558621,31.1555517 6.10972414,31.0979655 6.80213793,31.0365862 L6.8842069,31.0293448 C7.21489655,31.0003793 7.54386207,30.9600345 7.89282759,30.9176207 C8.05248276,30.8983103 8.2142069,30.8786552 8.37834483,30.8600345 L9.08627586,30.7783103 L9.08558621,31.6265862 C9.08489655,31.7058966 9.0842069,31.7779655 9.08662069,31.8503793 C9.09593103,32.1762414 9.10627586,32.5014138 9.11662069,32.8265862 C9.13834483,33.5034828 9.16075862,34.2031379 9.17317241,34.8938276 C9.19144828,35.9086552 8.80834483,36.5872759 8.0342069,36.9124483 C7.59006897,37.2283103 7.33765517,37.5721034 7.24041379,37.9931379 C7.18524138,38.2314138 7.30110345,38.4327931 7.53627586,38.5062414 C7.68489655,38.5531379 7.95731034,38.5748621 8.02972414,38.361069 C8.19213793,37.8821034 8.50558621,37.651069 8.72731034,37.5186552 C8.80731034,37.4707241 8.9117931,37.4072759 9.008,37.339 C9.4917931,36.9965862 9.76731034,36.6055517 9.8742069,36.1083103 C10.0866207,35.1221034 10.0673103,34.1186552 10.0469655,33.0562414 L10.040069,32.6914138 C10.0369655,32.5034828 10.028,32.3152069 10.0190345,32.1272759 C9.98558621,31.4352069 9.95144828,30.7193448 10.1804138,29.9658966 C10.3369655,29.451069 10.4776552,28.9152069 10.6138621,28.396931 C10.755931,27.8555517 10.9028276,27.2962414 11.0707586,26.7465862 C11.2304138,26.2252069 11.5317931,25.7814138 11.7562759,25.501069 C11.980069,25.2217586 11.9631724,25.0845172 11.9235172,24.956931 C11.8748966,24.8003793 11.7931724,24.6948621 11.5352414,24.6507241 C11.4090345,24.6293448 11.2824828,24.6083103 11.1566207,24.5876207 C10.8745517,24.5414138 10.5928276,24.4948621 10.3128276,24.4400345 C7.91903448,23.971069 6.06213793,23.2300345 4.46834483,22.1072759 C2.67558621,20.8441724 1.65455172,19.2962414 1.34731034,17.3745172 C0.995241379,15.1717586 0.992482759,12.991069 1.33937931,10.8945172 C1.53696552,9.69831034 1.92662069,8.18313793 3.19282759,7.06831034 C3.21937931,7.04486207 3.28213793,6.98968966 3.22041379,6.82175862 C2.82317241,5.74072414 2.70386207,4.55106897 2.85558621,3.18486207 C2.90731034,2.72210345 3.00455172,2.11003448 3.30144828,1.4752069 L3.52317241,1.00210345 L4.03006897,1.12831034 C4.18282759,1.16624138 4.33489655,1.20175862 4.48662069,1.23762069 C4.82558621,1.31762069 5.17593103,1.40003448 5.52213793,1.50382759 C6.97041379,1.93693103 8.18627586,2.76658621 9.25868966,3.49831034 C9.45041379,3.62934483 9.60558621,3.66003448 9.83006897,3.61313793 C10.0545517,3.56624138 10.2786897,3.51762069 10.5028276,3.469 C11.3414483,3.28796552 12.2083448,3.10072414 13.0845517,2.99072414 C15.5131724,2.68589655 17.475931,2.7652069 19.260069,3.23968966 C19.8917931,3.40762069 20.5028276,3.5427931 21.0297241,3.36175862 C21.4869655,3.20382759 21.9755862,2.96175862 22.5673103,2.60037931 C22.6642069,2.54106897 22.7604138,2.48106897 22.8566207,2.42072414 C23.3786897,2.09382759 23.9186897,1.75555172 24.5707586,1.56831034 C24.9835172,1.44968966 25.4035172,1.34968966 25.8097241,1.2527931 C25.9897241,1.20968966 26.170069,1.16658621 26.3514483,1.12175862 L26.9314483,0.977965517 L27.1469655,1.66210345 C27.1707586,1.73658621 27.1883448,1.79175862 27.2035172,1.84762069 C27.6324828,3.43831034 27.6628276,4.8827931 27.2955862,6.2627931 C27.2266207,6.52210345 27.2876552,6.63762069 27.4242069,6.76037931 C28.1962759,7.45313793 28.7569655,8.35934483 29.1376552,9.53003448 C29.9624828,12.0634828 30.1542069,14.6845172 29.7076552,17.3193448 L29.6907586,17.4196897 C29.6035172,17.9393448 29.5045517,18.5286552 29.2535172,19.059 C28.7069655,20.2158966 27.8352414,21.2514138 26.6631724,22.1358966 C24.8969655,23.4696897 22.8145517,24.2434828 20.2969655,24.5017586 C20.1804138,24.5138276 20.0635172,24.5255517 19.9476552,24.5431379 C19.7728276,24.5700345 19.6342069,24.666931 19.568,24.8093448 C19.5307586,24.8886552 19.4866207,25.0507241 19.6048966,25.2452069 C19.7890345,25.5472759 19.9924828,25.8379655 20.2076552,26.1455517 C20.3166207,26.3014138 20.4255862,26.456931 20.5321379,26.6145172 C20.828,27.0517586 21.2231724,27.7300345 21.238,28.5652069 C21.2545517,29.5283103 21.2642069,30.5641724 21.2197241,31.6148621 C21.2124828,31.7865862 21.2042069,31.9586552 21.1962759,32.1303793 C21.1442069,33.2441724 21.0952414,34.2962414 21.2428276,35.3486552 C21.3666207,36.2286552 21.6704138,36.8438276 22.1983448,37.2848621 C22.4366207,37.4834828 22.6676552,37.6903793 22.8911034,37.8907241 C23.0317931,38.0165862 23.1724828,38.1424483 23.3148966,38.2662414 C23.3338621,38.2831379 23.3628276,38.301069 23.3935172,38.3145172 C23.5621379,38.3896897 23.7852414,38.331069 23.9124828,38.176931 C24.0324828,38.0314138 24.0855862,37.7900345 23.9469655,37.6293448 C23.685931,37.3265862 23.3576552,37.0583103 23.0414483,36.8131379 C22.7207586,36.5648621 22.2866207,36.1558966 22.2221379,35.4803793 C22.2114483,35.3672759 22.1997241,35.2538276 22.188,35.1403793 C22.1435172,34.7117586 22.0973103,34.2686552 22.0997241,33.8158966 C22.1048966,32.9493448 22.1235172,32.0714138 22.1414483,31.2221034 C22.1548966,30.579 22.1686897,29.9358966 22.1766207,29.2927931 C22.1921379,28.0579655 21.9552414,27.1103793 21.4314483,26.3100345 C21.3593793,26.2000345 21.3348966,26.0965862 21.3231724,26.046931 L21.1317931,25.4103793 L21.7755862,25.2427931 C21.9090345,25.209 22.0417931,25.176931 22.1731724,25.1455517 C22.4517931,25.0779655 22.7148966,25.0141724 22.9735172,24.9393448 C25.8538621,24.1052069 27.9845517,22.6424483 29.488,20.4679655 L29.5048966,20.4434828 Z" id="Stroke-3" stroke="#505050" stroke-width="0.5"></path>
                <path d="M14.5505862,28.7891379 C14.5798966,28.0712069 14.6095517,27.3291379 14.6185172,26.6032759 C14.620931,26.4287931 14.5792069,26.2415517 14.5098966,26.1136207 C14.4495517,26.0015517 14.3188621,25.9532759 14.1864483,25.9532759 C14.1364483,25.9532759 14.0861034,25.9601724 14.0392069,25.972931 C13.8878276,26.015 13.7236897,26.2122414 13.7112759,26.4705172 C13.6902414,26.9043103 13.6754138,27.3381034 13.660931,27.7715517 C13.6540345,27.9815517 13.6467931,28.1915517 13.6388621,28.4015517 C13.5492069,30.8163793 13.4392069,33.3853448 13.1740345,35.9060345 C13.0495517,37.0877586 12.4874828,38.0825862 11.4554138,38.947069 C11.2226552,39.1418966 11.2198966,39.2856897 11.2354138,39.4046552 C11.2592069,39.5860345 11.3612759,39.7236207 11.5154138,39.7822414 C11.6733448,39.8422414 11.8495517,39.8025862 11.9985172,39.6739655 C13.2795517,38.5663793 13.8961034,37.5284483 13.9974828,36.3084483 C14.1292069,34.7253448 14.273,33.1177586 14.4119655,31.5632759 L14.530931,30.2260345 L14.4961034,30.222931 L14.5181724,29.622931 C14.5281724,29.345 14.5395517,29.067069 14.5505862,28.7891379" id="Fill-5" fill="#505050"></path>
                <path d="M14.5505862,28.7891379 C14.5798966,28.0712069 14.6095517,27.3291379 14.6185172,26.6032759 C14.620931,26.4287931 14.5792069,26.2415517 14.5098966,26.1136207 C14.4495517,26.0015517 14.3188621,25.9532759 14.1864483,25.9532759 C14.1364483,25.9532759 14.0861034,25.9601724 14.0392069,25.972931 C13.8878276,26.015 13.7236897,26.2122414 13.7112759,26.4705172 C13.6902414,26.9043103 13.6754138,27.3381034 13.660931,27.7715517 C13.6540345,27.9815517 13.6467931,28.1915517 13.6388621,28.4015517 C13.5492069,30.8163793 13.4392069,33.3853448 13.1740345,35.9060345 C13.0495517,37.0877586 12.4874828,38.0825862 11.4554138,38.947069 C11.2226552,39.1418966 11.2198966,39.2856897 11.2354138,39.4046552 C11.2592069,39.5860345 11.3612759,39.7236207 11.5154138,39.7822414 C11.6733448,39.8422414 11.8495517,39.8025862 11.9985172,39.6739655 C13.2795517,38.5663793 13.8961034,37.5284483 13.9974828,36.3084483 C14.1292069,34.7253448 14.273,33.1177586 14.4119655,31.5632759 L14.530931,30.2260345 L14.4961034,30.222931 L14.5181724,29.622931 C14.5281724,29.345 14.5395517,29.067069 14.5505862,28.7891379 Z" id="Stroke-7" stroke="#505050" stroke-width="0.5"></path>
                <path d="M17.0957241,27.5118966 C17.0926207,27.8218966 17.0898621,28.1146552 17.1002069,28.4081034 C17.1815862,30.7043103 17.2950345,33.3708621 17.6136552,35.9643103 C17.7236552,36.8601724 17.8712414,37.7181034 18.461931,38.3684483 C18.584,38.5032759 18.704,38.6405172 18.8236552,38.7777586 C19.1157241,39.1122414 19.3908966,39.4281034 19.6953793,39.6994828 C19.8098621,39.8012069 19.9284828,39.8136207 20.0084828,39.805 C20.124,39.792931 20.2298621,39.7325862 20.2991724,39.6391379 C20.4733103,39.4043103 20.5126207,39.2074138 20.1722759,38.9518966 C19.9477931,38.7832759 19.7636552,38.6025862 19.6246897,38.4143103 C19.5526207,38.3167241 19.4753793,38.2215517 19.3977931,38.1260345 C19.0877931,37.7443103 18.7367586,37.3115517 18.6295172,36.7025862 C18.4929655,35.9253448 18.3591724,35.0881034 18.3036552,34.2325862 C18.1998621,32.6332759 18.1177931,31.0081034 18.0384828,29.4363793 C18.0105517,28.8832759 17.9826207,28.3308621 17.9536552,27.7781034 C17.9436552,27.5887931 17.9377931,27.3984483 17.931931,27.2084483 C17.9222759,26.8853448 17.9129655,26.5801724 17.8833103,26.2787931 C17.8774483,26.2187931 17.8257241,26.1218966 17.7233103,26.0401724 C17.6171034,25.9553448 17.5146897,25.9315517 17.4726207,25.9377586 C17.2405517,25.9674138 16.9995172,26.1036207 17.0195172,26.3981034 C17.0205517,26.4132759 17.0215862,26.4284483 17.0226207,26.4436207 L17.0984828,26.4436207 L17.0984828,27.0787931 C17.0984828,27.2232759 17.0971034,27.3674138 17.0957241,27.5118966" id="Fill-9" fill="#505050"></path>
                <path d="M17.0957241,27.5118966 C17.0926207,27.8218966 17.0898621,28.1146552 17.1002069,28.4081034 C17.1815862,30.7043103 17.2950345,33.3708621 17.6136552,35.9643103 C17.7236552,36.8601724 17.8712414,37.7181034 18.461931,38.3684483 C18.584,38.5032759 18.704,38.6405172 18.8236552,38.7777586 C19.1157241,39.1122414 19.3908966,39.4281034 19.6953793,39.6994828 C19.8098621,39.8012069 19.9284828,39.8136207 20.0084828,39.805 C20.124,39.792931 20.2298621,39.7325862 20.2991724,39.6391379 C20.4733103,39.4043103 20.5126207,39.2074138 20.1722759,38.9518966 C19.9477931,38.7832759 19.7636552,38.6025862 19.6246897,38.4143103 C19.5526207,38.3167241 19.4753793,38.2215517 19.3977931,38.1260345 C19.0877931,37.7443103 18.7367586,37.3115517 18.6295172,36.7025862 C18.4929655,35.9253448 18.3591724,35.0881034 18.3036552,34.2325862 C18.1998621,32.6332759 18.1177931,31.0081034 18.0384828,29.4363793 C18.0105517,28.8832759 17.9826207,28.3308621 17.9536552,27.7781034 C17.9436552,27.5887931 17.9377931,27.3984483 17.931931,27.2084483 C17.9222759,26.8853448 17.9129655,26.5801724 17.8833103,26.2787931 C17.8774483,26.2187931 17.8257241,26.1218966 17.7233103,26.0401724 C17.6171034,25.9553448 17.5146897,25.9315517 17.4726207,25.9377586 C17.2405517,25.9674138 16.9995172,26.1036207 17.0195172,26.3981034 C17.0205517,26.4132759 17.0215862,26.4284483 17.0226207,26.4436207 L17.0984828,26.4436207 L17.0984828,27.0787931 C17.0984828,27.2232759 17.0971034,27.3674138 17.0957241,27.5118966 Z" id="Stroke-11" stroke="#505050" stroke-width="0.5"></path>
            </g>
        </g>
    </g>
</svg>