<?xml version="1.0" encoding="UTF-8"?>
<svg width="33px" height="33px" viewBox="0 0 33 33" version="1.1" xmlns="http://www.w3.org/2000/svg" xmlns:xlink="http://www.w3.org/1999/xlink">
    <!-- Generator: Sketch 43.2 (39069) - http://www.bohemiancoding.com/sketch -->
    <title>decode-file.1</title>
    <desc>Created with Sketch.</desc>
    <defs></defs>
    <g id="dashboard-hifi" stroke="none" stroke-width="1" fill="none" fill-rule="evenodd">
        <g id="Homepage-r4-Copy-3" transform="translate(-945.000000, -1712.000000)" fill-rule="nonzero" fill="#505050">
            <g id="decode-file.1" transform="translate(945.500000, 1712.500000)">
                <g id="Group" transform="translate(14.083333, 7.583333)">
                    <path d="M17.875,24.9166667 L0.541666667,24.9166667 C0.216666667,24.9166667 0,24.7 0,24.375 L0,9.20833333 C0,9.1 0.108333333,8.88333333 0.108333333,8.775 L8.775,0.108333333 C8.88333333,0.108333333 9.1,0 9.20833333,0 L17.875,0 C18.2,0 18.4166667,0.216666667 18.4166667,0.541666667 L18.4166667,24.375 C18.4166667,24.7 18.2,24.9166667 17.875,24.9166667 Z M1.08333333,23.8333333 L17.3333333,23.8333333 L17.3333333,1.08333333 L9.425,1.08333333 L1.08333333,9.425 L1.08333333,23.8333333 Z" id="Shape"></path>
                    <path d="M9.20833333,9.75 L0.541666667,9.75 C0.216666667,9.75 0,9.53333333 0,9.20833333 C0,8.88333333 0.216666667,8.66666667 0.541666667,8.66666667 L8.66666667,8.66666667 L8.66666667,0.541666667 C8.66666667,0.216666667 8.88333333,0 9.20833333,0 C9.53333333,0 9.75,0.216666667 9.75,0.541666667 L9.75,9.20833333 C9.75,9.53333333 9.53333333,9.75 9.20833333,9.75 Z" id="Shape"></path>
                </g>
                <path d="M8.125,27.0833333 C8.01666667,27.0833333 7.8,27.0833333 7.69166667,26.975 C7.475,26.7583333 7.475,26.4333333 7.69166667,26.2166667 L8.99166667,24.9166667 L4.33333333,24.9166667 C2.49166667,24.9166667 1.08333333,23.5083333 1.08333333,21.6666667 L1.08333333,16.7916667 C1.08333333,16.4666667 1.3,16.25 1.625,16.25 C1.95,16.25 2.16666667,16.4666667 2.16666667,16.7916667 L2.16666667,21.6666667 C2.16666667,22.8583333 3.14166667,23.8333333 4.33333333,23.8333333 L10.2916667,23.8333333 C10.5083333,23.8333333 10.725,23.9416667 10.8333333,24.1583333 C10.9416667,24.375 10.8333333,24.5916667 10.725,24.7 L8.55833333,26.8666667 C8.45,27.0833333 8.23333333,27.0833333 8.125,27.0833333 Z" id="Shape"></path>
                <path d="M10.2916667,24.9166667 C10.1833333,24.9166667 9.96666667,24.9166667 9.85833333,24.8083333 L7.69166667,22.6416667 C7.475,22.425 7.475,22.1 7.69166667,21.8833333 C7.90833333,21.6666667 8.23333333,21.6666667 8.45,21.8833333 L10.6166667,24.05 C10.8333333,24.2666667 10.8333333,24.5916667 10.6166667,24.8083333 C10.6166667,24.9166667 10.4,24.9166667 10.2916667,24.9166667 Z" id="Shape"></path>
                <path d="M13.5416667,14.0833333 C13.2166667,14.0833333 13,13.8666667 13,13.5416667 L13,0.541666667 C13,0.216666667 13.2166667,0 13.5416667,0 C13.8666667,0 14.0833333,0.216666667 14.0833333,0.541666667 L14.0833333,13.5416667 C14.0833333,13.8666667 13.8666667,14.0833333 13.5416667,14.0833333 Z" id="Shape"></path>
                <path d="M11.375,11.9166667 C11.05,11.9166667 10.8333333,11.7 10.8333333,11.375 L10.8333333,0.541666667 C10.8333333,0.216666667 11.05,0 11.375,0 C11.7,0 11.9166667,0.216666667 11.9166667,0.541666667 L11.9166667,11.375 C11.9166667,11.7 11.7,11.9166667 11.375,11.9166667 Z" id="Shape"></path>
                <path d="M9.20833333,11.9166667 C8.88333333,11.9166667 8.66666667,11.7 8.66666667,11.375 L8.66666667,0.541666667 C8.66666667,0.216666667 8.88333333,0 9.20833333,0 C9.53333333,0 9.75,0.216666667 9.75,0.541666667 L9.75,11.375 C9.75,11.7 9.53333333,11.9166667 9.20833333,11.9166667 Z" id="Shape"></path>
                <path d="M7.04166667,14.0833333 C6.71666667,14.0833333 6.5,13.8666667 6.5,13.5416667 L6.5,0.541666667 C6.5,0.216666667 6.71666667,0 7.04166667,0 C7.36666667,0 7.58333333,0.216666667 7.58333333,0.541666667 L7.58333333,13.5416667 C7.58333333,13.8666667 7.36666667,14.0833333 7.04166667,14.0833333 Z" id="Shape"></path>
                <path d="M0.541666667,14.0833333 C0.216666667,14.0833333 0,13.8666667 0,13.5416667 L0,0.541666667 C0,0.216666667 0.216666667,0 0.541666667,0 C0.866666667,0 1.08333333,0.216666667 1.08333333,0.541666667 L1.08333333,13.5416667 C1.08333333,13.8666667 0.866666667,14.0833333 0.541666667,14.0833333 Z" id="Shape"></path>
                <path d="M4.875,11.9166667 C4.55,11.9166667 4.33333333,11.7 4.33333333,11.375 L4.33333333,0.541666667 C4.33333333,0.216666667 4.55,0 4.875,0 C5.2,0 5.41666667,0.216666667 5.41666667,0.541666667 L5.41666667,11.375 C5.41666667,11.7 5.2,11.9166667 4.875,11.9166667 Z" id="Shape"></path>
                <path d="M2.70833333,11.9166667 C2.38333333,11.9166667 2.16666667,11.7 2.16666667,11.375 L2.16666667,0.541666667 C2.16666667,0.216666667 2.38333333,0 2.70833333,0 C3.03333333,0 3.25,0.216666667 3.25,0.541666667 L3.25,11.375 C3.25,11.7 3.03333333,11.9166667 2.70833333,11.9166667 Z" id="Shape"></path>
                <circle id="Oval" cx="9.20833333" cy="13.5416667" r="1"></circle>
                <circle id="Oval" cx="11.375" cy="13.5416667" r="1"></circle>
                <circle id="Oval" cx="2.70833333" cy="13.5416667" r="1"></circle>
                <circle id="Oval" cx="4.875" cy="13.5416667" r="1"></circle>
            </g>
        </g>
    </g>
</svg>