<?xml version="1.0" encoding="UTF-8"?>
<svg width="20px" height="20px" viewBox="0 0 20 20" version="1.1" xmlns="http://www.w3.org/2000/svg" xmlns:xlink="http://www.w3.org/1999/xlink">
    <!-- Generator: Sketch 43.2 (39069) - http://www.bohemiancoding.com/sketch -->
    <title>Shape</title>
    <desc>Created with Sketch.</desc>
    <defs></defs>
    <g id="dashboard-hifi" stroke="none" stroke-width="1" fill="none" fill-rule="evenodd">
        <g id="7)-Model-Snapshot---Summary" transform="translate(-328.000000, -25.000000)" fill-rule="nonzero" fill="#CACACA">
            <g id="Group-2">
                <g id="search" transform="translate(328.500000, 25.500000)">
                    <g id="Layer_1">
                        <path d="M13.6173913,12.626087 L13.7826087,12.4173913 C14.8411678,11.0772232 15.4198314,9.42083707 15.426087,7.71304348 C15.426087,3.45324719 11.9728398,-6.84838659e-16 7.71304348,0 C3.45324719,6.86347114e-16 5.21674589e-16,3.45324719 0,7.71304348 C-5.21674589e-16,11.9728398 3.45324719,15.426087 7.71304348,15.426087 C9.42106763,15.4211771 11.0778807,14.8423643 12.4173913,13.7826087 L12.626087,13.6173913 L12.8173913,13.8 L18.2608696,19.226087 C18.5372649,19.4933434 18.9757785,19.4933434 19.2521739,19.226087 C19.3849446,19.095334 19.4597064,18.9167796 19.4597064,18.7304348 C19.4597064,18.54409 19.3849446,18.3655356 19.2521739,18.2347826 L13.6173913,12.626087 Z M7.71304348,14.0173913 C4.22644584,14.0173913 1.4,11.1909455 1.4,7.70434783 C1.4,4.21775019 4.22644584,1.39130435 7.71304348,1.39130435 C11.1996411,1.39130435 14.026087,4.21775019 14.026087,7.70434783 C14.0212971,11.1889595 11.1976552,14.0126015 7.71304348,14.0173913 L7.71304348,14.0173913 Z" id="Shape"></path>
                    </g>
                </g>
            </g>
        </g>
    </g>
</svg>