<?xml version="1.0" encoding="UTF-8"?>
<svg width="35px" height="36px" viewBox="0 0 35 36" version="1.1" xmlns="http://www.w3.org/2000/svg" xmlns:xlink="http://www.w3.org/1999/xlink">
    <!-- Generator: Sketch 46.2 (44496) - http://www.bohemiancoding.com/sketch -->
    <title>Page 1</title>
    <desc>Created with Sketch.</desc>
    <defs></defs>
    <g id="dashboard-hifi" stroke="none" stroke-width="1" fill="none" fill-rule="evenodd">
        <g id="Homepage-r4" transform="translate(-944.000000, -1296.000000)" fill="#505050">
            <g id="Page-1" transform="translate(944.000000, 1296.500000)">
                <path d="M0.795454545,0 C0.355767045,0 0,0.355778977 0,0.795454545 L0,30.9980682 C0,31.4362045 0.355778977,31.7935227 0.795454545,31.7935227 L9.44602273,31.7935227 L9.44602273,34.2047459 C9.44602273,34.6428823 9.8018017,35.0002005 10.2414773,35.0002005 L34.2045455,35.0002005 C34.644233,35.0002005 35,34.6428664 35,34.2047459 L35,4.00213068 C35,3.56244318 34.644221,3.20667614 34.2045455,3.20667614 L25.5663068,3.20667614 L25.5663068,0.795454545 C25.5663068,0.355767045 25.2105278,0 24.7708523,0 L0.795454545,0 Z M1.59090909,1.59090909 L23.9753977,1.59090909 L23.9753977,3.20667614 L10.2414773,3.20667614 C9.80178977,3.20667614 9.44602273,3.56245511 9.44602273,4.00213068 L9.44602273,30.2024148 L1.59090909,30.2024148 L1.59090909,1.59090909 Z M11.0369318,4.79758523 L33.4090909,4.79758523 L33.4090909,33.4092914 L11.0369318,33.4092914 L11.0369318,4.79758523 Z" id="Fill-1"></path>
                <path d="M12.9555682,9.81272727 C12.7442756,9.80962102 12.5391875,9.8919625 12.3869375,10.0426614 C12.2362347,10.1918091 12.1507869,10.3953341 12.1507869,10.6081898 C12.1507869,10.8210455 12.2362347,11.0245705 12.3869375,11.1737182 C12.5391915,11.3228659 12.7442716,11.4067625 12.9555682,11.4036523 L31.3333523,11.4036523 C31.5446449,11.4067585 31.749733,11.3228659 31.901983,11.1737182 C32.0526858,11.0245705 32.1381335,10.8210455 32.1381335,10.6081898 C32.1381335,10.3953341 32.0526858,10.1918091 31.901983,10.0426614 C31.749729,9.89195852 31.5446489,9.80961705 31.3333523,9.81272727 L12.9571591,9.81272727 L12.9555682,9.81272727 Z" id="Fill-2"></path>
                <path d="M12.9555682,13.7820455 C12.7427205,13.7789392 12.5360852,13.8597256 12.3838352,14.0104284 C12.2315813,14.1595761 12.1461295,14.3646562 12.1461295,14.577508 C12.1461295,14.7919068 12.2315773,14.9954398 12.3838352,15.1461386 C12.5360892,15.2952864 12.7427205,15.3776278 12.9555682,15.3729665 L31.3333523,15.3729665 C31.5462,15.3776278 31.7528352,15.2952864 31.9050852,15.1461386 C32.0573392,14.9954358 32.1427909,14.7919148 32.1427909,14.577508 C32.1427909,14.3646602 32.0573432,14.1595761 31.9050852,14.0104284 C31.7528313,13.8597256 31.5462,13.7789392 31.3333523,13.7820455 L12.9571591,13.7820455 L12.9555682,13.7820455 Z" id="Fill-3"></path>
                <path d="M16.1528977,17.7565341 C15.94005,17.7534278 15.7349659,17.8373205 15.5827159,17.9864682 C15.4320131,18.1356159 15.3465653,18.3391409 15.3465653,18.5519966 C15.3465653,18.7648443 15.4320131,18.9683773 15.5827159,19.117525 C15.7349699,19.2682278 15.94005,19.3505693 16.1528977,19.3474591 L28.1376136,19.3474591 C28.3489063,19.3505653 28.5539943,19.2682239 28.7062443,19.117525 C28.8569472,18.9683773 28.9423949,18.7648523 28.9423949,18.5519966 C28.9423949,18.3391489 28.8569472,18.1356159 28.7062443,17.9864682 C28.5539903,17.8373205 28.3489102,17.7534239 28.1376136,17.7565341 L16.1528977,17.7565341 Z" id="Fill-4"></path>
                <path d="M12.9555682,21.730625 C12.7427205,21.7275187 12.5376364,21.8083051 12.3853864,21.959008 C12.2331324,22.1081557 12.1461295,22.3132318 12.1461295,22.5260875 C12.1461295,22.7389352 12.2331324,22.9440193 12.3853864,23.093167 C12.5376403,23.2423148 12.7427205,23.3246563 12.9555682,23.32155 L31.3333523,23.32155 C31.5462,23.3246563 31.7512841,23.2423148 31.9035341,23.093167 C32.0557881,22.9440193 32.1427909,22.7389432 32.1427909,22.5260875 C32.1427909,22.3132398 32.0557881,22.1081557 31.9035341,21.959008 C31.7512801,21.8083051 31.5462,21.7275187 31.3333523,21.730625 L12.9571591,21.730625 L12.9555682,21.730625 Z" id="Fill-5"></path>
                <path d="M3.90727273,6.23954545 C3.694425,6.23799034 3.49089205,6.32033182 3.33864205,6.46947955 C3.1879392,6.61862727 3.10249148,6.82215227 3.10249148,7.03500795 C3.10249148,7.24786364 3.1879392,7.45138864 3.33864205,7.6020875 C3.49089602,7.75123523 3.69442102,7.8335767 3.90727273,7.83047045 L7.99789773,7.83047045 C8.21074545,7.8335767 8.41582955,7.75123523 8.56807955,7.6020875 C8.71878239,7.45138466 8.80423011,7.24786364 8.80423011,7.03500795 C8.80423011,6.82215227 8.71878239,6.61862727 8.56807955,6.46947955 C8.41582557,6.32033182 8.21074545,6.23799034 7.99789773,6.23954545 L3.90727273,6.23954545 Z" id="Fill-6"></path>
                <path d="M3.90727273,10.2136364 C3.694425,10.2105301 3.48778977,10.2913165 3.33553977,10.4420193 C3.1832858,10.591167 3.09783409,10.7962432 3.09783409,11.0090989 C3.09783409,11.2234977 3.18328182,11.4270307 3.33553977,11.5777295 C3.48779375,11.7268773 3.694425,11.8092187 3.90727273,11.8045574 L7.94659091,11.8045574 C8.15943864,11.8092187 8.36607386,11.7268773 8.51832386,11.5777295 C8.67057784,11.4270267 8.75758068,11.2235057 8.75758068,11.0090989 C8.75758068,10.7962511 8.67057784,10.591167 8.51832386,10.4420193 C8.36606989,10.2913165 8.15943864,10.2105301 7.94659091,10.2136364 L3.90727273,10.2136364 Z" id="Fill-7"></path>
                <path d="M7.10301136,14.1877273 C6.89171875,14.184621 6.68663068,14.2685136 6.53438068,14.4176614 C6.38367784,14.5668091 6.29823011,14.7703341 6.29823011,14.9831898 C6.29823011,15.1960455 6.38367784,15.3995705 6.53438068,15.5487182 C6.68663466,15.699421 6.89171477,15.7817625 7.10301136,15.7786523 L7.22419489,15.7786523 C7.4354875,15.7817585 7.64057557,15.699417 7.79282557,15.5487182 C7.94352841,15.3995705 8.02897614,15.1960455 8.02897614,14.9831898 C8.02897614,14.7703341 7.94352841,14.5668091 7.79282557,14.4176614 C7.64057159,14.2685136 7.43549148,14.184617 7.22419489,14.1877273 L7.10456648,14.1877273 L7.10301136,14.1877273 Z" id="Fill-8"></path>
                <path d="M3.90727273,18.1618182 C3.694425,18.1587119 3.49089205,18.2410534 3.33864205,18.3917562 C3.1879392,18.540904 3.10249148,18.744429 3.10249148,18.9572847 C3.10249148,19.1701324 3.1879392,19.3736653 3.33864205,19.5228131 C3.49089602,19.6719608 3.69442102,19.7558574 3.90727273,19.7527472 L7.99789773,19.7527472 C8.21074545,19.7558534 8.41582955,19.6719608 8.56807955,19.5228131 C8.71878239,19.3736653 8.80423011,19.1701403 8.80423011,18.9572847 C8.80423011,18.7444369 8.71878239,18.540904 8.56807955,18.3917562 C8.41582557,18.2410534 8.21074545,18.1587119 7.99789773,18.1618182 L3.90727273,18.1618182 Z" id="Fill-9"></path>
            </g>
        </g>
    </g>
</svg>