<?xml version="1.0" encoding="UTF-8"?>
<svg width="10px" height="15px" viewBox="0 0 10 15" version="1.1" xmlns="http://www.w3.org/2000/svg" xmlns:xlink="http://www.w3.org/1999/xlink">
    <!-- Generator: Sketch 43.2 (39069) - http://www.bohemiancoding.com/sketch -->
    <title>Group 9</title>
    <desc>Created with Sketch.</desc>
    <defs></defs>
    <g id="dashboard-hifi" stroke="none" stroke-width="1" fill="none" fill-rule="evenodd">
        <g id="3)-Profile-Page---Model" transform="translate(-172.000000, -491.000000)" fill-rule="nonzero" stroke="#979797" fill="#979797">
            <g id="profile" transform="translate(151.000000, 100.000000)">
                <g id="mail.1" transform="translate(20.000000, 392.000000)">
                    <g id="Layer_1">
                        <g id="Group">
                            <g id="Group-3">
                                <g id="Group-9" transform="translate(1.000000, 0.000000)">
                                    <path d="M4.875,6.77083333 C3.68057576,6.77083333 2.70833333,5.79898485 2.70833333,4.60416667 C2.70833333,3.40934848 3.68057576,2.4375 4.875,2.4375 C6.06942424,2.4375 7.04166667,3.40934848 7.04166667,4.60416667 C7.04166667,5.79898485 6.06942424,6.77083333 4.875,6.77083333 Z M4.875,2.83143939 C3.89763636,2.83143939 3.10227273,3.62680303 3.10227273,4.60416667 C3.10227273,5.5815303 3.89763636,6.37689394 4.875,6.37689394 C5.85236364,6.37689394 6.64772727,5.5815303 6.64772727,4.60416667 C6.64772727,3.62680303 5.85236364,2.83143939 4.875,2.83143939 Z" id="Shape" stroke-width="0.5"></path>
                                    <path d="M4.875,13 C4.81216667,13 4.74879167,12.9777917 4.697875,12.9339167 C4.51695833,12.7779167 0.270833333,9.05558333 0.270833333,4.60416667 C0.270833333,2.065375 2.33620833,0 4.875,0 C7.41379167,0 9.47916667,2.065375 9.47916667,4.60416667 C9.47916667,9.05558333 5.23304167,12.7779167 5.052125,12.9339167 C5.00120833,12.9777917 4.93783333,13 4.875,13 Z M4.875,0.541666667 C2.63466667,0.541666667 0.8125,2.36383333 0.8125,4.60416667 C0.8125,8.31025 4.07116667,11.60575 4.875,12.3619167 C5.67829167,11.6052083 8.9375,8.30591667 8.9375,4.60416667 C8.9375,2.36383333 7.11533333,0.541666667 4.875,0.541666667 Z" id="Shape" stroke-width="0.4"></path>
                                </g>
                            </g>
                        </g>
                    </g>
                </g>
            </g>
        </g>
    </g>
</svg>