<?xml version="1.0" encoding="UTF-8"?>
<svg width="13px" height="13px" viewBox="0 0 13 13" version="1.1" xmlns="http://www.w3.org/2000/svg" xmlns:xlink="http://www.w3.org/1999/xlink">
    <!-- Generator: Sketch 43.2 (39069) - http://www.bohemiancoding.com/sketch -->
    <title>Group 14</title>
    <desc>Created with Sketch.</desc>
    <defs></defs>
    <g id="dashboard-hifi" stroke="none" stroke-width="1" fill="none" fill-rule="evenodd">
        <g id="3)-Profile-Page---Model" transform="translate(-170.000000, -538.000000)" stroke-width="0.3" stroke="#FFFFFF" fill="#8A8A8A">
            <g id="profile" transform="translate(151.000000, 100.000000)">
                <g id="mail.1" transform="translate(20.000000, 392.000000)">
                    <g id="Layer_1">
                        <g id="Group">
                            <g id="Group-3">
                                <g id="Group-14" transform="translate(0.000000, 46.000000)">
                                    <path d="M6.06138462,9.25410769 L4.70741538,10.6080769 C4.36907692,10.9464154 3.92255385,11.1309077 3.446,11.1309077 C2.96883077,11.1309077 2.52292308,10.9464154 2.18458462,10.6080769 L1.75369231,10.1771846 C1.41535385,9.83824615 1.23086154,9.39232308 1.23086154,8.91516923 C1.23086154,8.438 1.41535385,7.99209231 1.75369231,7.65375385 L3.55415385,5.85390769 C4.24646154,5.1616 5.38461538,5.1616 6.07692308,5.85390769 L6.72295385,6.49993846 C6.96935385,6.74633846 7.35396923,6.74633846 7.59975385,6.49993846 C7.84615385,6.25353846 7.84615385,5.86892308 7.59975385,5.62313846 L6.95372308,4.97710769 C5.78424615,3.80763077 3.86110769,3.80763077 2.69233846,4.97710769 L0.8768,6.77695385 C0.307692308,7.34606154 0,8.10027692 0,8.91510769 C0,9.73061538 0.307692308,10.4692615 0.8768,11.0383385 L1.30769231,11.4692308 C1.8768,12.0383385 2.63101538,12.3460308 3.43092308,12.3460308 C4.23083077,12.3460308 4.98507692,12.0383385 5.55415385,11.4692308 L6.90812308,10.1152615 C7.15452308,9.86886154 7.15452308,9.48424615 6.90812308,9.23846154 C6.69238462,9.00769231 6.30776923,9.00769231 6.06136923,9.25408615 L6.06138462,9.25410769 Z" id="Fill-1"></path>
                                    <path d="M10.4305538,1.3768 C9.86144615,0.807692308 9.10783077,0.5 8.30732308,0.5 C7.50744615,0.5 6.75316923,0.807692308 6.18409231,1.3768 L5.04587692,2.51501538 C4.79947692,2.76141538 4.79947692,3.14603077 5.04587692,3.39181538 C5.29227692,3.63821538 5.67689231,3.63821538 5.92267692,3.39181538 L7.06089231,2.2536 C7.39923077,1.91526154 7.84575385,1.73076923 8.32230769,1.73076923 C8.79947692,1.73076923 9.24538462,1.91526154 9.58372308,2.2536 L10.0146154,2.68449231 C10.3529538,3.02283077 10.5374462,3.46935385 10.5374462,3.94590769 C10.5374462,4.42307692 10.3529538,4.86898462 10.0146154,5.20732308 L8.43046154,6.77701538 C8.09212308,7.11535385 7.6456,7.29984615 7.16904615,7.29984615 C6.69187692,7.29984615 6.24596923,7.11535385 5.90763077,6.77701538 L5.2616,6.13098462 C5.0152,5.88458462 4.63058462,5.88458462 4.3848,6.13098462 C4.1384,6.37738462 4.1384,6.762 4.3848,7.00778462 L5.03083077,7.65381538 C5.59993846,8.22292308 6.35415385,8.53061538 7.15406154,8.53061538 C7.95393846,8.53061538 8.70821538,8.22292308 9.27729231,7.65381538 L10.8463692,6.08473846 C11.4154769,5.51563077 11.7231692,4.76141538 11.7231692,3.96150769 C11.7231692,3.1616 11.4154769,2.40735385 10.8463692,1.83827692 L10.4305538,1.3768 Z" id="Fill-2"></path>
                                </g>
                            </g>
                        </g>
                    </g>
                </g>
            </g>
        </g>
    </g>
</svg>