<?xml version="1.0" encoding="UTF-8"?>
<svg width="33px" height="33px" viewBox="0 0 33 33" version="1.1" xmlns="http://www.w3.org/2000/svg" xmlns:xlink="http://www.w3.org/1999/xlink">
    <!-- Generator: Sketch 43.2 (39069) - http://www.bohemiancoding.com/sketch -->
    <title>Page 1</title>
    <desc>Created with Sketch.</desc>
    <defs></defs>
    <g id="dashboard-hifi" stroke="none" stroke-width="1" fill="none" fill-rule="evenodd">
        <g id="Homepage-r4" transform="translate(-1698.000000, -5995.000000)" fill="#505050">
            <path d="M1711.54616,6022.09232 C1704.06434,6022.09232 1698,6016.02798 1698,6008.54616 C1698,6001.06434 1704.06434,5995 1711.54616,5995 C1719.02798,5995 1725.09232,6001.06434 1725.09232,6008.54616 C1725.09232,6012.02342 1723.78167,6015.1939 1721.62877,6017.59341 C1721.72601,6017.63176 1721.81777,6017.69065 1721.89583,6017.76871 L1730.76649,6026.37354 C1731.07738,6026.68442 1731.07875,6027.18567 1730.76513,6027.49928 C1730.45424,6027.81017 1729.94889,6027.81017 1729.63938,6027.50065 L1720.76872,6018.89582 C1720.69065,6018.81639 1720.63177,6018.726 1720.59205,6018.62876 C1718.19397,6020.78167 1715.02342,6022.09232 1711.54616,6022.09232 Z M1711.54616,6020.49817 C1718.14727,6020.49817 1723.49814,6015.14731 1723.49814,6008.5462 C1723.49814,6001.94508 1718.14727,5996.59422 1711.54616,5996.59422 C1704.94505,5996.59422 1699.59418,6001.94508 1699.59418,6008.5462 C1699.59418,6015.14731 1704.94505,6020.49817 1711.54616,6020.49817 Z M1717.52285,6004.56232 C1717.52285,6005.00194 1717.16405,6005.35938 1716.72853,6005.35938 L1706.36407,6005.35938 C1705.92582,6005.35938 1705.56975,6005.00467 1705.56975,6004.56232 C1705.56975,6004.12133 1705.92719,6003.76526 1706.36407,6003.76526 L1716.72853,6003.76526 C1717.16678,6003.76526 1717.52285,6004.1186 1717.52285,6004.56232 Z M1715.13165,6008.5462 C1715.13165,6008.98581 1714.77421,6009.34325 1714.33323,6009.34325 L1706.36933,6009.34325 C1705.92698,6009.34325 1705.56954,6008.98855 1705.56954,6008.5462 C1705.56954,6008.10658 1705.92698,6007.74914 1706.36933,6007.74914 L1714.33323,6007.74914 C1714.77421,6007.74914 1715.13165,6008.10248 1715.13165,6008.5462 Z M1713.5375,6012.53007 C1713.5375,6012.96969 1713.18006,6013.32713 1712.74455,6013.32713 L1706.36256,6013.32713 C1705.92568,6013.32713 1705.56961,6012.97379 1705.56961,6012.53007 C1705.56961,6012.09045 1705.92841,6011.73302 1706.36256,6011.73302 L1712.74455,6011.73302 C1713.1828,6011.73302 1713.5375,6012.08635 1713.5375,6012.53007 Z" id="Page-1"></path>
        </g>
    </g>
</svg>