<?xml version="1.0" encoding="UTF-8"?>
<svg width="10px" viewBox="0 0 10 10" version="1.1" xmlns="http://www.w3.org/2000/svg" xmlns:xlink="http://www.w3.org/1999/xlink">
    <!-- Generator: Sketch 43.2 (39069) - http://www.bohemiancoding.com/sketch -->
    <title>Group 12</title>
    <desc>Created with Sketch.</desc>
    <defs></defs>
    <g id="dashboard-hifi" stroke="none" stroke-width="1" fill="none" fill-rule="evenodd">
        <g id="7)-Model-Snapshot---Summary" transform="translate(-948.000000, -637.000000)" fill="#43C5D4">
            <g id="content-box" transform="translate(151.000000, 232.000000)">
                <g id="snapshot" transform="translate(772.500000, 109.000000)">
                    <g id="Group-10" transform="translate(19.500000, 136.500000)">
                        <g id="Group-12" transform="translate(5.000000, 159.000000)">
                            <path d="M5.05115385,7.79508974 L3.92284615,8.92339744 C3.64089744,9.20534615 3.26879487,9.35908974 2.87166667,9.35908974 C2.47402564,9.35908974 2.1024359,9.20534615 1.82048718,8.92339744 L1.46141026,8.56432051 C1.17946154,8.28187179 1.02571795,7.91026923 1.02571795,7.51264103 C1.02571795,7.115 1.17946154,6.74341026 1.46141026,6.46146154 L2.96179487,4.96158974 C3.53871795,4.38466667 4.48717949,4.38466667 5.06410256,4.96158974 L5.60246154,5.49994872 C5.80779487,5.70528205 6.12830769,5.70528205 6.33312821,5.49994872 C6.53846154,5.29461538 6.53846154,4.97410256 6.33312821,4.76928205 L5.79476923,4.23092308 C4.82020513,3.25635897 3.21758974,3.25635897 2.24361538,4.23092308 L0.730666667,5.73079487 C0.256410256,6.20505128 0,6.8335641 0,7.51258974 C0,8.19217949 0.256410256,8.80771795 0.730666667,9.28194872 L1.08974359,9.64102564 C1.564,10.1152821 2.19251282,10.3716923 2.85910256,10.3716923 C3.52569231,10.3716923 4.15423077,10.1152821 4.62846154,9.64102564 L5.75676923,8.51271795 C5.96210256,8.30738462 5.96210256,7.98687179 5.75676923,7.78205128 C5.57698718,7.58974359 5.25647436,7.58974359 5.05114103,7.79507179 L5.05115385,7.79508974 Z" id="Fill-1-Copy"></path>
                            <path d="M8.69212821,1.23066667 C8.21787179,0.756410256 7.58985897,0.5 6.92276923,0.5 C6.25620513,0.5 5.62764103,0.756410256 5.15341026,1.23066667 L4.20489744,2.17917949 C3.9995641,2.38451282 3.9995641,2.70502564 4.20489744,2.90984615 C4.41023077,3.11517949 4.73074359,3.11517949 4.9355641,2.90984615 L5.88407692,1.96133333 C6.16602564,1.67938462 6.53812821,1.52564103 6.93525641,1.52564103 C7.33289744,1.52564103 7.70448718,1.67938462 7.9864359,1.96133333 L8.34551282,2.32041026 C8.62746154,2.60235897 8.78120513,2.97446154 8.78120513,3.37158974 C8.78120513,3.76923077 8.62746154,4.14082051 8.34551282,4.42276923 L7.02538462,5.73084615 C6.7434359,6.01279487 6.37133333,6.16653846 5.97420513,6.16653846 C5.5765641,6.16653846 5.20497436,6.01279487 4.92302564,5.73084615 L4.38466667,5.19248718 C4.17933333,4.98715385 3.85882051,4.98715385 3.654,5.19248718 C3.44866667,5.39782051 3.44866667,5.71833333 3.654,5.92315385 L4.19235897,6.46151282 C4.66661538,6.93576923 5.29512821,7.19217949 5.96171795,7.19217949 C6.62828205,7.19217949 7.25684615,6.93576923 7.73107692,6.46151282 L9.03864103,5.15394872 C9.51289744,4.67969231 9.76930769,4.05117949 9.76930769,3.38458974 C9.76930769,2.718 9.51289744,2.08946154 9.03864103,1.61523077 L8.69212821,1.23066667 Z" id="Fill-2-Copy"></path>
                        </g>
                    </g>
                </g>
            </g>
        </g>
    </g>
</svg>