<?xml version="1.0" encoding="UTF-8"?>
<svg width="9px" height="10px" viewBox="0 0 9 10" version="1.1" xmlns="http://www.w3.org/2000/svg" xmlns:xlink="http://www.w3.org/1999/xlink">
    <!-- Generator: Sketch 43.1 (39012) - http://www.bohemiancoding.com/sketch -->
    <title>I</title>
    <desc>Created with Sketch.</desc>
    <defs></defs>
    <g id="Page-1" stroke="none" stroke-width="1" fill="none" fill-rule="evenodd">
        <g id="Homepage-splash-white-Copy" transform="translate(-1270.000000, -1112.000000)" fill="#505050">
            <g id="footer" transform="translate(0.000000, 1054.000000)">
                <g id="Group-3" transform="translate(151.500000, 48.000000)">
                    <g id="Group-13" transform="translate(1018.000000, 0.000000)">
                        <path d="M101.699295,10 C101.029101,10 100.5,10.5643739 100.5,11.2345679 C100.5,11.9047619 101.029101,12.4514991 101.699295,12.4514991 C102.369489,12.4514991 102.916226,11.9047619 102.916226,11.2345679 C102.916226,10.5643739 102.369489,10 101.699295,10 Z M103.63933,13.1746032 L103.63933,20 L105.614638,20 L105.614638,15.6261023 C105.614638,15.6261023 106.425926,14.8324515 107.20194,15.2733686 C107.36067,15.3262787 107.537037,15.643739 107.537037,15.8377425 L107.537037,20 L109.477072,20 L109.477072,15.8377425 C109.477072,14.9559083 108.947972,14.0035273 108.154321,13.5626102 C107.41358,13.1746032 106.373016,13.1040564 105.614638,13.4920635 L105.614638,13.1746032 L103.63933,13.1746032 Z M102.686949,20 L102.686949,13.1746032 L100.71164,13.1746032 L100.71164,20 L102.686949,20 Z" id="I"></path>
                    </g>
                </g>
            </g>
        </g>
    </g>
</svg>