<?xml version="1.0" encoding="UTF-8"?>
<svg width="34px" height="34px" viewBox="0 0 34 34" version="1.1" xmlns="http://www.w3.org/2000/svg" xmlns:xlink="http://www.w3.org/1999/xlink">
    <!-- Generator: Sketch 43.2 (39069) - http://www.bohemiancoding.com/sketch -->
    <title>tangent.2</title>
    <desc>Created with Sketch.</desc>
    <defs></defs>
    <g id="dashboard-hifi" stroke="none" stroke-width="1" fill="none" fill-rule="evenodd">
        <g id="Homepage-r4-Copy-3" transform="translate(-848.000000, -3094.000000)" fill-rule="nonzero" fill="#505050">
            <g id="tangent.2" transform="translate(848.500000, 3094.500000)">
                <path d="M12.3804348,17.4782609 L16.0217391,17.4782609 L16.0217391,25.4891304 C16.0217391,25.8911304 16.348,26.2173913 16.75,26.2173913 C17.152,26.2173913 17.4782609,25.8911304 17.4782609,25.4891304 L17.4782609,17.4782609 L21.1195652,17.4782609 C21.5215652,17.4782609 21.8478261,17.152 21.8478261,16.75 C21.8478261,16.348 21.5215652,16.0217391 21.1195652,16.0217391 L17.4782609,16.0217391 L17.4782609,0.72826087 C17.4782609,0.32626087 17.152,0 16.75,0 C16.348,0 16.0217391,0.32626087 16.0217391,0.72826087 L16.0217391,16.0217391 L12.3804348,16.0217391 C11.9784348,16.0217391 11.6521739,16.348 11.6521739,16.75 C11.6521739,17.152 11.9784348,17.4782609 12.3804348,17.4782609 Z M6.55434783,16.0217391 L0.72826087,16.0217391 C0.32626087,16.0217391 0,16.348 0,16.75 C0,17.152 0.32626087,17.4782609 0.72826087,17.4782609 L6.55434783,17.4782609 C6.95634783,17.4782609 7.2826087,17.152 7.2826087,16.75 C7.2826087,16.348 6.95634783,16.0217391 6.55434783,16.0217391 Z M32.7717391,16.0217391 L26.9456522,16.0217391 C26.5436522,16.0217391 26.2173913,16.348 26.2173913,16.75 C26.2173913,17.152 26.5436522,17.4782609 26.9456522,17.4782609 L32.7717391,17.4782609 C33.1737391,17.4782609 33.5,17.152 33.5,16.75 C33.5,16.348 33.1737391,16.0217391 32.7717391,16.0217391 Z M31.3152174,5.82608696 C31.7172174,5.82608696 32.0434783,5.49982609 32.0434783,5.09782609 C32.0434783,4.69582609 31.7172174,4.36956522 31.3152174,4.36956522 C26.5509348,4.36956522 24.9822609,10.5015217 23.4645652,16.4310217 C22.0517391,21.9585217 20.5893913,27.673913 16.75,27.673913 C13.1159783,27.673913 11.7526739,22.347413 10.3107174,16.7077609 C8.75952174,10.6428043 7.15443478,4.36956522 2.18478261,4.36956522 C1.78278261,4.36956522 1.45652174,4.69582609 1.45652174,5.09782609 C1.45652174,5.49982609 1.78278261,5.82608696 2.18478261,5.82608696 C6.02417391,5.82608696 7.48652174,11.5414783 8.89934783,17.0689783 C10.4170435,22.9984783 11.9857174,29.1304348 16.75,29.1304348 C21.7196522,29.1304348 23.3247391,22.8571957 24.8759348,16.7922391 C26.3178913,11.152587 27.6811957,5.82608696 31.3152174,5.82608696 Z M16.75,30.5869565 C16.348,30.5869565 16.0217391,30.9132174 16.0217391,31.3152174 L16.0217391,32.7717391 C16.0217391,33.1737391 16.348,33.5 16.75,33.5 C17.152,33.5 17.4782609,33.1737391 17.4782609,32.7717391 L17.4782609,31.3152174 C17.4782609,30.9132174 17.152,30.5869565 16.75,30.5869565 Z" id="Shape"></path>
            </g>
        </g>
    </g>
</svg>