<?xml version="1.0" encoding="UTF-8"?>
<svg width="33px" height="20px" viewBox="0 0 33 20" version="1.1" xmlns="http://www.w3.org/2000/svg" xmlns:xlink="http://www.w3.org/1999/xlink">
    <!-- Generator: Sketch 43.2 (39069) - http://www.bohemiancoding.com/sketch -->
    <title>icon-trending</title>
    <desc>Created with Sketch.</desc>
    <defs></defs>
    <g id="dashboard-hifi" stroke="none" stroke-width="1" fill="none" fill-rule="evenodd">
        <g id="Homepage-r3" transform="translate(-172.000000, -1084.000000)" fill-rule="nonzero" fill="#505050">
            <g id="icon-trending" transform="translate(172.500000, 1084.000000)">
                <path d="M23.3750901,0.805919933 C23.3949134,1.2089279 23.7837838,1.55927027 24.1924776,1.53971187 L29.328379,1.53971187 L17.8729288,12.8357173 L12.2732501,8.68556088 C12.1100808,8.52165689 11.8706849,8.4344377 11.6388744,8.4569913 C11.4619835,8.4735353 11.2896635,8.55022649 11.1630734,8.67352888 L0.232299658,18.6822512 C-0.0650641818,18.958936 -0.0787902618,19.4777136 0.201801098,19.7709296 C0.482388619,20.0641583 1.00849038,20.0776943 1.30584654,19.8010096 L11.7486389,10.2372855 L17.36042,14.387442 C17.6486331,14.6942004 18.2006453,14.7002164 18.4949563,14.399474 L30.4383874,2.62228458 L30.4383874,7.69902016 C30.4322901,8.10502333 30.8058997,8.4794297 31.2191573,8.4794297 C31.6324149,8.4794297 32.0060168,8.10500413 31.9999266,7.69902016 L31.9999266,0.769900736 C31.9999266,0.36689917 31.6278434,0 31.2191573,0 L24.1922312,0 C23.7012053,0.00150399988 23.3702766,0.437574364 23.3748437,0.806009533 L23.3750901,0.805919933 Z" id="Page-1"></path>
            </g>
        </g>
    </g>
</svg>