<?xml version="1.0" encoding="UTF-8"?>
<svg width="10px" height="16px" viewBox="0 0 10 16" version="1.1" xmlns="http://www.w3.org/2000/svg" xmlns:xlink="http://www.w3.org/1999/xlink">
    <!-- Generator: Sketch 43.2 (39069) - http://www.bohemiancoding.com/sketch -->
    <title>Page 1</title>
    <desc>Created with Sketch.</desc>
    <defs></defs>
    <g id="dashboard-hifi" stroke="none" stroke-width="1" fill="none" fill-rule="evenodd">
        <g id="Homepage-r3" transform="translate(-165.000000, -621.000000)" fill="#8E8E8E">
            <path d="M170.25,621.5 C167.62234,621.5 165.5,623.684811 165.5,626.382394 L165.5,632.10089 C165.5,634.815025 167.62234,637 170.25,637 C172.87766,637 175,634.797818 175,632.117606 L175,626.382558 C175,623.685631 172.87766,621.500164 170.25,621.500164 L170.25,621.5 Z M170.5,626.448581 C170.5,626.760817 170.28312,627 170,627 C169.71688,627 169.5,626.760817 169.5,626.448581 L169.5,625.051419 C169.5,624.739183 169.71688,624.5 170,624.5 C170.28312,624.5 170.5,624.739183 170.5,625.051419 L170.5,626.448581 Z" id="Page-1"></path>
        </g>
    </g>
</svg>