<?xml version="1.0" encoding="UTF-8"?>
<svg width="11px" height="9px" viewBox="0 0 11 9" version="1.1" xmlns="http://www.w3.org/2000/svg" xmlns:xlink="http://www.w3.org/1999/xlink">
    <!-- Generator: Sketch 43.1 (39012) - http://www.bohemiancoding.com/sketch -->
    <title>L</title>
    <desc>Created with Sketch.</desc>
    <defs></defs>
    <g id="Page-1" stroke="none" stroke-width="1" fill="none" fill-rule="evenodd">
        <g id="Homepage-splash-white-Copy" transform="translate(-1224.000000, -1113.000000)" fill="#505050">
            <g id="footer" transform="translate(0.000000, 1054.000000)">
                <g id="Group-3" transform="translate(151.500000, 48.000000)">
                    <g id="Group-13" transform="translate(1018.000000, 0.000000)">
                        <path d="M65,11.9710392 C64.6422487,12.1243612 64.2504259,12.2436116 63.8245315,12.2947189 C64.2504259,12.0221465 64.5570698,11.6303237 64.7274276,11.1703578 C64.3356048,11.3747871 63.8756388,11.5792164 63.4156729,11.6473595 C63.0408859,11.2555366 62.5298126,11 61.9165247,11 C60.7921635,11 59.8722317,11.9369676 59.8722317,13.0783646 C59.8722317,13.2146508 59.8892675,13.3850085 59.923339,13.5212947 C58.2197615,13.4531516 56.7206133,12.6354344 55.6984668,11.3747871 C55.528109,11.681431 55.4258944,12.0221465 55.4258944,12.4139693 C55.4258944,13.1294719 55.7666099,13.7597956 56.3458262,14.1175468 C55.9710392,14.1175468 55.6643952,14.0153322 55.3918228,13.879046 L55.3918228,13.8960818 C55.3918228,14.8841567 56.1073254,15.7018739 57.044293,15.9063032 C56.8739353,15.9403748 56.7035775,15.9744463 56.4991482,15.9744463 C56.362862,15.9744463 56.2606474,15.9574106 56.1243612,15.923339 C56.3798978,16.7410562 57.1294719,17.3373083 58.032368,17.3543441 C57.3339012,17.9165247 56.4480409,18.2231687 55.4940375,18.2231687 C55.3236797,18.2231687 55.153322,18.2231687 55,18.2061329 C55.9199319,18.802385 56.9931857,19.1431005 58.1516184,19.1431005 C61.9165247,19.1431005 63.9778535,16.0255537 63.9778535,13.2827939 L63.9778535,13.044293 C64.3696763,12.7376491 64.7274276,12.362862 65,11.9710392 Z" id="L"></path>
                    </g>
                </g>
            </g>
        </g>
    </g>
</svg>