<?xml version="1.0" encoding="UTF-8"?>
<svg width="10px" viewBox="0 0 10 11" version="1.1" xmlns="http://www.w3.org/2000/svg" xmlns:xlink="http://www.w3.org/1999/xlink">
    <!-- Generator: Sketch 43.2 (39069) - http://www.bohemiancoding.com/sketch -->
    <title>Group 11</title>
    <desc>Created with Sketch.</desc>
    <defs></defs>
    <g id="dashboard-hifi" stroke="none" stroke-width="1" fill="none" fill-rule="evenodd">
        <g id="7)-Model-Snapshot---Summary" transform="translate(-948.000000, -482.000000)" fill="#8B5FC3">
            <g id="content-box" transform="translate(151.000000, 232.000000)">
                <g id="snapshot" transform="translate(772.500000, 109.000000)">
                    <g id="Group-10" transform="translate(19.500000, 136.500000)">
                        <g id="Group-11" transform="translate(5.000000, 5.000000)">
                            <path d="M5.05115385,7.29508974 L3.92284615,8.42339744 C3.64089744,8.70534615 3.26879487,8.85908974 2.87166667,8.85908974 C2.47402564,8.85908974 2.1024359,8.70534615 1.82048718,8.42339744 L1.46141026,8.06432051 C1.17946154,7.78187179 1.02571795,7.41026923 1.02571795,7.01264103 C1.02571795,6.615 1.17946154,6.24341026 1.46141026,5.96146154 L2.96179487,4.46158974 C3.53871795,3.88466667 4.48717949,3.88466667 5.06410256,4.46158974 L5.60246154,4.99994872 C5.80779487,5.20528205 6.12830769,5.20528205 6.33312821,4.99994872 C6.53846154,4.79461538 6.53846154,4.47410256 6.33312821,4.26928205 L5.79476923,3.73092308 C4.82020513,2.75635897 3.21758974,2.75635897 2.24361538,3.73092308 L0.730666667,5.23079487 C0.256410256,5.70505128 0,6.3335641 0,7.01258974 C0,7.69217949 0.256410256,8.30771795 0.730666667,8.78194872 L1.08974359,9.14102564 C1.564,9.61528205 2.19251282,9.87169231 2.85910256,9.87169231 C3.52569231,9.87169231 4.15423077,9.61528205 4.62846154,9.14102564 L5.75676923,8.01271795 C5.96210256,7.80738462 5.96210256,7.48687179 5.75676923,7.28205128 C5.57698718,7.08974359 5.25647436,7.08974359 5.05114103,7.29507179 L5.05115385,7.29508974 Z" id="Fill-1"></path>
                            <path d="M8.69212821,0.730666667 C8.21787179,0.256410256 7.58985897,0 6.92276923,0 C6.25620513,0 5.62764103,0.256410256 5.15341026,0.730666667 L4.20489744,1.67917949 C3.9995641,1.88451282 3.9995641,2.20502564 4.20489744,2.40984615 C4.41023077,2.61517949 4.73074359,2.61517949 4.9355641,2.40984615 L5.88407692,1.46133333 C6.16602564,1.17938462 6.53812821,1.02564103 6.93525641,1.02564103 C7.33289744,1.02564103 7.70448718,1.17938462 7.9864359,1.46133333 L8.34551282,1.82041026 C8.62746154,2.10235897 8.78120513,2.47446154 8.78120513,2.87158974 C8.78120513,3.26923077 8.62746154,3.64082051 8.34551282,3.92276923 L7.02538462,5.23084615 C6.7434359,5.51279487 6.37133333,5.66653846 5.97420513,5.66653846 C5.5765641,5.66653846 5.20497436,5.51279487 4.92302564,5.23084615 L4.38466667,4.69248718 C4.17933333,4.48715385 3.85882051,4.48715385 3.654,4.69248718 C3.44866667,4.89782051 3.44866667,5.21833333 3.654,5.42315385 L4.19235897,5.96151282 C4.66661538,6.43576923 5.29512821,6.69217949 5.96171795,6.69217949 C6.62828205,6.69217949 7.25684615,6.43576923 7.73107692,5.96151282 L9.03864103,4.65394872 C9.51289744,4.17969231 9.76930769,3.55117949 9.76930769,2.88458974 C9.76930769,2.218 9.51289744,1.58946154 9.03864103,1.11523077 L8.69212821,0.730666667 Z" id="Fill-2"></path>
                        </g>
                    </g>
                </g>
            </g>
        </g>
    </g>
</svg>