<?xml version="1.0" encoding="UTF-8"?>
<svg width="7px" height="6px" viewBox="0 0 7 6" version="1.1" xmlns="http://www.w3.org/2000/svg" xmlns:xlink="http://www.w3.org/1999/xlink">
    <!-- Generator: Sketch 43.2 (39069) - http://www.bohemiancoding.com/sketch -->
    <title>Page-1</title>
    <desc>Created with Sketch.</desc>
    <defs></defs>
    <g id="dashboard-hifi" stroke="none" stroke-width="1" fill="none" fill-rule="evenodd">
        <g id="7)-Model-Snapshot---snapshot" transform="translate(-1222.000000, -437.000000)" fill-rule="nonzero" fill="#7C7C7C">
            <g id="content-box" transform="translate(151.000000, 233.500000)">
                <g id="snapshot-wrapper" transform="translate(31.000000, 31.500000)">
                    <g id="snapshot" transform="translate(30.000000, 76.000000)">
                        <path d="M1011.00002,101.638692 L1011.00002,95.8925936 C1011.00002,95.7518782 1011.07234,95.6232939 1011.19177,95.5557089 C1011.31485,95.4756469 1011.47045,95.4825788 1011.5869,95.5719989 L1015.82476,98.4365562 C1015.93855,98.5031013 1016.0059,98.6316859 1015.99959,98.7682422 C1016.00225,98.9051445 1015.9359,99.0337292 1015.82476,99.1054731 L1011.5869,101.960673 C1011.52618,102.003997 1011.45618,102.02999 1011.3822,102.037962 C1011.31353,102.042121 1011.24618,102.020286 1011.19044,101.978349 C1011.07101,101.910764 1010.99869,101.779407 1011.00002,101.638692 Z" id="Page-1" transform="translate(1013.500000, 98.769232) rotate(-90.000000) translate(-1013.500000, -98.769232) "></path>
                    </g>
                </g>
            </g>
        </g>
    </g>
</svg>