<?xml version="1.0" encoding="utf-8"?>
<!-- Generator: Adobe Illustrator 16.0.0, SVG Export Plug-In . SVG Version: 6.00 Build 0)  -->
<!DOCTYPE svg PUBLIC "-//W3C//DTD SVG 1.1//EN" "http://www.w3.org/Graphics/SVG/1.1/DTD/svg11.dtd">
<svg version="1.1" id="Layer_1" xmlns="http://www.w3.org/2000/svg" xmlns:xlink="http://www.w3.org/1999/xlink" x="0px" y="0px"
	 width="512px" height="512px" viewBox="0 0 512 512" enable-background="new 0 0 512 512" xml:space="preserve">
<path d="M256,96C141.125,96,48,189.125,48,304s93.125,208,208,208s208-93.125,208-208S370.875,96,256,96z M272,479.188V464
	c0-8.844-7.156-16-16-16s-16,7.156-16,16v15.188C155.719,471.531,88.438,404.281,80.813,320H96c8.844,0,16-7.156,16-16
	s-7.156-16-16-16H80.813C88.438,203.719,155.719,136.438,240,128.813V144c0,8.844,7.156,16,16,16s16-7.156,16-16v-15.188
	c84.281,7.625,151.531,74.906,159.188,159.188H416c-8.844,0-16,7.156-16,16s7.156,16,16,16h15.188
	C423.531,404.281,356.281,471.531,272,479.188z M208,48V16c0-8.844,7.156-16,16-16h64c8.844,0,16,7.156,16,16v32
	c0,8.844-7.156,16-16,16v18.563C277.5,81.063,266.875,80,256,80s-21.5,1.063-32,2.563V64C215.156,64,208,56.844,208,48z
	 M394.031,127.938C377.531,115,359.25,104.281,339.5,96.313c0.313-0.75,0.375-1.563,0.781-2.313l16-27.688
	c4.438-7.688,14.219-10.313,21.875-5.875l27.688,16c7.656,4.438,10.281,14.188,5.875,21.875l-16,27.688
	C395.281,126.781,394.563,127.25,394.031,127.938z M394.563,224c4.438,7.656,1.813,17.438-5.844,21.875L264,317.844
	c-2.469,1.438-5.25,2.156-8,2.156s-5.531-0.719-8-2.156l-124.688-71.969c-7.688-4.438-10.313-14.219-5.875-21.875
	s14.219-10.281,21.875-5.875L256,285.531l116.719-67.406C380.406,213.75,390.188,216.375,394.563,224z"/>
</svg>
