<?xml version="1.0" encoding="UTF-8"?>
<svg width="62px" height="58px" viewBox="0 0 62 58" version="1.1" xmlns="http://www.w3.org/2000/svg" xmlns:xlink="http://www.w3.org/1999/xlink">
    <!-- Generator: Sketch 49.3 (51167) - http://www.bohemiancoding.com/sketch -->
    <title>Artboard 2 Copy 2</title>
    <desc>Created with Sketch.</desc>
    <defs></defs>
    <g id="Artboard-2-Copy-2" stroke="none" stroke-width="1" fill="none" fill-rule="evenodd">
        <g id="analytics" transform="translate(4.000000, 4.000000)">
            <ellipse id="Oval" cx="17" cy="5.5" rx="4" ry="4.5"></ellipse>
            <circle id="Oval" cx="41" cy="10" r="4"></circle>
            <ellipse id="Oval" cx="45" cy="34.5" rx="4" ry="4.5"></ellipse>
            <ellipse id="Oval" cx="23" cy="45.5" rx="4" ry="4.5"></ellipse>
            <circle id="Oval" cx="5" cy="27" r="4"></circle>
            <path d="M14.3317744,29.4421885 L14.7223746,29.8040298 C14.8651684,29.9363539 15.0306162,30 15.1946756,30 C15.443432,30 15.6888999,29.853232 15.8462362,29.5769355 C16.0880502,29.1525663 16.0377728,28.5711788 15.7437813,28.2228494 C15.8210244,27.7207632 15.593899,27.212713 15.202568,27.0505693 C14.7796675,26.8752864 14.3260013,27.1703134 14.1885422,27.7092081 L14.0393906,28.2947891 C13.9317472,28.7176672 14.0497677,29.1808017 14.3317744,29.4421885 Z" id="Shape" fill="#727272"></path>
            <path d="M15.566118,22.9560523 C15.6501603,22.9858103 15.7353925,23 15.8193604,23 C16.1645287,23 16.4855999,22.7599907 16.598053,22.3827868 L16.9597322,21.169037 C17.099406,20.7001269 16.8640877,20.1964317 16.4339102,20.0439934 C16.0040303,19.8914739 15.5417978,20.1482677 15.4019753,20.6172589 L15.040296,21.8310087 C14.9005478,22.3000809 15.1359406,22.8037762 15.566118,22.9560523 Z" id="Shape" fill="#727272"></path>
            <path d="M18.7443485,15.9616349 C18.8549695,15.9876356 18.9670576,16 19.077483,16 C19.4895488,16 19.8754019,15.8278164 20.0536084,15.5502173 C20.5867606,15.503727 21,15.1756809 21,14.7779701 C21,14.3483237 20.517708,14 19.9230345,14 L19.2769139,14 C18.810369,14 18.3968361,14.2170488 18.2526669,14.5374642 L18.0530405,14.9814534 C17.8691612,15.3899036 18.178724,15.8288056 18.7443485,15.9616349 Z" id="Shape" fill="#727272"></path>
            <path d="M24.8747683,16 L26.1252317,16 C26.608257,16 27,15.5522659 27,15 C27,14.4477341 26.608257,14 26.1252317,14 L24.8747683,14 C24.391743,14 24,14.4476433 24,15 C24,15.5523567 24.3915841,16 24.8747683,16 Z" id="Shape" fill="#727272"></path>
            <path d="M31.9463086,15.550249 C32.1245179,15.8278993 32.510377,16 32.9224492,16 C33.0325829,16 33.1449662,15.9876364 33.255589,15.9616376 C33.8212223,15.8288177 34.1307899,15.3899467 33.9470056,14.981384 L33.747376,14.5374263 C33.6032045,14.2169628 33.1896652,14 32.7231131,14 L32.0769824,14 C31.4822995,14 31,14.3482991 31,14.7779152 C30.9999022,15.1758098 31.4130503,15.5037621 31.9463086,15.550249 Z" id="Shape" fill="#727272"></path>
            <path d="M34.0402683,21.1690512 L34.4019527,22.3827916 C34.5144073,22.7600736 34.8354087,23 35.1806562,23 C35.2644022,23 35.3497844,22.9858104 35.4339022,22.9560527 C35.8640857,22.8036155 36.0994074,22.3000053 35.9597317,21.8310178 L35.5980473,20.6172774 C35.4583715,20.1483709 34.9963556,19.891417 34.5660978,20.0440163 C34.1359143,20.1964535 33.9005926,20.7000637 34.0402683,21.1690512 Z" id="Shape" fill="#727272"></path>
            <path d="M35.256172,28.2228019 C34.9622456,28.5711406 34.9119668,29.1525437 35.1537143,29.5769242 C35.3111279,29.8532281 35.5565294,30 35.8052925,30 C35.9692833,30 36.1348087,29.9362591 36.2776063,29.8040246 L36.6682171,29.4421736 C36.9502315,29.1809662 37.0683282,28.7176329 36.9605357,28.2949298 L36.8113801,27.7093332 C36.6739173,27.1704241 36.2200196,26.8751097 35.7973268,27.0506768 C35.4061314,27.2127317 35.1789268,27.7207022 35.256172,28.2228019 Z" id="Shape" fill="#727272"></path>
            <path d="M30.9512475,34 C31.1449401,34 31.3405316,33.9343882 31.5091063,33.7981764 L32.6081649,32.9107858 C33.0328385,32.5679543 33.1269227,31.9074233 32.8184301,31.4354784 C32.5098513,30.9634376 31.9153946,30.8589766 31.4908937,31.2018081 L30.3918351,32.0891988 C29.9671615,32.4320303 29.8730773,33.0925613 30.1815699,33.5645062 C30.3676666,33.8491119 30.6573423,34 30.9512475,34 Z" id="Shape" fill="#727272"></path>
            <path d="M25.4999083,34.1069161 C25.0600045,33.9007165 24.4963005,33.9989141 24.1929439,34.3505574 C23.8651023,34.7303785 23.9651513,35.2619736 24.4163346,35.5378843 L24.9064922,35.8376496 C25.0834807,35.9458832 25.2917404,36 25.5,36 C25.7083513,36 25.9165193,35.9458832 26.0935078,35.8376496 L26.5836654,35.5378843 C27.0348487,35.2619736 27.1348977,34.7303785 26.8070561,34.3505574 C26.5036078,33.9988369 25.9398121,33.9005621 25.4999083,34.1069161 Z" id="Shape" fill="#727272"></path>
            <path d="M19.1815751,31.435384 C18.8730737,31.9073463 18.9671605,32.5679015 19.3918463,32.9107457 L20.4909366,33.798169 C20.6596024,33.9343857 20.855027,34 21.0488114,34 C21.3427251,34 21.6325817,33.8489145 21.8184249,33.5644901 C22.1269263,33.0925279 22.0328395,32.4319726 21.6081537,32.0891285 L20.5090634,31.2017051 C20.0845503,30.8590529 19.4900765,30.9634218 19.1815751,31.435384 Z" id="Shape" fill="#727272"></path>
            <path d="M51.27473,23.5309296 C50.6963306,23.3116132 50.0517123,23.6072804 49.8347744,24.1907235 L48.3444437,28.1955023 L43.8326233,14.183747 C45.3964854,13.2611834 46.4500966,11.5495932 46.4500966,9.59347549 C46.4500966,6.66303957 44.0874441,4.27894743 41.1832593,4.27894743 C40.6938288,4.27894743 40.2204451,4.34812433 39.7704209,4.47469243 L34.0925595,0.222414088 C33.5965273,-0.149091479 32.8961511,-0.0444550149 32.528088,0.456078279 C32.1600248,0.956509089 32.2637203,1.66324078 32.7595493,2.03474635 L36.0227581,4.47858684 L21.7803192,4.47858684 C21.2684433,2.08516862 19.1554318,0.285851866 16.6327165,0.285851866 C13.9106336,0.285851866 11.6641688,2.38052836 11.3934027,5.05649577 L5.38302501,8.33814536 C4.83986782,8.63473491 4.63775809,9.31953497 4.93168048,9.86762097 C5.22560286,10.415707 5.90424467,10.6194458 6.44740187,10.3230612 L10.504323,8.10796564 L5.80278356,22.709108 C5.62657231,22.6910708 5.44772044,22.6818472 5.26693887,22.6818472 C2.36265256,22.6817447 0,25.0659394 0,27.9963753 C0,30.308216 1.47093225,32.278989 3.51762332,33.0083697 L5.83934612,39.6546812 C6.00133859,40.1183201 6.43308153,40.4082482 6.89407452,40.4082482 C7.01737161,40.4082482 7.14300464,40.3874439 7.26579392,40.3436831 C7.84825587,40.1364598 8.15406109,39.4920386 7.94870136,38.9042911 L6.67419133,35.2560552 L17.9141328,43.4965099 C17.6135073,44.1645025 17.4447101,44.905259 17.4447101,45.6854719 C17.4447101,48.6159079 19.8073627,51 22.7115474,51 C24.2205657,51 25.5824196,50.3551688 26.5435072,49.3256116 L33.5398554,49.7675239 C33.5637226,49.7689587 33.5872851,49.7697785 33.6108477,49.7697785 C34.1964581,49.7697785 34.6887324,49.3097265 34.7259043,48.7117307 C34.7644981,48.0897535 34.2960911,47.5539656 33.6797072,47.5150216 L29.3568949,47.2419009 L41.5176037,38.3264847 C42.4476131,39.1584522 43.6695137,39.6650321 45.0070941,39.6650321 C47.9111773,39.6650321 50.2738299,37.2809399 50.2738299,34.350504 C50.2738299,33.3251486 49.9837669,32.367023 49.4831644,31.5541176 L51.9281843,24.9836445 C52.1455284,24.4006113 51.8529264,23.7499385 51.27473,23.5309296 Z M44.2134834,9.59327052 C44.2134834,11.2792396 42.8540669,12.6509919 41.1831578,12.6509919 C39.5122486,12.6509919 38.1528322,11.2792396 38.1528322,9.59327052 C38.1528322,7.90730139 39.5122486,6.53554911 41.1831578,6.53554911 C42.8540669,6.53554911 44.2134834,7.90730139 44.2134834,9.59327052 Z M16.6326149,2.54265851 C18.3034225,2.54265851 19.6629405,3.91441079 19.6629405,5.60037992 C19.6629405,7.28645153 18.3035241,8.65820382 16.6326149,8.65820382 C14.9617058,8.65820382 13.6023909,7.28645153 13.6023909,5.60037992 C13.6024925,3.91441079 14.9618073,2.54265851 16.6326149,2.54265851 Z M12.1917869,10.1703596 L12.8330536,13.3279007 C12.9416241,13.8619464 13.4073906,14.2300699 13.9273915,14.2299675 C14.0017354,14.2299675 14.0775011,14.2223836 14.1531653,14.2067035 C14.7581742,14.0815702 15.1480733,13.4852141 15.0241668,12.8747151 L14.5368691,10.4749429 C15.1795577,10.7573896 15.888059,10.9150105 16.6326149,10.9150105 C19.1506584,10.9150105 21.2605215,9.12215022 21.7772724,6.73539348 L35.9765471,6.73539348 L32.7596509,9.14459428 C32.2637203,9.51609984 32.1601264,10.2228315 32.5281895,10.7232623 C32.7475649,11.0215941 33.0850577,11.179215 33.4270192,11.179215 C33.6585821,11.179215 33.8923794,11.1068611 34.092661,10.9569265 L35.9165236,9.59101586 L35.9165236,9.593373 C35.9165236,12.5238089 38.2791761,14.9079011 41.1833609,14.9079011 C41.3596737,14.9079011 41.5339552,14.89878 41.7057993,14.8815626 L46.086096,28.4851229 L43.0617626,26.1503257 C42.5712149,25.7717487 41.8694168,25.8659318 41.4940411,26.3609309 C41.1188686,26.8558276 41.2121031,27.564199 41.7027524,27.9428785 L43.4332789,29.2788637 C41.2956892,29.955875 39.7406631,31.9733808 39.7406631,34.3508115 C39.7406631,35.1181114 39.9039758,35.8474921 40.1953592,36.506876 L28.5560732,45.0400259 L29.8427708,41.5523828 C30.0582868,40.9683248 29.763755,40.3185744 29.1847462,40.1012052 C28.6062452,39.8837336 27.9620331,40.180938 27.7466187,40.7650985 L27.0443128,42.6687443 C26.0928736,41.2820293 24.5061599,40.3711489 22.7118521,40.3711489 C21.3871701,40.3711489 20.1760352,40.8683002 19.2495804,41.6860224 L7.67722433,33.2016551 L11.8891301,33.0100094 C12.5062249,32.9819287 12.9836711,32.4544421 12.9559445,31.8319525 C12.9281163,31.2092579 12.4052716,30.7271718 11.7884815,30.7554574 L9.70644661,30.8501529 C10.2292913,30.0250519 10.5337762,29.0461219 10.5337762,27.9962728 C10.5337762,26.0449718 9.48554779,24.3369686 7.92808414,23.4127652 L12.1917869,10.1703596 Z M5.26683731,24.9386539 C6.93764491,24.9386539 8.29706134,26.3104061 8.29706134,27.9963753 C8.29706134,29.6823444 6.93774647,31.0540967 5.26683731,31.0540967 C3.59592815,31.0540967 2.23651171,29.6823444 2.23651171,27.9963753 C2.23651171,26.3104061 3.59592815,24.9386539 5.26683731,24.9386539 Z M22.7118521,48.7431934 C21.0410445,48.7431934 19.6815265,47.3714411 19.6815265,45.6854719 C19.6815265,43.9995028 21.0409429,42.6277505 22.7118521,42.6277505 C24.3827613,42.6277505 25.7420761,43.9995028 25.7420761,45.6854719 C25.7420761,47.3714411 24.3826597,48.7431934 22.7118521,48.7431934 Z M45.0073988,37.4084304 C43.3365912,37.4084304 41.9770732,36.0366781 41.9770732,34.350709 C41.9770732,32.6646374 43.3364896,31.2928851 45.0073988,31.2928851 C46.678308,31.2928851 48.0376228,32.6646374 48.0376228,34.350709 C48.0375213,36.0366781 46.6782064,37.4084304 45.0073988,37.4084304 Z" id="Shape" fill="#727272"></path>
        </g>
    </g>
</svg>