<?xml version="1.0" encoding="UTF-8"?>
<svg width="33px" height="30px" viewBox="0 0 33 30" version="1.1" xmlns="http://www.w3.org/2000/svg" xmlns:xlink="http://www.w3.org/1999/xlink">
    <!-- Generator: Sketch 43.2 (39069) - http://www.bohemiancoding.com/sketch -->
    <title>Page 1</title>
    <desc>Created with Sketch.</desc>
    <defs>
        <polygon id="path-1" points="31.7384186 3.32612647 31.7384186 6.5 0 6.5 0 3.32612647 0 0.152252941 31.7384186 0.152252941 31.7384186 3.32612647"></polygon>
    </defs>
    <g id="dashboard-hifi" stroke="none" stroke-width="1" fill="none" fill-rule="evenodd">
        <g id="Homepage-r3" transform="translate(-945.000000, -1079.000000)">
            <g id="Page-1" transform="translate(945.500000, 1079.500000)">
                <g id="Group-3" transform="translate(0.000000, 22.500000)">
                    <mask id="mask-2" fill="white">
                        <use xlink:href="#path-1"></use>
                    </mask>
                    <g id="Clip-2"></g>
                    <path d="M0,2.94381176 C0,4.90451765 1.56874419,6.50007647 3.49693023,6.50007647 L28.2411163,6.50007647 C30.1696744,6.50007647 31.7384186,4.90451765 31.7384186,2.94381176 L31.7384186,0.916958824 C31.7384186,0.488341176 31.4113488,0.152252941 30.9942326,0.152252941 C30.5767442,0.152252941 30.2500465,0.488341176 30.2500465,0.916958824 L30.2500465,2.94381176 C30.2500465,4.08016471 29.367814,4.97066471 28.2411163,4.97066471 L3.4984186,4.96913529 C2.39106977,4.96913529 1.48986047,4.0599 1.48986047,2.94228235 L1.48986047,0.915429412 C1.48874419,0.502105882 1.14716279,0.152252941 0.744186047,0.152252941 C0.326697674,0.152252941 0,0.488341176 0,0.916958824 L0,2.94381176 Z" id="Fill-1" fill="#505050" mask="url(#mask-2)"></path>
                </g>
                <path d="M22.7305486,5.90307293 L16.0097365,0.156486582 C15.9937257,0.149096424 15.9803213,0.140597743 15.969151,0.132099062 C15.9307995,0.121752842 15.8984056,0.104016465 15.8734585,0.0870191027 C15.8522349,0.0781509139 15.8347347,0.0674351857 15.820958,0.0570889655 C15.7904258,0.0493293003 15.7654787,0.0371355406 15.7479785,0.0282673518 L15.6399987,0.0182906394 C15.5670193,-0.00609687981 15.4970186,-0.00609687981 15.4251562,0.0182906394 L15.316804,0.0282673518 C15.2818037,0.0452647137 15.2404735,0.0633705992 15.1887176,0.0655876464 C15.1745685,0.0670656779 15.1596748,0.0678046936 15.144781,0.0681742015 L15.1082913,0.106233512 L15.0807378,0.106233512 C15.0729186,0.111037114 15.0643547,0.116210224 15.0546737,0.121013826 L15.0487162,0.126925952 L8.26162687,5.89900834 C7.95518762,6.17207466 7.91050632,6.64504473 8.16705145,6.92845726 C8.29811659,7.07330435 8.48689508,7.16715934 8.68423749,7.18674326 C8.88269692,7.20521865 9.068869,7.14868395 9.20738103,7.02563783 L14.7307343,2.3273453 L14.7307343,20.7609843 C14.7601495,21.1556187 15.1187169,21.5 15.5134017,21.5 C15.9307995,21.5 16.25809,21.1755721 16.25809,20.7609843 L16.25809,2.32697579 L21.7780922,7.02268177 C21.9322427,7.14424986 22.0800633,7.20041505 22.2532034,7.20041505 C22.4695353,7.20041505 22.6750693,7.10360399 22.8173048,6.9347389 C22.9483699,6.7895223 23.0127855,6.59885624 22.9978917,6.40708166 C22.9822532,6.20902544 22.8873055,6.03018364 22.7305486,5.90307293" id="Fill-4" fill="#505050"></path>
            </g>
        </g>
    </g>
</svg>