<?xml version="1.0" encoding="UTF-8"?>
<svg width="48px" height="41px" viewBox="0 0 48 41" version="1.1" xmlns="http://www.w3.org/2000/svg" xmlns:xlink="http://www.w3.org/1999/xlink">
    <!-- Generator: Sketch 43.1 (39012) - http://www.bohemiancoding.com/sketch -->
    <title>binary-code.1.1</title>
    <desc>Created with Sketch.</desc>
    <defs></defs>
    <g id="Page-1" stroke="none" stroke-width="1" fill="none" fill-rule="evenodd">
        <g id="Homepage-slide" transform="translate(-566.000000, -2698.000000)" stroke="#FFFFFF" stroke-width="1.5" fill="#505050" fill-rule="nonzero">
            <g id="binary-code.1.1" transform="translate(567.000000, 2698.000000)">
                <path d="M15.95,7.97307692 C16.7,8.72307692 17.9192308,8.72307692 18.6692308,7.97307692 L19.2307692,7.41153846 L19.2307692,14.3076923 C19.2307692,15.3692308 20.0923077,16.2307692 21.1538462,16.2307692 C22.2153846,16.2307692 23.0769231,15.3692308 23.0807692,14.3076923 L23.0807692,2.76923077 C23.0807692,1.99230769 22.6115385,1.28846154 21.8923077,0.992307692 C21.1769231,0.688461538 20.3461538,0.857692308 19.7961538,1.40769231 L15.95,5.25384615 C15.2,6.00384615 15.2,7.22307692 15.95,7.97307692 Z" id="Shape"></path>
                <path d="M30.2076923,7.97307692 L30.7692308,7.41153846 L30.7692308,14.3076923 C30.7692308,15.3692308 31.6307692,16.2307692 32.6923077,16.2307692 C33.7538462,16.2307692 34.6153846,15.3692308 34.6192308,14.3076923 L34.6192308,2.76923077 C34.6192308,1.99230769 34.15,1.28846154 33.4307692,0.992307692 C32.7192308,0.688461538 31.8846154,0.857692308 31.3346154,1.40769231 L27.4884615,5.25384615 C26.7384615,6.00384615 26.7384615,7.22307692 27.4884615,7.97307692 C28.2384615,8.72307692 29.4576923,8.72307692 30.2076923,7.97307692 Z" id="Shape"></path>
                <path d="M41.7461538,7.97307692 L42.3076923,7.41153846 L42.3076923,14.3076923 C42.3076923,15.3692308 43.1692308,16.2307692 44.2307692,16.2307692 C45.2923077,16.2307692 46.1538462,15.3692308 46.1576923,14.3076923 L46.1576923,2.76923077 C46.1576923,1.99230769 45.6884615,1.28846154 44.9692308,0.992307692 C44.2538462,0.688461538 43.4269231,0.857692308 42.8730769,1.40769231 L39.0269231,5.25384615 C38.2769231,6.00384615 38.2769231,7.22307692 39.0269231,7.97307692 C39.7769231,8.72307692 40.9961538,8.72307692 41.7461538,7.97307692 Z" id="Shape"></path>
                <path d="M11.5384615,2.76923077 C11.5384615,1.70769231 10.6769231,0.846153846 9.61538462,0.846153846 L1.92307692,0.846153846 C0.861538462,0.846153846 0,1.70769231 0,2.76923077 L0,14.3076923 C0,15.3692308 0.861538462,16.2307692 1.92307692,16.2307692 L9.61538462,16.2307692 C10.6769231,16.2307692 11.5384615,15.3692308 11.5384615,14.3076923 L11.5384615,2.76923077 Z M7.69230769,12.3846154 L3.84615385,12.3846154 L3.84615385,4.69230769 L7.69230769,4.69230769 L7.69230769,12.3846154 Z" id="Shape"></path>
                <path d="M30.2076923,31.05 L30.7692308,30.4884615 L30.7692308,37.3846154 C30.7692308,38.4461538 31.6307692,39.3076923 32.6923077,39.3076923 C33.7538462,39.3076923 34.6153846,38.4461538 34.6192308,37.3846154 L34.6192308,25.8461538 C34.6192308,25.0692308 34.15,24.3653846 33.4307692,24.0692308 C32.7192308,23.7692308 31.8846154,23.9346154 31.3346154,24.4846154 L27.4884615,28.3307692 C26.7384615,29.0807692 26.7384615,30.3 27.4884615,31.05 C28.2384615,31.8 29.4576923,31.8 30.2076923,31.05 Z" id="Shape"></path>
                <path d="M41.7461538,31.05 L42.3076923,30.4884615 L42.3076923,37.3846154 C42.3076923,38.4461538 43.1692308,39.3076923 44.2307692,39.3076923 C45.2923077,39.3076923 46.1538462,38.4461538 46.1576923,37.3846154 L46.1576923,25.8461538 C46.1576923,25.0692308 45.6884615,24.3653846 44.9692308,24.0692308 C44.2538462,23.7692308 43.4269231,23.9346154 42.8730769,24.4846154 L39.0269231,28.3307692 C38.2769231,29.0807692 38.2769231,30.3 39.0269231,31.05 C39.7769231,31.8 40.9961538,31.8 41.7461538,31.05 Z" id="Shape"></path>
                <path d="M6.50769231,24.0692308 C5.79230769,23.7692308 4.96153846,23.9346154 4.41153846,24.4846154 L0.565384615,28.3307692 C-0.184615385,29.0807692 -0.184615385,30.3 0.565384615,31.05 C1.31538462,31.8 2.53461538,31.8 3.28461538,31.05 L3.84615385,30.4884615 L3.84615385,37.3846154 C3.84615385,38.4461538 4.70769231,39.3076923 5.76923077,39.3076923 C6.83076923,39.3076923 7.69230769,38.4461538 7.69615385,37.3846154 L7.69615385,25.8461538 C7.69615385,25.0692308 7.22692308,24.3653846 6.50769231,24.0692308 Z" id="Shape"></path>
                <path d="M21.1538462,23.9230769 L13.4615385,23.9230769 C12.4,23.9230769 11.5384615,24.7846154 11.5384615,25.8461538 L11.5384615,37.3846154 C11.5384615,38.4461538 12.4,39.3076923 13.4615385,39.3076923 L21.1538462,39.3076923 C22.2153846,39.3076923 23.0769231,38.4461538 23.0769231,37.3846154 L23.0769231,25.8461538 C23.0769231,24.7846154 22.2153846,23.9230769 21.1538462,23.9230769 Z M19.2307692,35.4615385 L15.3846154,35.4615385 L15.3846154,27.7692308 L19.2307692,27.7692308 L19.2307692,35.4615385 Z" id="Shape"></path>
            </g>
        </g>
    </g>
</svg>