<?xml version="1.0" encoding="UTF-8"?>
<svg width="50px" height="32px" viewBox="0 0 50 32" version="1.1" xmlns="http://www.w3.org/2000/svg" xmlns:xlink="http://www.w3.org/1999/xlink">
    <!-- Generator: Sketch 43.1 (39012) - http://www.bohemiancoding.com/sketch -->
    <title>Page 1</title>
    <desc>Created with Sketch.</desc>
    <defs></defs>
    <g id="Page-1" stroke="none" stroke-width="1" fill="none" fill-rule="evenodd">
        <g id="Homepage-slide" transform="translate(-565.000000, -1368.000000)" fill="#505050">
            <path d="M601.523578,1369.25925 C601.554552,1369.88895 602.162162,1370.43636 602.800746,1370.4058 L610.825592,1370.4058 L592.926451,1388.05581 L584.176953,1381.57119 C583.922001,1381.31509 583.547945,1381.17881 583.185741,1381.21405 C582.909349,1381.2399 582.640099,1381.35973 582.442302,1381.55239 L565.362968,1397.19102 C564.898337,1397.62334 564.87689,1398.43393 565.315314,1398.89208 C565.753732,1399.35025 566.575766,1399.3714 567.040385,1398.93908 L583.357248,1383.99576 L592.125656,1390.48038 C592.575989,1390.95969 593.438508,1390.96909 593.898369,1390.49918 L612.55998,1372.09732 L612.55998,1380.02972 C612.550453,1380.6641 613.134218,1381.24911 613.779933,1381.24911 C614.425648,1381.24911 615.009401,1380.66407 614.999885,1380.02972 L614.999885,1369.20297 C614.999885,1368.57328 614.418505,1368 613.779933,1368 L602.800361,1368 C602.033133,1368.00235 601.516057,1368.68371 601.523193,1369.25939 L601.523578,1369.25925 Z" id="Page-1"></path>
        </g>
    </g>
</svg>