<?xml version="1.0" encoding="UTF-8"?>
<svg width="72px" viewBox="0 0 134 35" version="1.1" xmlns="http://www.w3.org/2000/svg" xmlns:xlink="http://www.w3.org/1999/xlink">
    <!-- Generator: Sketch 43.1 (39012) - http://www.bohemiancoding.com/sketch -->
    <title>Group 3</title>
    <desc>Created with Sketch.</desc>
    <defs></defs>
    <g id="Page-1" stroke="none" stroke-width="1" fill="none" fill-rule="evenodd">
        <g id="Header" transform="translate(-307.000000, -51.000000)">
            <g id="Group-2">
                <g id="Group-3" transform="translate(307.000000, 51.000000)">
                    <path d="M25.036,0.742 L25.036,34 L19.056,34 L19.056,31.516 C18.412,32.298 16.02,34.598 11.926,34.598 C5.026,34.598 0.15,29.4 0.15,21.994 C0.15,14.542 4.658,9.344 11.558,9.344 C15.698,9.344 18.09,11.644 18.688,12.472 L18.688,0.742 L25.036,0.742 Z M18.872,22.04 C18.872,17.532 16.204,14.956 12.708,14.956 C9.028,14.956 6.544,17.854 6.544,22.04 C6.544,26.318 9.12,28.986 12.708,28.986 C16.572,28.986 18.872,25.858 18.872,22.04 Z M28.624,26.548 C28.624,21.81 32.35,18.59 37.962,18.59 C40.4,18.59 42.286,19.326 43.16,19.924 L43.16,18.36 C43.16,16.244 41.596,14.818 38.79,14.818 C36.398,14.818 34.19,15.6 32.396,16.52 L30.004,12.196 C32.166,10.724 35.8,9.344 39.48,9.344 C47.208,9.344 49.508,13.392 49.508,18.774 L49.508,34 L43.896,34 L43.482,32.436 C42.24,33.77 40.4,34.598 37.64,34.598 C32.764,34.598 28.624,31.608 28.624,26.548 Z M34.972,26.364 C34.972,28.342 36.766,29.676 39.158,29.676 C41.55,29.676 43.298,28.388 43.298,26.364 C43.298,24.248 41.55,23.006 39.112,23.006 C36.674,23.006 34.972,24.386 34.972,26.364 Z M54.798,9.942 L52.222,9.942 L52.222,15.094 L54.752,15.094 L54.752,24.57 C54.752,31.102 57.282,34.322 63.032,34.322 C64.78,34.322 65.746,34.092 65.746,34.092 L65.746,28.664 C65.24,28.71 65.01,28.71 64.596,28.71 C62.158,28.71 61.054,27.974 61.054,24.386 L61.054,15.094 L65.562,15.094 L65.562,9.942 L61.054,9.942 L61.054,4.882 L54.798,4.882 L54.798,9.942 Z" id="dat" fill="#1894e9"></path>
                    <path d="M103.846,18.13 C103.846,12.978 101.132,9.344 95.658,9.344 C92.438,9.344 89.954,10.724 88.528,12.932 C87.286,10.724 85.032,9.344 81.95,9.344 C78.684,9.344 76.568,11.092 75.694,12.748 L75.694,9.942 L69.484,9.942 L69.484,34 L75.832,34 L75.832,19.602 C75.832,16.75 77.488,15.048 79.742,15.048 C82.088,15.048 83.468,16.658 83.468,19.372 L83.468,34 L89.816,34 L89.816,19.648 C89.816,16.75 91.426,15.048 93.726,15.048 C96.072,15.048 97.498,16.75 97.498,19.602 L97.498,34 L103.846,34 L103.846,18.13 Z M107.296,22.04 C107.296,14.726 112.908,9.344 120.222,9.344 C127.582,9.344 133.194,14.772 133.194,22.04 C133.194,29.308 127.766,34.598 120.222,34.598 C112.724,34.598 107.296,29.308 107.296,22.04 Z M113.644,22.04 C113.644,26.134 116.45,28.986 120.222,28.986 C124.04,28.986 126.846,26.134 126.846,22.04 C126.846,17.946 124.04,14.956 120.222,14.956 C116.404,14.956 113.644,17.9 113.644,22.04 Z" id="mo." fill="#505050"></path>
                </g>
            </g>
        </g>
    </g>
</svg>